<svg width="292" height="243" viewBox="0 0 292 243" fill="none" xmlns="http://www.w3.org/2000/svg">
<path d="M405.831 5.16675C405.454 5.07002 405.104 4.98239 404.707 4.88872C400.219 3.81969 394.543 3.00493 390.107 2.5698C388.603 2.42114 389.248 3.10483 388.208 3.02877C386.165 2.87887 384.342 2.27901 382.309 2.19089C381.634 2.16443 382.306 3.17424 381.603 3.12698C377.757 2.86523 374.205 2.06287 370.308 1.67808C367.797 1.43131 365.278 1.19701 362.756 0.98898C350.592 -0.0286427 338.357 -0.316762 326.161 0.387944C321.553 0.64228 316.862 1.01935 312.152 1.64681C308.389 2.14115 304.221 3.08127 300.159 4.02103C297.186 4.70466 294.232 5.38745 291.449 5.88348C290.68 6.02012 290.956 5.16114 290.797 5.13282C288.294 4.7243 289.414 6.06429 287.991 6.63013C282.334 8.88338 275.999 10.8527 270.44 12.4065C268.078 13.0677 269.912 10.821 267.849 12.4383C267.846 12.4407 267.843 12.4434 267.841 12.4462C267.817 12.4771 267.846 12.533 267.896 12.6043C268.022 12.7854 268.28 13.0657 268.13 13.285C268.096 13.3357 268.04 13.383 267.956 13.4251C266.581 14.1052 263.819 14.938 262.738 15.4069C260.656 16.3115 260.301 16.4366 258.304 17.2068C255.577 18.2692 252.496 19.9297 249.529 20.9504C248.894 21.1664 249.393 20.049 248.349 20.3248C247.304 20.5994 244.719 21.7662 243.921 22.3269C243.121 22.8863 243.757 23.3342 243.662 23.5402C242.897 25.2596 239.199 24.9518 238.793 25.0883C234.872 26.4017 231.458 28.1113 228.158 29.9324C225.301 31.5103 222.523 33.1643 219.558 34.7352C214.712 37.2979 209.423 39.9252 204.969 42.7943C200.343 45.8199 196.657 48.6628 192.46 52.4792C191.864 53.0445 191.275 53.625 190.688 54.2224C190.207 54.7174 190.048 53.4434 189.454 54.0597C183.175 60.6777 179.103 68.5992 176.603 76.7496C176.359 77.5604 177.565 76.8597 177.37 77.6944C177.09 78.8861 176.827 80.2589 176.552 81.6541C175.329 86.6612 175.976 92.1822 173.762 95.3112C174.533 98.546 175.887 101.847 177.332 104.306C177.645 104.863 177.967 105.359 178.311 105.83C179.679 107.607 179.595 105.305 180.442 107.824C180.656 108.393 179.543 108.109 179.935 108.944C181.609 112.5 184.8 115.619 187.736 118.19C188.334 118.72 187.741 119.207 187.856 119.448C188.908 121.511 192.648 121.388 193.265 121.496C198.263 122.644 201.498 123.78 205.798 124.646C206.79 124.835 205.424 125.586 206.378 125.801C206.796 125.894 207.215 125.982 207.634 126.067C213.043 127.354 219.515 125.545 223.375 123.006C224.346 122.411 223.035 122.113 223.473 121.792C224.756 120.843 225.68 121.079 226.684 120.941C227.27 120.818 227.863 120.588 228.477 120.074C228.875 119.74 228.239 119.28 228.275 119.163C228.773 117.358 230.725 118.122 231.056 117.928C231.994 117.391 232.761 116.775 233.43 116.108C236.715 112.384 235.93 109.916 237.34 106.843C237.53 106.37 238.047 107.764 238.53 106.39C241.543 97.368 242.703 87.8442 243.221 78.853C243.228 78.7425 243.234 78.6324 243.239 78.5227C243.301 77.0152 242.489 78.0096 242.416 77.9016C241.255 76.2816 243.071 75.4612 243.16 74.9549C243.795 71.0367 241.846 67.7202 243.408 64.7657C242.586 61.4625 241.484 58.3127 240.404 55.3442C237.444 46.5922 231.201 38.8521 224.252 33.6755C221.37 31.4289 218.246 29.4691 214.881 27.9912C214.698 27.9089 214.557 28.8467 214.198 28.6824C209.805 26.8198 211.304 26.1 208.812 23.2502C208.14 22.5127 205.021 23.6714 204.799 23.796C203.876 24.1289 204.377 25.6009 204.093 25.6394C203.091 25.7804 202.799 25.0571 202.439 24.1383C202.016 23.0246 201.497 21.5991 199.743 21.4872C199.646 21.4885 200.007 22.3084 199.742 22.3717C198.932 22.5727 198.15 22.2382 197.377 22.5169C195.603 23.1832 195.188 25.2884 192.536 24.3337C192.197 24.2211 192.418 21.6848 189.795 22.1766C188.746 22.3497 184.211 23.185 183.016 23.6445C181.808 24.0829 182.84 24.6592 182.758 24.7128C179.694 26.5079 181.051 26.6391 179.801 28.5449C178.569 30.4523 178.095 26.7766 177.325 26.5526C176.826 26.4119 175.765 26.9628 174.93 27.501C174.453 27.8048 174.053 28.1102 173.872 28.2764C173.367 28.7403 174.241 29.0033 173.775 29.3208C170.726 31.4516 171.713 28.0624 170.385 27.887C167.218 27.521 166.135 30.8832 163.907 32.0911C163.298 32.4222 163.578 31.6322 162.99 31.8149C160.657 32.557 159.668 33.9197 156.834 34.3486C156.373 34.417 153.646 33.8667 152.851 35.5778C152.741 35.8224 153.555 36.1883 152.689 36.7685C151.716 37.421 150.1 38.3415 148.688 38.9873C148.215 39.2032 147.771 39.3863 147.381 39.5174C146.218 39.9096 146.969 38.2806 145.74 39.2866C145.199 39.7333 146.622 39.7495 145.588 40.5376C144.547 41.3248 141.64 42.8048 140.537 43.3768C139.431 43.9451 139.627 42.8746 139.511 42.8718C138.825 42.8648 136.515 43.6699 136.334 43.7765C127.797 48.4595 120.786 54.4535 113.798 60.7433C113.086 61.3826 112.371 62.0176 111.644 62.6489C111.025 63.1894 110.802 62.1634 110.701 62.2393C108.434 63.8949 111.661 64.0978 110.827 66.0128C109.762 64.5129 109.168 65.5424 107.634 66.7696C106.892 67.3616 106.765 66.4985 106.653 66.5077C104.904 66.7278 105.185 68.3958 105.206 68.7728C105.283 70.1614 103.704 70.0001 103.75 70.9372C103.793 71.8687 105.537 71.5716 104.206 72.8837C103.375 72.7946 103.153 70.6087 101.953 71.4199C98.6047 73.6806 94.4124 78.6894 91.3064 82.4439C90.1834 83.7953 89.2303 85.0068 88.4926 85.8835C85.699 89.2405 84.7498 90.2876 83.3651 92.4254C80.9286 96.3212 80.9409 94.2291 78.7902 96.2138C76.6613 98.2319 80.0204 98.8639 80.3327 99.5801C80.6558 100.286 79.8447 100.252 79.8697 100.867C79.8974 101.478 80.8678 100.858 80.3362 101.886C79.8029 102.907 77.0843 104.894 76.2757 104.868C74.5617 104.802 74.024 102.749 72.8237 105.656C72.7562 105.823 73.7542 105.773 73.4614 106.391C72.7126 107.954 71.9154 109.505 71.099 111.051C69.3003 114.418 67.7992 117.964 66.8315 121.519C66.6344 122.239 67.7214 121.952 67.6182 122.371C66.5642 126.734 65.701 124.755 63.23 126.302C65.4953 126.667 66.4175 128.484 64.7014 131.648C64.6858 131.675 64.6703 131.702 64.6548 131.729C63.6537 133.418 62.9761 132.641 61.7233 133.402C61.3418 133.631 61.175 135.219 60.6421 135.2C58.8953 135.144 58.1505 133.098 56.9101 136.433C56.8586 136.579 57.8214 136.6 57.5911 137.074C56.3046 139.719 54.9644 139.75 53.2895 141.62C53.0138 141.925 52.7172 142.3 52.418 142.735C50.7702 145.125 48.8879 150.056 47.3271 152.979C49.545 154.23 47.449 156.607 45.293 156.816C44.2657 158.707 43.0131 160.677 42.1993 162.61C41.9188 163.275 42.7926 163.227 42.8175 163.345C43.2276 165.162 41.285 165.144 41 165.52C38.6872 168.672 37.7024 171.919 35.9154 174.961C35.3735 175.885 34.7634 176.785 34.015 177.677C33.9024 177.81 32.176 177.314 32.8003 179.036C32.8471 179.148 34.2458 178.04 33.3492 180.13C32.4467 182.228 31.6231 186.506 29.7046 189.127C29.2402 189.754 27.1902 191.046 27.6949 192.9C27.7649 193.147 28.319 193.114 28.4794 193.491C28.9883 194.701 27.127 194.581 28.1731 196.158C29.2199 197.737 29.5221 200.273 27.5558 202.922C27.4952 203.01 25.9161 203.279 25.636 204.234C25.5489 204.533 25.4596 204.874 25.3768 205.217C25.0409 206.604 24.7199 208.306 24.3299 209.565C24.095 210.322 23.4001 209.581 23.3447 209.708C21.3235 214.659 21.0027 218.512 19.5699 224.037C19.2967 225.052 17.2602 227.519 17.3381 229.641C17.3499 229.853 17.3806 230.078 17.4464 230.264C17.4698 230.372 17.5027 230.469 17.5334 230.57C17.5486 230.685 17.5564 230.826 17.4499 230.979C17.3483 231.083 17.1058 231.15 16.9029 231.092C16.6805 231.017 16.6203 230.995 16.5137 230.945C16.3267 230.861 16.1761 230.745 16.0514 230.717C15.7985 230.648 15.5509 230.578 15.3064 230.491C14.8242 230.362 14.3527 230.163 13.9679 229.878C13.1955 229.265 12.7851 228.223 13.3476 226.193C13.8948 224.198 19.5886 221.898 16.8126 218.096C17.2597 213.889 16.7733 209.656 15.2254 206.122C14.0646 203.582 13.017 200.956 12.3302 198.108C12.2531 197.791 13.3031 196.279 13.0084 195.579C12.5677 194.54 11.6782 194.221 11.3441 193.484C9.93205 190.407 9.41259 187.292 8.22802 184.268C7.78208 183.114 7.22798 183.775 6.70394 182.382C6.39512 181.549 6.48816 180.747 6.42182 179.894C6.41242 179.809 6.40665 179.735 6.40456 179.674C6.40561 179.633 6.39494 179.508 6.40732 179.51C6.4055 179.494 6.43128 179.622 6.24837 179.677C6.10265 179.689 6.09812 179.638 6.09627 179.648C6.10104 179.658 6.11395 179.677 6.13348 179.708C6.18017 179.781 6.20082 179.82 6.24842 179.899C6.4036 180.159 6.61673 180.487 6.86894 180.777C7.85998 181.951 10.3126 182.531 11.3394 184.308C9.56948 185.166 10.1682 186.41 10.6048 188.879C10.6861 189.351 9.86496 189.139 9.87044 189.375C9.87697 190.339 10.7068 190.911 10.6481 191.844C10.6351 192.071 10.0106 192.315 9.96319 192.512C9.54133 194.179 11.6948 195.884 12.0576 196.207C13.1174 197.106 12.9957 197.883 13.1247 198.63C13.1647 198.867 13.2322 199.114 13.3755 199.389C13.9441 200.499 14.1639 198.654 14.6038 200.022C15.4942 202.935 15.3664 206.78 15.3058 209.755C15.2756 210.95 14.4075 210.105 14.3825 210.275C14.0733 212.709 14.8831 215.237 13.0292 216.494C17.5372 218.446 12.4943 217.942 13.2315 221.492C13.2921 221.776 15.4507 222.227 15.8239 221.194C16.1971 220.159 15.6072 218.526 16.1877 217.083C16.3245 216.745 18.4725 214.855 18.6093 214.583C19.6845 212.472 16.4379 212.012 16.2651 211.896C14.3962 210.536 16.6594 208.156 16.8131 207.488C17.5351 204.472 17.0207 201.909 17.1117 199.125C17.1251 198.566 17.3067 198.102 17.5508 197.703C18.1029 196.787 18.9802 196.095 18.6657 195.145C17.0788 190.678 13.7595 190.53 14.6242 185.761C14.794 184.747 17.2975 184.636 14.3548 182.449C14.1648 182.299 11.7021 180.875 12.043 179.159C12.0853 178.94 12.6952 178.64 12.6398 178.399C12.5156 177.887 12.3291 177.457 12.0272 176.937C11.9426 176.793 11.8813 176.693 11.7388 176.473C11.6736 176.373 11.6027 176.268 11.5165 176.147C11.4 175.985 11.2406 175.751 10.9078 175.379C10.8016 175.269 10.8029 175.244 10.3856 174.86C9.99276 174.545 9.52104 174.028 8.01893 173.529C7.27089 173.301 6.14765 173.12 4.84328 173.414C3.45546 173.691 2.02169 174.701 1.33707 175.627C-0.0495906 177.556 0.0997331 178.563 0.00890256 179.173C0.00102947 179.328 -0.000285714 179.464 0.00128721 179.582C0.00208626 179.629 0.00336183 179.673 0.0049914 179.715C0.00825455 179.8 0.0128992 179.878 0.0182805 179.949C0.029101 180.092 0.0427237 180.212 0.0569143 180.319C0.0855294 180.531 0.116195 180.69 0.145618 180.83C0.241381 181.254 0.293948 181.393 0.367138 181.628C0.572303 182.206 0.751816 182.72 0.861334 183.36C1.14847 185.053 1.43876 187.009 2.28389 188.649C2.79252 189.64 4.47191 190.521 4.94469 190.899C6.29859 191.97 5.49274 193.967 6.82949 194.434C8.17398 194.904 9.07096 192.64 10.5888 194.629C8.97388 195.347 7.3576 196.191 5.75398 196.966C7.25929 200.72 9.04493 204.302 10.7269 208.004C11.0163 208.588 11.2753 209.453 11.4306 210.413C11.5074 210.915 10.4855 210.566 10.5364 211.101C10.7299 213.362 11.4818 215.677 11.1629 218.503C10.9091 220.703 9.75589 223.07 9.32607 225.515C9.91929 226.025 10.2342 226.736 10.3936 227.596C10.4727 228.052 10.5133 228.506 10.5391 229.103C10.5533 229.394 10.5608 229.743 10.5884 230.2C10.5966 230.341 10.6072 230.491 10.6232 230.659C10.6408 230.831 10.6539 230.987 10.7124 231.344C10.7405 231.509 10.7766 231.695 10.8311 231.915C10.8584 232.026 10.8905 232.145 10.9301 232.275C10.9602 232.378 11.0625 232.693 11.1779 232.963C11.4286 233.527 11.7922 234.334 12.8191 235.297C13.4159 235.877 14.7483 236.712 16.1371 236.92C17.5453 237.167 18.8758 236.881 19.7448 236.511C22.1965 235.321 22.3452 234.457 22.6139 234.238C22.8607 233.904 23.0504 233.582 23.1272 233.449C23.3247 233.106 23.4669 232.815 23.5632 232.615C23.7861 232.146 23.9186 231.832 24.0566 231.499C24.3273 230.837 24.5254 230.287 24.6831 229.749C24.9643 228.772 24.4299 228.658 24.491 227.94C24.7081 225.257 26.0055 226.989 26.501 226.389C28.5818 223.861 24.8017 222.402 25.9349 219.083C25.9941 218.907 28.7187 217.366 28.9372 217.107C30.3526 215.462 28.3153 216.577 28.5252 215.34C28.9035 213.095 28.8646 211.438 30.2353 209.109C30.4857 208.682 31.2568 208.029 31.6951 207.198C31.9725 206.674 32.1207 206.061 31.9085 205.403C31.8381 205.178 31.1278 205.061 31.1361 204.899C31.3463 202.006 33.5003 202.648 34.7286 201.395C35.9571 200.144 35.337 197.33 35.0976 196.703C34.4756 195.069 34.2872 197.474 34.1588 197.505C32.6096 197.834 33.4402 196.212 33.8243 194.877C31.8389 193.92 32.6648 192.137 34.2328 193.5C34.4034 193.649 33.8267 194.585 33.8243 194.877C36.2674 194.496 37.2643 192.67 36.2914 189.748C35.8431 188.373 34.4134 188.904 36.1004 185.976C36.8728 184.653 38.0231 185.792 38.9366 184.747C40.4631 183.004 41.0844 180.339 41.965 177.964C42.2882 177.089 42.6465 176.251 43.0877 175.523C43.6816 174.547 43.907 175.913 44.3385 175.26C45.4864 173.535 45.8019 171.633 47.0844 169.956C47.2014 169.805 47.738 170.625 48.0592 170.064C50.5145 165.823 52.1952 161.828 54.8402 157.375C56.1167 155.223 58.8585 151.642 60.1473 149.363C60.6236 148.522 61.0814 147.616 61.5319 146.675C63.1982 143.192 64.7217 139.318 66.5284 136.785C68.0231 134.671 68.4801 135.584 69.568 134.889C69.6578 134.832 69.7463 134.765 69.8291 134.696C72.0038 132.665 71.6969 128.279 71.5653 127.773C71.5723 127.745 70.4902 129.859 70.5565 128.522C69.9706 127.504 71.5505 127.798 71.5653 127.773C71.5329 127.319 72.8714 123.223 73.3265 122.593C73.5753 122.225 74.2411 122.762 74.3563 122.566C75.7795 120.134 77.1547 117.929 78.6333 115.697C80.1395 113.4 81.5374 111.063 82.8562 108.688C82.8971 108.595 82.0442 108.224 82.1503 108.01C83.6205 104.997 85.7428 103.874 87.8318 102.092C89.9255 100.312 91.0007 98.5573 90.7513 96.3432C92.1484 94.8956 93.4773 92.2652 94.2868 90.7478C95.0959 89.2259 96.5689 90.2808 96.6899 90.2C97.2446 89.8426 97.7412 89.4922 98.2008 89.1368C101.125 86.8418 102.42 84.4129 105.318 81.2846C106.92 79.5486 110.406 76.4188 112.352 74.7728C113.893 73.4705 114.458 72.3296 115.967 71.2383C116.171 71.0903 116.543 71.8365 116.619 71.8055C118.748 71.0704 116.693 70.3552 116.755 69.8131C116.948 68.1399 117.153 67.0453 118.617 65.9573C118.866 65.7742 119.16 65.5868 119.494 65.4037C120.027 65.1021 123.111 66.1186 123.987 65.6074C125.139 64.9259 124.116 64.4634 125.362 63.7806C125.468 63.7229 125.833 64.2189 126.492 63.6736C129.573 61.1387 133.078 58.3569 136.816 56.1744C137.322 55.8763 137.182 57.1056 137.924 56.6896C141.404 54.739 145.251 52.5972 148.58 50.368C149.39 49.821 148.536 49.4875 148.631 49.2094C149.246 47.5052 151.717 48.2768 152 48.1752C152.343 48.0527 152.683 47.9258 153.019 47.795C159.403 45.3407 163.759 41.7138 170.425 39.8757C170.824 39.7608 174.234 40.5354 174.892 38.5942C174.928 38.4657 175.647 36.4497 177.003 37.2646C177.081 37.3176 176.636 38.3169 177.768 37.9394C177.789 37.9328 177.811 37.9258 177.833 37.9185C179.266 37.4363 181.721 37.3856 183.443 35.9868C183.983 35.5466 185.09 33.5452 187.201 34.4734C187.373 34.5247 190.649 36.9722 191.233 34.7761C191.325 34.4193 190.853 32.2209 193.094 33.077C193.51 33.2501 192.869 33.8191 193.916 34.013C195.485 34.3183 197.462 33.6246 198.998 34.7104C199.229 34.8663 199.917 35.9575 200.612 35.8021C200.733 35.7627 200.878 35.6667 201.04 35.4906C201.189 35.3386 201.102 34.564 201.532 34.5704C203.679 34.6304 206.119 36.1909 208.787 37.1363C209.748 37.4869 209.906 36.1884 211.012 36.4892C212.115 36.7815 214.19 37.8346 214.801 38.995C215.407 40.1477 213.244 40.8765 214.49 42.0527C214.961 42.504 215.429 42.9495 215.904 43.4C221.312 48.4217 225.658 52.0649 228.18 57.9721C228.561 58.8867 227.699 58.4003 228.097 59.6534C228.113 59.7023 228.13 59.7535 228.148 59.807C230.228 65.3879 231.085 72.2487 231.018 77.2217C231.008 78.2655 231.041 79.2045 231.125 80.0547C231.593 84.8966 233.329 79.1352 233.269 82.7831C233.232 84.5641 230.744 86.0594 230.605 86.4633C229.236 90.3574 229.68 93.2876 228.6 96.697C228.373 97.4017 227.661 96.4989 227.478 97.0902C226.851 99.0798 226.678 101.276 226.043 102.971C225.754 103.724 225.157 103.35 224.971 104.02C224.747 104.795 224.568 105.471 224.489 105.998C224.44 106.505 224.343 106.938 224.981 106.701C225.041 106.681 225.089 106.957 225.243 107.122C225.316 107.208 225.399 107.282 225.483 107.317C225.576 107.346 225.63 107.355 225.892 107.141C225.887 107.146 225.882 107.15 225.877 107.155C224.595 108.296 222.802 110.178 221.317 110.647C220.888 110.818 220.464 110.964 220.042 111.076C219.203 111.288 218.417 109.948 217.471 111.619C217.299 111.944 218.381 113.55 216.193 112.724C216.016 112.651 215.104 112.361 214.36 112.158C213.594 111.965 213.027 111.865 212.677 112.609C212.523 113.003 211.909 114.585 211.252 114.301C211.176 114.257 211.541 113.44 211.065 113.323C210.722 113.238 210.366 113.15 209.989 113.05C207.706 112.511 205.447 112.048 203.462 111.27C202.804 111.006 204.04 110.458 203.077 110.093C200.423 109.093 197.574 108.048 195.696 107.006C194.998 106.622 195.005 107.521 194.914 107.553C193.337 107.969 194.009 106.238 193.879 105.98C192.972 104.288 191.531 103.689 190.812 101.932C190.627 101.458 191.524 101.397 191.543 101.275C191.735 100.055 190.744 101.388 190.309 100.845C190.033 100.489 189.789 100.105 189.566 99.6741C188.61 97.6965 187.949 95.6772 187.597 94.0421C187.438 93.2763 188.576 93.8724 188.435 93.216C187.859 90.1744 187.898 88.5813 188.528 85.7869C188.818 84.7163 189.101 83.6564 189.371 82.63C189.608 81.732 188.716 82.0079 188.629 81.7666C188.016 80.0877 190.27 78.8851 190.583 78.5652C192.036 77.0234 191.782 76.0654 192.691 74.5645C195.294 70.3108 198.369 65.7916 201.796 62.4482C203.992 60.3256 207.457 57.7294 210.288 55.7451C218.429 50.1168 225.44 45.7485 233.867 41.5723C234.996 41.0171 236.158 40.4675 237.357 39.9233C237.996 39.6328 237.774 40.818 238.33 40.5795C245.495 37.4684 252.472 34.0616 259.892 31.4376C260.5 31.2216 259.975 32.4221 260.96 32.1062C262.982 31.4643 265.464 30.4657 267.365 29.4526C268.294 28.9595 266.707 28.6956 267.649 28.2149C269.197 27.4252 270.872 26.7277 272.569 26.1577C273.284 25.9176 273.998 25.7013 274.71 25.5088C275.74 25.2332 274.518 26.639 275.831 26.213C284.776 23.3466 293.545 21.1417 302.543 18.1996C302.629 18.1715 302.707 18.1089 302.78 18.0222C303.243 17.4843 303.571 16.016 304.798 16.1237C304.992 16.632 305.094 17.2518 305.236 17.8064C312.4 16.7088 319.324 15.9667 326.683 15.5684C332.969 15.2114 339.223 15.0816 345.523 15.3769C346.098 15.4044 345.049 16.367 346.161 16.4266C351.034 16.6958 355.779 17.2959 360.716 17.5342C362.277 17.6098 363.866 17.6503 365.492 17.6322C366.164 17.6274 366.075 15.7997 367.989 16.3522C368.325 16.4486 371.231 17.1297 371.93 17.6365C372.024 17.7108 371.359 18.4535 372.3 18.6264C377.773 19.6195 383.577 20.4484 389.177 20.9742C390.078 21.057 389.294 20.0034 389.944 20.0563C393.709 20.3665 397.585 21.5153 401.324 21.9567C402.155 22.0553 402.966 22.1171 403.768 22.1282C406.759 22.1696 405.989 20.4445 407.823 19.2666C408.086 19.1004 409.857 19.4288 410.13 18.5867C410.831 16.466 410.448 13.903 411.293 11.663C411.396 11.4247 411.988 11.5555 412.559 11.6042C412.714 11.62 412.851 11.6245 413.1 11.6553C413.22 11.6701 413.401 11.7009 413.622 11.756C413.854 11.8148 414.035 11.8675 414.047 11.8372C414.066 11.8099 414.111 11.7897 414.049 11.7173C413.992 11.6443 413.662 11.4616 413.465 11.3473C413.06 11.1124 412.92 10.9579 412.711 10.7497C412.517 10.6145 410.832 9.84727 410.476 9.34994C410.233 9.00585 410.958 8.23736 410.41 7.74883C409.862 7.26075 409.047 7.86394 408.114 7.23436C407.191 6.60171 407.816 5.68471 405.831 5.16675ZM98.2323 83.8795C98.7527 82.121 101.162 84.1492 99.402 84.8741C99.3144 84.9064 98.2045 83.9682 98.2323 83.8795ZM12.4221 205.603C12.9957 206.002 13.317 206.455 13.4433 206.868C13.6794 207.774 12.5136 208.433 11.5502 208.009C11.3874 207.945 11.2753 207.878 11.2039 207.805C10.4663 206.742 11.8615 205.208 12.4221 205.603ZM5.40396 184.555C7.27237 186.54 3.22794 188.446 3.15598 185.579C3.15101 185.413 5.29645 184.441 5.40396 184.555ZM400.789 17.4239C400.818 17.3869 402.119 17.6029 402.133 17.6479C402.145 17.6754 402.154 17.7019 402.163 17.7275C402.233 17.9326 402.187 18.0781 402.074 18.1724C401.653 18.5499 400.204 18.131 400.789 17.4239ZM14.0758 194.982C13.2733 194.413 13.175 192.054 14.2078 192.73C15.0511 193.276 15.0925 195.706 14.0758 194.982ZM164.43 33.5335C164.436 33.4797 165.289 33.0839 165.372 33.3364C165.632 34.1489 164.342 34.422 164.43 33.5335ZM14.9142 232.167C14.3137 227.016 10.9312 223.29 11.2947 229.541C11.391 230.649 12.4305 227.119 12.7809 228.527C13.4978 231.021 10.9604 232.978 13.4383 235.761C13.6807 235.968 13.7671 234.909 14.1472 234.04C14.4981 233.163 14.9433 232.298 14.9181 232.157C14.9168 232.16 14.9155 232.163 14.9142 232.167ZM96.1888 80.574C96.1802 80.5232 97.0663 79.5626 97.117 79.5699C98.3226 79.7642 96.5427 81.6946 96.1888 80.574ZM217.471 30.657C217.589 30.6072 220.162 32.3641 220.18 32.5043C220.467 34.7252 215.424 31.2772 217.471 30.657ZM47.3586 153.059C45.7641 153.769 44.7866 155.188 45.2952 156.81C45.9571 155.551 46.6786 154.315 47.3586 153.059ZM24.4329 222.385C24.4198 222.366 24.4332 222.379 24.3927 222.328C24.3468 222.271 24.2964 222.209 24.2397 222.143C24.1262 222.009 23.9894 221.855 23.8061 221.667C23.4172 221.293 22.9627 220.777 21.6142 219.977C20.4276 219.372 17.0957 217.396 11.9738 219.605C9.60951 220.7 7.97796 222.666 7.2223 224.128C6.43483 225.627 6.22414 226.729 6.09346 227.54C6.07829 227.642 6.06525 227.74 6.05394 227.834C6.04242 227.93 6.03303 228.023 6.03141 228.037C6.02462 228.101 6.01861 228.163 6.01327 228.224C6.00259 228.345 5.99459 228.46 5.98856 228.568C5.97656 228.785 5.97233 228.979 5.97228 229.155C5.97249 229.507 5.98856 229.788 6.00821 230.028C6.04876 230.506 6.10266 230.825 6.15104 231.083C6.24965 231.588 6.33343 231.853 6.40581 232.064C6.44214 232.167 6.47605 232.251 6.50851 232.324C6.52977 232.362 6.54857 232.388 6.56967 232.416C6.73574 232.629 6.94844 232.698 7.17324 232.725C7.31217 232.739 7.81989 232.509 7.93745 232.505C8.15712 232.473 7.91818 232.61 8.17265 232.552C8.25933 232.532 9.07148 232.188 9.14336 232.173C9.52977 232.09 9.34646 232.234 9.53772 232.206C10.4784 232.06 10.8438 232.069 11.2732 232.05C11.4139 232.044 12.1748 231.788 11.8731 231.971C11.8372 231.993 11.1261 232.298 11.0681 232.325C10.1794 232.73 11.61 232.102 11.8048 232.029C12.5743 231.744 12.6598 231.762 12.4038 231.922C12.2928 231.991 10.8756 232.586 11.6744 232.26C11.7284 232.238 12.4801 231.906 12.5626 231.876C12.748 231.808 12.6227 231.888 12.6857 231.87C12.8111 231.833 12.8046 231.839 12.8195 231.849C12.8464 231.861 13.2313 231.722 13.0699 231.818C13.0332 231.839 12.2578 232.169 12.1295 232.233C12.0014 232.297 12.0754 232.288 12.2604 232.216C12.4455 232.143 13.0516 231.877 13.1914 231.818C14.3706 231.317 12.753 232.046 12.714 232.067C12.0518 232.419 12.9978 232.06 13.0162 232.11C13.0282 232.148 12.739 232.32 12.7964 232.338C12.8678 232.357 13.3025 232.213 13.2475 232.283C13.2426 232.291 12.3306 232.677 12.3227 232.686C12.2402 232.786 12.3626 232.798 13.0011 232.59C13.0659 232.569 13.8624 232.22 13.975 232.178C14.6469 231.932 16.2495 231.313 12.7746 232.817C12.9201 232.781 13.0723 232.749 13.7834 232.471C14.2411 232.292 15.1077 231.909 14.7425 232.083C14.6612 232.122 13.8955 232.441 13.8312 232.475C13.5614 232.617 13.8204 232.537 13.4353 232.727C13.3551 232.766 12.6699 233.054 12.5472 233.108C11.5532 233.541 13.2116 232.861 13.3333 232.815C14.2408 232.467 13.8979 232.638 13.9316 232.657C13.9398 232.661 13.0161 233.04 12.9909 233.058C12.8725 233.146 12.9654 233.145 13.3874 233.006C13.4834 232.974 14.2654 232.639 14.3514 232.607C14.7215 232.47 13.2407 233.093 13.5669 232.973C13.6338 232.949 14.305 232.667 14.379 232.636C15.5411 232.161 13.9028 232.854 13.8675 232.872C13.3838 233.106 15.1057 232.41 14.8743 232.539C14.8449 232.555 13.9911 232.901 13.9603 232.925C13.7504 233.082 14.0101 233.048 14.7165 232.828C14.8252 232.794 15.4627 232.525 15.5419 232.493C16.7791 231.996 15.1294 232.681 15.0683 232.71C14.6301 232.917 16.0261 232.373 14.0632 233.194C14.7886 233.018 13.7196 233.561 15.5295 232.954C15.5505 232.947 16.3666 232.619 16.4051 232.606C16.8767 232.455 15.6043 232.956 14.0582 233.593C13.6699 233.753 15.5524 233.024 15.6906 232.971C16.1996 232.775 17.4141 232.287 17.513 232.25C18.29 231.959 14.265 233.551 14.2708 233.57C14.2777 233.567 15.0176 233.272 15.0919 233.244C15.3251 233.158 15.0326 233.279 15.2895 233.183C15.884 232.961 17.8424 232.194 16.7104 232.66C16.5634 232.72 14.2777 233.617 14.3919 233.59C14.4394 233.579 14.4114 233.623 14.5626 233.573C14.7138 233.523 15.4484 233.229 15.4806 233.217C16.4637 232.858 16.8642 232.692 18.3118 232.141C19.7541 231.592 16.3239 232.926 15.943 233.08C15.563 233.233 16.3738 232.936 16.6553 232.832C16.9367 232.728 17.4033 232.54 17.5631 232.482C18.6078 232.107 15.8644 233.155 15.3229 233.374C14.0402 233.892 16.5909 232.92 16.8475 232.842C16.9168 232.821 16.3353 233.041 16.2826 233.066C16.0817 233.162 16.8806 232.867 16.1587 233.165C16.0412 233.214 14.5141 233.815 15.6425 233.394C15.8052 233.334 16.4391 233.087 16.5841 233.039C16.8017 232.968 16.9479 232.935 16.7397 233.027C16.5856 233.095 15.5344 233.483 15.8637 233.37C16.0108 233.319 16.6205 233.078 16.8457 233.003C17.0709 232.927 17.0525 232.96 17.0345 232.976C17.0161 232.993 16.2189 233.289 16.1656 233.31C15.8602 233.429 15.4823 233.589 15.4838 233.59C15.4122 233.695 16.7803 233.263 16.3602 233.495C16.3284 233.513 15.4848 233.816 15.4713 233.822C15.1247 233.968 17.3592 233.138 18.1139 232.879C16.4035 233.499 16.7158 233.394 16.5329 233.475C16.4434 233.514 15.7798 233.751 15.7123 233.776C14.7093 234.149 16.011 233.684 16.2776 233.59C17.2579 233.243 16.1046 233.667 16.7601 233.436C17.4108 233.207 18.3694 232.85 18.3621 232.868C17.7506 233.092 16.1457 233.658 15.8895 233.761C14.9197 234.147 16.1994 233.761 16.3407 233.745C16.4812 233.727 16.3708 233.775 16.5987 233.714C17.0111 233.605 15.8137 234.006 15.2725 234.209C14.7311 234.412 17.6685 233.4 18.3014 233.187C18.9342 232.974 18.285 233.2 18.6336 233.085C18.9823 232.971 19.4091 232.816 19.5428 232.781C19.6765 232.747 18.5604 233.153 17.8995 233.379C16.4997 233.858 15.0253 234.344 15.5485 234.189C15.5796 234.18 16.3527 233.916 16.4324 233.894C17.0405 233.729 17.0898 233.754 17.6305 233.618C17.7061 233.599 18.569 233.314 18.6228 233.3C19.1867 233.155 17.7252 233.615 16.1092 234.15C18.2649 233.454 19.5876 233.041 19.6093 233.065C19.6232 233.079 18.6792 233.375 18.0174 233.595C17.8178 233.661 18.4692 233.468 18.0259 233.609C16.5765 234.07 14.9492 234.571 15.6022 234.388C15.6333 234.379 16.4273 234.129 16.4765 234.117C16.7984 234.041 15.279 234.513 15.0999 234.586C14.9592 234.643 15.8958 234.389 16.0526 234.362C18.4958 233.643 17.9436 233.833 16.2585 234.327C16.3307 234.318 16.2389 234.358 16.4758 234.304C16.5566 234.285 17.2656 234.083 17.3424 234.062C18.5484 233.733 16.9052 234.201 16.8412 234.221C16.221 234.42 17.4785 234.111 16.2607 234.456C16.217 234.468 14.5045 234.912 15.7563 234.594C15.8427 234.572 16.6201 234.363 16.6833 234.359C16.7461 234.353 17.6725 234.148 16.8806 234.361C16.6902 234.414 15.2941 234.75 16.3878 234.5C16.5364 234.466 17.0302 234.349 17.3056 234.287C18.1835 234.09 16.4415 234.494 17.9239 234.162C19.4061 233.83 20.5241 233.616 19.5065 233.869C19.4771 233.877 18.0923 234.179 18.1155 234.18C18.1538 234.183 18.4464 234.14 18.4398 234.154C18.4361 234.16 17.5718 234.327 17.5562 234.331C17.0768 234.449 17.8514 234.322 18.1945 234.313C18.2598 234.316 17.0727 234.492 18.0145 234.377C19.0469 234.264 23.3314 233.701 22.3229 233.944C21.923 234.083 16.4618 234.546 19.2961 234.378C18.9474 234.444 19.1354 234.468 19.284 234.524C19.4333 234.583 19.5343 234.711 19.0262 234.693C18.9799 234.699 17.4786 234.404 17.5033 234.388C17.5406 234.377 18.234 234.553 18.2776 234.572C18.4705 234.675 17.9111 234.408 18.0454 234.385C18.0875 234.388 18.635 234.889 18.6259 234.954C18.6202 234.987 18.4567 234.817 18.3566 234.668C18.2509 234.522 18.2199 234.395 18.3198 234.608C18.5423 234.913 18.8328 236.917 18.5583 237.177C18.3565 235.226 18.2954 235.267 18.3012 234.747C18.3078 234.647 18.3668 233.966 18.3766 233.884C18.4433 233.537 18.3857 234.1 18.4686 233.726C18.4907 233.636 18.6201 232.979 18.652 232.87C18.9731 231.928 18.7042 233.422 18.5898 233.662C18.2843 234.611 18.5707 233.788 18.4395 234.158C18.2903 234.521 18.1192 234.981 18.0132 235.195C17.7769 235.631 17.7367 235.491 17.6779 235.492C17.6542 235.488 18.1155 234.721 18.1223 234.702C18.2247 234.5 17.6956 235.291 18.6542 233.788C16.1358 237.648 18.8913 233.41 18.3803 234.177C18.3388 234.239 17.0917 236.026 16.9282 236.302C16.7671 236.579 17.1698 236.029 16.9214 236.462C16.8578 236.561 15.8112 238.315 15.7606 238.429C15.3294 239.299 17.0213 236.516 17.1119 236.362C18.1178 234.715 17.0587 236.643 17.0269 236.799C16.8059 237.47 17.113 237.11 17.0436 237.618C17.0035 237.948 16.282 239.956 16.4349 239.94C16.6557 239.904 17.1495 239.214 17.4244 238.811C17.7365 238.413 17.8169 238.34 18.1893 239.645C18.354 240.189 18.2088 242.561 19.0275 240.654C19.1003 240.531 19.4136 238.802 20.1778 239.631C20.2824 239.734 20.5234 240.37 20.6351 240.387C21.3971 240.469 21.5423 239.77 22.2352 239.559C22.9646 239.321 23.7878 238.956 23.9217 238.331C24.0237 237.93 23.077 237 22.8347 236.786C22.1473 236.163 23.602 236.427 22.6228 235.939C21.6122 235.528 20.0053 235.143 19.3569 234.857C21.063 235.311 22.8197 235.755 24.5449 236.174C24.6705 235.417 24.1174 234.848 24.2002 234.549C24.2119 234.512 25.1607 234.559 25.1977 234.515C25.3489 234.319 24.6676 234.197 24.9277 234.032C25.1327 233.904 26.123 233.688 26.361 233.53C24.3455 233.677 25.0139 233.491 24.8186 233.426C24.7513 233.406 24.2174 233.483 24.0405 233.489C23.3865 233.515 25.1569 233.286 25.4315 233.222C26.601 232.939 22.6096 233.567 22.6968 233.485C22.7006 233.484 24.8116 233.053 24.9413 233.017C25.7916 232.805 24.2023 233.143 24.0402 233.142C23.7443 233.141 23.2353 233.219 23.8434 233.043C24.0239 232.993 25.3299 232.679 24.3074 232.863C24.1736 232.887 23.4776 233.037 23.4362 233.043C22.7462 233.139 24.932 232.664 25.6634 232.463C26.3943 232.261 24.8759 232.547 24.4406 232.64C23.3134 232.876 23.9655 232.77 23.8557 232.797C22.5484 233.111 22.7672 233.029 22.6515 233.033C20.515 233.529 20.638 233.477 22.5401 233.036C22.748 232.988 22.5529 233.052 22.6515 233.033C24.7427 232.525 24.9977 232.407 23.0349 232.845C22.1152 233.052 21.0519 233.33 21.4323 233.194C21.6039 233.132 23.0702 232.771 23.4645 232.651C24.3629 232.372 22.9839 232.666 23.1875 232.569C23.2611 232.532 24.0637 232.333 24.1413 232.3C24.3494 232.21 23.7438 232.347 24.0418 232.233C24.0698 232.222 24.9057 231.998 24.9135 231.985C24.9887 231.88 24.4378 231.97 24.4041 231.91C24.3881 231.88 24.8281 231.685 24.7259 231.679C24.5534 231.666 23.3311 231.972 23.609 231.837C23.7863 231.749 24.6134 231.494 25.1712 231.302C26.2524 230.93 24.288 231.509 23.9849 231.603C23.9749 231.606 23.7882 231.692 23.3612 231.815C22.4777 232.092 23.9812 231.604 23.9849 231.603C23.7888 231.662 23.5869 231.676 23.7412 231.616C23.8255 231.583 24.606 231.331 24.6352 231.319C25.3115 231.026 25.4857 230.889 25.1 230.945C25.0839 230.949 24.2154 231.244 24.1885 231.25C23.79 231.345 24.844 230.959 25.464 230.714C26.0836 230.468 25.8636 230.514 24.3699 231.012C24.5497 230.926 23.8814 231.123 23.4769 231.246C23.0724 231.369 24.7563 230.776 24.789 230.762C25.8374 230.338 24.8628 230.647 24.6953 230.651C24.6128 230.654 24.8391 230.518 25.0138 230.427C25.1545 230.354 24.7568 230.484 25.0017 230.375C25.0344 230.36 25.7825 230.091 25.8109 230.08C26.6971 229.734 24.8745 230.408 24.5469 230.523C23.3554 230.94 22.7211 231.163 23.2699 230.935C23.3957 230.883 26.0165 229.902 26.1658 229.833C26.3552 229.747 25.416 230.099 25.6384 230C25.6566 229.992 26.2373 229.778 26.2082 229.778C26.0807 229.775 25.7257 229.853 25.7671 229.787C25.7706 229.779 26.6928 229.443 26.7128 229.425C26.8056 229.341 26.7544 229.308 26.3099 229.432C26.1976 229.463 25.5573 229.713 25.3657 229.783C24.2066 230.208 25.8771 229.554 25.9078 229.539C26.686 229.16 25.1494 229.687 25.8434 229.339C25.8844 229.319 27.6657 228.593 26.1227 229.176C26.02 229.215 24.4421 229.813 25.513 229.384C25.58 229.357 26.3929 229.05 26.3047 229.068C26.2169 229.086 26.7484 228.852 25.8518 229.18C25.5693 229.283 23.9964 229.883 25.2389 229.376C25.3259 229.341 28.1389 228.204 26.1865 228.959C25.8652 229.084 23.8042 229.896 24.853 229.459C25.0563 229.374 25.519 229.201 25.8018 229.077C26.2377 228.886 25.6772 229.082 26.5868 228.699C26.748 228.631 28.1397 228.062 27.0738 228.47C26.9069 228.534 26.2208 228.81 26.1413 228.834C25.7603 228.95 26.2074 228.736 25.7199 228.895C25.5486 228.951 24.4404 229.399 24.1385 229.507C23.8367 229.615 23.5422 229.708 24.045 229.494C24.5478 229.28 26.3216 228.584 26.4561 228.509C27.0398 228.186 25.9724 228.528 25.7912 228.516C25.7641 228.514 26.3994 228.267 26.4048 228.245C26.4275 228.166 26.976 227.819 25.6152 228.319C24.5256 228.721 23.7293 229.107 23.2803 229.257C23.0662 229.329 25.1077 228.468 25.1707 228.438C25.811 228.133 24.8941 228.483 25.1595 228.337C25.2145 228.307 26.0466 227.969 26.0843 227.947C26.2202 227.869 25.8418 228.002 25.9021 227.956C25.931 227.935 26.5648 227.673 26.5128 227.686C26.3958 227.714 26.1229 227.808 25.5225 228.038C25.4678 228.059 24.6848 228.398 24.6501 228.397C24.5961 228.395 24.0004 228.614 24.5945 228.338C24.7733 228.255 26.219 227.649 25.2141 228.052C25.0042 228.136 23.27 228.867 24.7625 228.221C25.0106 228.114 27.0205 227.235 25.7106 227.767C25.3659 227.908 23.9419 228.494 24.1615 228.392C24.1967 228.376 24.9747 228.054 25.0475 228.016C25.2903 227.884 25.1967 227.893 25.429 227.766C25.4926 227.731 26.2996 227.403 26.3686 227.362C26.5598 227.248 26.3402 227.298 26.0775 227.377C25.9791 227.407 25.3175 227.695 25.2448 227.725C24.0636 228.211 25.6484 227.532 25.7392 227.489C26.2832 227.23 25.5297 227.527 25.7176 227.421C25.7674 227.393 26.5259 227.076 26.5929 227.046C27.2467 226.754 25.8918 227.34 25.7386 227.396C25.305 227.553 25.3554 227.503 25.4425 227.439C25.4756 227.416 26.3566 227.052 26.3761 227.034C26.5085 226.926 26.4054 226.917 25.9035 227.08C25.8074 227.111 25.1348 227.405 24.9799 227.469C23.8966 227.919 25.3603 227.273 25.4986 227.209C26.1307 226.917 25.5311 227.166 25.6358 227.102C26.1571 226.788 25.7242 226.869 25.4489 226.901C25.0949 226.944 24.4247 227.153 24.555 226.998C24.5623 226.988 25.4606 226.605 25.4784 226.592C25.6675 226.436 25.2919 226.529 25.5255 226.359C25.5431 226.346 26.395 225.984 26.4518 225.95C26.5742 225.878 26.5195 225.879 26.2418 225.981C26.1079 226.031 25.3838 226.357 25.264 226.4C24.983 226.501 24.9135 226.507 25.0414 226.429C25.0977 226.395 25.9712 226.029 25.9767 226.015C26.0313 225.905 26.1548 225.78 25.0002 226.199C24.921 226.228 23.1541 226.99 23.4883 226.833C23.9778 226.619 24.554 226.369 25.0775 226.142C25.3185 225.925 24.6672 226.099 24.542 226.069C24.537 226.068 25.4765 225.672 25.4717 225.668C25.4446 225.643 25.693 225.505 24.7532 225.884C24.6613 225.921 23.0062 226.612 23.2546 226.503C23.2999 226.483 23.518 226.385 23.878 226.236C23.9323 226.214 24.7063 225.895 24.7289 225.886C24.8512 225.85 24.6689 225.904 24.2484 226.238C24.1786 226.292 23.3333 226.577 23.2758 226.616C23.1753 226.685 23.1442 226.736 23.1462 226.789C23.1529 226.86 23.1649 226.834 23.2504 227.104C23.288 227.227 23.3332 227.385 23.3832 227.671C23.4252 227.976 23.5145 228.334 23.4623 229.334C23.4536 229.462 23.4408 229.603 23.4209 229.76C23.3702 230.188 23.2853 230.754 22.9891 231.534C22.692 232.298 22.1393 233.359 21.0184 234.328C19.9217 235.307 18.2532 235.939 16.9277 235.996C14.1989 236.062 13.2049 235.154 12.5758 234.787C11.9663 234.351 11.7188 234.067 11.5219 233.849C11.0917 233.343 11.2454 233.44 11.2007 233.331C11.192 233.257 11.1941 233.187 11.2054 233.119C11.3932 232.459 12.759 231.709 13.9631 230.787C14.135 230.659 14.1434 230.61 14.8876 230.135C16.7581 228.941 18.787 227.603 20.7792 226.328C21.2113 226.057 20.8172 226.461 21.8162 225.737C21.8847 225.69 22.1658 225.372 22.4883 225.103C22.7125 224.919 23.4914 224.469 23.7616 224.208C24.026 223.939 23.3649 224.304 23.6175 223.911C23.8396 223.476 24.8021 223.032 24.4329 222.385ZM21.6701 231.8C20.8569 232.072 23.816 231.02 23.1138 231.288C23.0763 231.302 21.7101 231.786 21.6701 231.8ZM21.7439 234.764C20.368 234.587 22.4039 234.599 23.4698 234.731C24.5317 234.906 22.1593 234.841 21.7439 234.764ZM20.1059 236.216C19.3995 235.362 23.166 237.775 21.9761 237.816C21.9037 237.822 20.138 236.275 20.1059 236.216ZM19.06 228.921C19.0364 228.94 19.0382 229.025 18.9935 229.361C18.9567 229.689 18.7396 230.631 17.8067 231.216C16.8858 231.755 16.2745 231.579 16.2516 231.612C15.7369 231.683 15.5902 231.71 15.5687 231.812C15.562 231.904 15.6996 232.065 16.1866 232.182C16.6317 232.303 17.7304 232.266 18.5915 231.558C19.4463 230.863 19.674 230.052 19.7545 229.639C19.7742 229.538 19.7896 229.399 19.7904 229.376C19.7924 229.344 19.7928 229.313 19.7918 229.285C19.7896 229.227 19.7815 229.176 19.7684 229.131C19.742 229.041 19.6955 228.976 19.6325 228.934C19.5059 228.849 19.3152 228.847 19.06 228.921ZM17.8901 235.844C18.0749 235.272 17.9872 235.967 17.7579 236.682C17.5274 237.245 17.6175 236.544 17.8901 235.844ZM18.278 232.291C18.2343 232.308 18.1923 232.316 18.4392 232.221C19.2342 231.915 19.0137 232.011 18.278 232.291ZM17.3105 235.468C17.4973 235.399 19.6274 232.398 19.4038 232.749C19.3579 232.809 18.7017 233.689 18.5028 233.954C18.1231 234.425 19.5344 232.596 18.7674 233.568C18.62 233.74 17.2902 235.475 17.3075 235.472C17.3085 235.471 17.3095 235.469 17.3105 235.468ZM18.1115 233.051C18.0723 233.064 18.0318 233.068 18.0705 233.054C19.0082 232.715 19.0907 232.709 18.1115 233.051ZM16.3174 232.611C16.235 232.644 16.1499 232.654 16.2253 232.623C17.7343 232.005 17.9117 231.985 16.3174 232.611ZM16.1178 234.344C15.1577 234.634 15.0456 234.671 16.2572 234.327C16.1909 234.338 16.1793 234.334 16.1178 234.344ZM23.8414 225.92C23.9244 225.92 23.9808 225.852 24.6059 226.62C24.9061 227.165 25.6053 227.408 26.4164 230.72C26.5868 231.649 26.6782 232.68 26.4954 234.038C26.308 235.438 25.7609 236.909 25.0273 238.06C23.6608 240.212 22.0144 241.16 21.3239 241.537C20.9075 241.76 20.5415 241.915 20.2644 242.02C20.0256 242.109 19.8228 242.172 19.6489 242.221C19.2914 242.32 19.0934 242.35 18.9498 242.367C18.6511 242.4 18.59 242.367 18.5643 242.332C18.5368 242.255 18.7245 242.136 18.9297 242.012C19.1896 241.855 18.9824 241.32 19.1848 241.184C19.58 240.918 20.0936 241.128 20.5641 240.794C20.7194 240.681 20.3746 239.843 20.5378 239.744C21.4269 239.208 22.4214 239.233 23.3995 238.768C26.1137 237.484 28.6617 235.816 30.7363 233.836C32.3549 232.275 33.3884 230.931 34.4543 229.543C35.2623 228.481 35.645 226.835 36.7545 226.079C36.882 225.994 37.4124 226.565 37.4791 226.585C38.5099 226.882 37.2266 225.979 37.2569 225.623C37.3876 224.205 38.1338 223.197 39.0585 222.543C39.4561 222.263 40.3448 223.603 39.9791 222.689C39.955 222.626 39.2437 222.197 39.2578 222.042C39.2866 221.696 39.7438 221.368 39.8351 221.153C40.006 220.738 40.0619 220.682 40.3077 220.364C40.6377 219.925 40.7383 219.15 41.2541 218.805C41.3659 218.734 41.9179 219.391 42.1558 219.324C42.3934 219.257 42.6728 218.795 42.631 218.529C42.5891 218.263 42.0241 217.91 41.9256 217.79C41.0916 216.782 42.8595 217.412 42.9438 217.376C44.4337 216.708 44.4138 215.109 45.2564 214.052C45.8993 213.249 46.8416 212.599 47.4125 211.807C48.089 210.864 48.3469 209.807 49.1071 208.983C49.1874 208.895 49.8733 209.623 49.9728 209.516C51.0274 208.383 51.8862 207.146 52.3372 205.538C52.3807 205.378 51.5837 204.979 51.5871 204.785C51.6224 203.612 51.2554 201.365 54.5154 203.372C54.7985 202.804 55.1795 202.118 54.9591 201.203C54.8189 200.612 53.8725 200.26 54.4686 200.187C54.6036 200.168 55.145 200.811 55.2993 200.743C55.9485 200.456 56.1821 199.781 56.9205 199.599C57.0701 199.565 57.6008 200.087 57.7238 200.15C58.723 200.659 57.7145 199.105 57.6974 198.931C57.5298 197.677 58.2327 197.489 58.7141 196.965C58.8324 196.837 59.3987 197.685 59.5371 197.588C60.2363 197.086 60.7363 196.491 60.9946 195.699C61.043 195.528 60.397 194.958 60.3947 194.841C60.3949 194.775 60.4129 194.738 60.4438 194.722C60.7161 194.567 61.5486 195.409 61.6331 194.953C61.6546 194.844 61.1596 194.307 61.1215 194.235C60.5187 193.109 61.8068 194.355 61.8806 194.345C62.8381 194.261 62.066 192.497 62.8302 192.216C62.9232 192.183 63.3414 193.03 63.5671 192.895C65.0661 192.007 66.322 190.657 67.1819 189C67.3141 188.745 66.7298 188.329 66.6886 188.252C66.0485 187.053 67.3246 188.317 67.4331 188.315C68.2646 188.259 67.8139 186.69 69.5192 188.042C71.2247 185.72 74.0515 184.756 75.1125 181.793C75.1587 181.75 75.2124 181.699 75.2849 181.624C75.3212 181.586 75.3624 181.542 75.4113 181.484C75.4708 181.41 75.6312 181.244 75.8083 180.883C75.896 180.695 76.0026 180.437 76.0461 180.038C76.0562 179.939 76.0614 179.831 76.0585 179.716C76.0544 179.532 76.0284 179.323 75.9702 179.11C75.8585 178.681 75.5946 178.247 75.2928 177.959C74.6646 177.375 74.1408 177.311 73.8483 177.262C73.7617 177.251 73.7265 177.249 73.7026 177.248C73.6754 177.246 73.6496 177.245 73.6249 177.244C73.5755 177.242 73.5308 177.242 73.4898 177.243C73.1729 177.254 73.0201 177.3 72.9353 177.321C72.6696 177.403 72.6214 177.448 72.5437 177.493C72.4219 177.575 72.3604 177.641 72.2931 177.71C72.2562 177.751 72.7009 178.515 72.6341 178.59C71.9447 179.489 71.5264 178.18 70.0547 177.102C69.6765 176.839 70.3164 178.823 70.37 178.966C70.5364 179.508 71.3829 180.519 71.3981 180.635C71.5257 181.544 69.1787 177.903 68.6584 178.263C68.6472 178.28 69.1706 178.886 69.1748 178.98C69.1898 179.273 68.8827 179.104 68.919 179.417C69.0096 180.138 70.1996 181.872 69.0607 181.209C68.912 181.125 67.4732 179.128 67.1153 179.568C67.0317 179.672 66.7337 179.915 66.4824 180.169C66.3473 180.31 66.2181 180.463 66.1864 180.577C66.1183 180.846 66.7527 181.344 66.7625 181.381C66.9833 182.57 67.4245 182.763 68.1988 184.138C68.9586 185.518 66.6403 182.658 66.2763 182.428C65.9041 182.207 66.1261 183.149 66.2253 183.458C66.3297 183.762 66.7643 184.054 66.7941 184.25C66.9935 185.532 65.3969 183.038 64.854 182.731C63.5605 182.009 65.0085 184.354 64.8066 184.867C64.7543 185.004 64.4391 184.458 64.3143 184.486C63.8203 184.605 64.1526 185.434 63.2547 185.16C63.1038 185.119 61.7508 184.105 62.3004 185.21C62.38 185.369 62.8942 185.827 62.8386 186.069C62.7488 186.436 62.4494 186.87 62.0576 186.894C61.7702 186.909 61.2747 185.869 61.2654 186.324C61.2646 186.524 61.8582 186.888 61.8217 187.222C61.7892 187.553 61.2785 187.925 61.0864 188.05C60.8913 188.176 60.4596 187.433 60.4092 187.4C60.1169 187.213 59.5102 187.173 59.4789 187.199C57.851 188.362 57.2919 190.621 55.4581 191.441C55.3153 191.506 54.847 190.735 54.8196 190.738C54.1754 190.761 55.9611 192.393 56.1565 193.25C55.0872 191.778 55.1135 192.174 54.704 192.237C54.5046 192.268 54.1509 191.651 54.0942 191.604C53.2344 190.915 53.9312 192.123 54.0656 192.376C54.5604 193.307 53.6585 192.451 53.9876 193.074C54.3142 193.693 55.1516 194.34 54.8649 194.543C54.3908 194.086 53.5623 192.577 53.1834 192.52C51.7452 192.308 51.0561 194.508 50.4859 195.11C49.9169 195.713 49.6417 195.768 49.4001 196.244C48.9665 197.1 48.4661 195.897 47.6954 195.751C46.9237 195.606 48.9866 197.943 49.3241 198.524C49.662 199.105 49.1851 198.603 49.3283 198.954C49.4715 199.305 49.9068 199.547 49.8105 199.79C49.7143 200.034 48.5267 199.436 48.0476 198.922C47.0343 197.831 46.3284 196.422 46.1854 197.206C46.1777 197.252 46.7511 197.844 46.6968 197.987C46.2562 199.095 45.4259 199.754 44.9349 200.801C44.8674 200.947 45.5047 201.606 45.4714 201.7C45.1231 202.673 44.4707 201.252 43.0949 200.148C44.5109 201.919 45.1205 203.19 44.6029 203.582C44.2916 203.818 43.7663 202.977 43.1561 202.558C42.9726 202.431 43.1494 203.142 42.8368 202.793C41.8141 201.656 41.027 200.125 40.8871 201.061C40.8824 201.104 41.4442 201.726 41.392 201.825C41.0538 202.475 40.0686 201.224 39.3882 201.475C38.8525 201.673 38.6278 203.025 38.2069 203.517C39.6926 205.585 38.8679 205.455 37.6609 204.158C37.3728 204.45 36.9575 204.622 36.7749 205.047C36.7116 205.193 37.2089 205.745 37.2408 205.82C37.7446 206.993 36.6199 205.696 36.5097 205.691C35.8851 205.697 35.6315 206.145 35.2913 206.471C34.9637 206.774 34.614 206.983 33.8746 206.849C33.8213 206.834 32.6191 205.531 33.2426 206.701C33.2913 206.777 34.0713 207.163 33.7531 207.526C33.4169 207.906 33.4937 209.165 32.4657 209.103C32.2212 209.082 30.8385 208.491 31.5071 209.455C31.5998 209.584 32.0259 209.863 32.2103 210.085C32.8039 210.785 31.3181 209.784 32.3972 210.877C33.4755 211.973 34.1879 212.922 33.0057 212.812C32.9715 212.809 31.7084 212.15 31.6229 212.326C31.4885 212.605 31.5201 213.122 31.3546 213.388C31.2746 213.516 30.5618 212.991 30.5347 213.006C29.5856 213.666 29.9304 214.702 29.7544 215.82C29.7254 216.022 28.3914 216.02 29.0808 216.779C29.8369 217.607 33.9225 219.072 32.587 219.49C32.0523 219.659 26.8777 217.786 29.1508 219.628C27.9371 220.559 28.6976 222.346 27.1685 223.126C27.1002 223.162 25.6504 222.636 25.6049 222.768C25.5382 222.97 26.1165 223.406 26.0863 223.563C25.9728 224.236 25.1558 224.45 24.9348 225.025C24.8487 225.243 25.5294 225.544 25.422 225.809C25.3114 226.076 24.3833 225.733 24.5889 226.298C24.7479 226.724 26.2746 228.036 26.252 228.5C24.5927 227.451 24.4849 227.696 23.793 227.799C23.6594 227.817 23.1456 227.357 23.0534 227.346C22.6679 227.288 23.0501 227.733 22.6435 227.648C22.5458 227.627 21.9932 227.248 21.8827 227.209C20.9264 226.857 21.9057 228.08 22.0722 228.297C22.7084 229.118 21.9221 228.715 22.1024 229.129C22.2788 229.548 22.8783 229.567 22.9051 229.928C22.9594 230.674 22.4109 231.191 22.0682 231.647C21.9268 231.828 21.343 231.132 21.3068 231.144C20.8396 231.348 21.2306 232.343 19.7367 231.339C22.9406 234.665 19.2215 231.247 19.4575 232.343C19.4781 232.43 21.0086 233.983 21.3859 234.049C21.768 234.11 21.4866 233.412 22.0517 233.529C22.1823 233.56 23.9797 234.612 24.1132 234.647C25.1486 234.932 22.7167 232.762 22.5943 232.63C21.2893 231.188 23.2712 232.244 23.4773 232.231C24.4009 232.201 24.3462 231.526 25.0487 231.419C25.5029 231.349 27.2394 232.588 27.3487 232.328C27.7182 231.448 25.4168 229.543 28.0225 230.285C28.579 230.44 30.4378 231.862 29.2566 230.311C29.1839 230.211 28.0211 228.914 29.0655 229.241C29.1975 229.282 29.7752 229.639 29.8482 229.629C30.3275 229.555 29.9688 229.102 30.3659 228.941C30.7625 228.781 31.3022 228.621 31.2913 228.171C31.2878 227.898 30.3237 227.026 30.103 226.784C29.4647 226.093 30.9047 226.507 30.0402 225.83C29.1671 225.157 27.5472 224.69 27.1442 223.951C28.7135 224.759 30.3356 225.568 31.921 226.367C32.3787 225.363 32.3336 224.166 32.8563 223.256C32.9227 223.144 33.7212 223.674 33.8146 223.564C34.2036 223.099 33.8087 222.35 34.3025 221.931C34.6882 221.608 35.8065 221.588 36.2293 221.284C34.519 220.173 35.4278 219.855 35.4658 219.353C35.4804 219.177 34.9903 218.951 34.8836 218.769C34.4931 218.086 36.0034 219.061 36.3075 219.079C37.6025 219.168 34.0081 217.32 34.3806 216.82C34.4013 216.788 36.478 217.47 36.6162 217.497C37.5328 217.642 35.982 217.094 35.9377 216.843C35.8555 216.391 35.5392 215.906 36.2894 215.882C36.5132 215.872 37.7886 216.36 37.0264 215.627C36.9274 215.53 36.321 215.156 36.2988 215.114C35.9538 214.372 37.8203 215.611 38.5514 215.886C39.2766 216.17 38.2075 215.024 37.9035 214.691C37.1028 213.846 37.4318 214.496 37.337 214.436C36.1926 213.72 36.5353 213.649 36.5721 213.422C34.8749 212.031 35.1886 211.857 36.6192 213.191C36.7764 213.335 36.5195 213.327 36.5721 213.422C38.3715 214.618 38.6831 214.67 37.4057 213.087C36.815 212.34 35.9089 211.69 36.5575 211.603C36.849 211.569 37.8433 212.709 38.247 212.893C39.1399 213.34 38.5773 211.979 39.0527 211.916C39.068 211.914 39.0851 211.92 39.1035 211.931C39.3218 212.008 39.5772 212.665 39.7351 212.648C40.1992 212.597 40.1377 211.883 40.6536 211.909C40.7009 211.912 41.1242 212.672 41.2343 212.608C42.0796 212.138 42.4472 211.2 43.2595 210.604C43.6551 210.315 44.6315 210.205 44.9913 209.83C45.6087 209.19 45.7461 207.541 46.5254 207.355C47.0307 207.231 47.4538 207.993 47.9693 208.348C48.9697 209.035 48.3418 206.96 48.231 206.648C48.2273 206.638 47.7705 206.718 47.6888 206.228C47.2484 205.403 48.2247 206.648 48.231 206.648C48.1584 206.448 48.7224 205.793 48.953 205.829C49.0792 205.849 49.5225 206.541 49.5792 206.538C50.9098 206.474 51.9396 205.975 52.6291 204.987C52.6353 204.962 52.065 204.243 52.0862 204.193C52.3663 203.477 53.3771 204.124 54.2103 204.333C55.0409 204.544 55.255 204.105 54.5679 202.652C55.0162 202.564 55.0583 201.661 55.0783 201.117C55.094 200.576 56.2069 201.973 56.2521 201.983C57.6656 202.331 57.4879 201.183 58.1509 200.477C58.4726 200.133 59.3404 199.795 59.8587 199.642C60.2671 199.526 60.1901 199.057 60.6441 199.045C60.7051 199.043 61.1515 199.703 61.1822 199.718C62.0861 200.221 60.7424 198.803 60.5964 198.478C60.0642 197.293 59.7942 196.652 60.5649 196.806C60.743 196.84 62.7366 198.834 63.0085 198.83C63.3583 198.82 62.658 198.094 63.0378 198.106C63.0697 198.106 63.4461 198.598 63.5757 198.462C64.1769 197.842 64.6795 196.988 65.4105 196.489C65.5098 196.418 65.9967 197.284 66.1502 197.195C66.8631 196.778 67.5395 196.193 67.8855 195.326C67.966 195.112 67.4395 194.653 67.345 194.468C66.7723 193.344 68.1871 194.508 68.2584 194.494C69.9441 194.242 69.7882 192.274 71.4428 191.907C71.532 191.892 73.256 192.959 72.4158 191.511C72.3609 191.414 71.4858 189.946 72.4243 190.664C72.4826 190.709 72.9069 191.488 73.0858 191.221C73.2551 190.963 74.02 191.076 73.7285 190.068C73.6409 189.747 72.7758 188.272 73.9687 189.013C73.9948 189.03 74.2657 189.235 74.5811 189.449C75.1921 189.952 75.9294 190.566 75.0911 189.414C74.8869 189.137 73.4653 187.435 74.4262 188.12C74.6086 188.257 74.835 188.707 75.1421 188.858C75.6063 189.098 75.4991 188.437 76.2868 189.09C76.43 189.203 77.4225 190.344 76.903 189.319C76.8237 189.157 76.3773 188.566 76.4 188.452C76.4858 187.916 77.1887 188.087 76.9173 187.656C76.8433 187.592 76.6562 187.3 76.4799 186.982C76.3887 186.825 76.3029 186.661 76.1941 186.533C76.1379 186.47 76.0773 186.416 75.9967 186.379C75.9615 186.359 75.8974 186.352 75.824 186.351C75.7375 186.353 75.6924 186.348 75.4523 186.4C75.3388 186.423 75.1987 186.453 74.9868 186.49C74.8225 186.52 74.5885 186.564 74.2346 186.597C74.0552 186.614 73.8412 186.628 73.5629 186.628C73.4236 186.627 73.2679 186.623 73.0896 186.611C73.0258 186.604 72.4472 186.577 71.7569 186.39C71.0631 186.198 70.082 185.847 69.0172 184.926C67.9517 184.037 67.0085 182.423 66.7855 180.964C66.7218 180.603 66.6907 180.252 66.6837 179.93C66.6794 179.729 66.6841 179.536 66.6957 179.353C66.719 178.986 66.7692 178.657 66.8316 178.363C66.9578 177.776 67.1276 177.331 67.2881 176.974C67.9294 175.629 68.4838 175.205 68.5372 175.124C68.8578 174.799 69.0534 174.653 69.2067 174.538C69.1641 174.915 68.955 175.314 68.4752 175.09C67.9266 174.834 66.9365 173.181 66.535 173.314C64.809 173.882 64.2841 175.776 63.1365 176.938C62.9663 177.11 62.6863 176.457 62.4017 176.675C61.3573 177.474 59.2105 178.412 59.2453 180.254C59.2746 181.729 60.7247 181.685 60.4807 182.494C60.3586 182.885 58.681 181.395 58.5713 181.394C57.5095 181.347 57.7025 182.455 56.954 182.676C56.8014 182.719 56.3461 181.932 56.2223 181.977C55.7919 182.126 55.6937 182.722 55.3289 182.924C55.1626 183.014 54.7573 182.459 54.6568 182.609C54.4244 182.95 54.3191 183.407 54.4187 184.153C54.4279 184.221 55.1512 184.733 54.9406 184.944C54.5946 185.287 54.5247 186.159 53.6751 186.003C53.5403 185.978 53.1989 185.625 52.9668 185.458C52.7388 185.327 52.5818 185.355 52.7218 185.902C52.7822 186.148 54.1076 187.486 52.6059 186.635C52.3419 186.503 50.1763 185.501 50.809 186.854C50.9707 187.213 51.8409 188.513 51.5072 188.501C51.457 188.496 50.9616 187.803 50.7621 187.883C50.0546 188.193 49.634 188.753 48.96 189.081C48.7779 189.169 48.3394 188.364 48.0862 188.517C47.4227 188.898 46.9416 189.754 46.687 190.449C46.5894 190.712 47.248 191.058 47.2938 191.124C48.0462 192.199 46.6381 191.189 46.4941 191.2C45.6366 191.262 45.9407 192.146 45.4033 192.441C45.2589 192.521 44.7078 191.901 44.6322 191.877C43.8828 191.649 45.1557 192.434 45.1491 192.691C45.1379 193.411 44.6649 193.866 44.2312 194.219C44.0681 194.351 43.488 193.56 43.3496 193.686C42.5081 194.432 41.854 195.366 41.5878 196.521C41.54 196.738 42.1872 197.106 42.2908 197.244C43.0191 198.206 41.5153 197.519 41.3355 197.498C40.5167 197.402 40.9147 197.942 40.5792 198.163C38.9206 199.252 37.8197 201.319 36.9388 202.853C35.7867 204.85 35.2447 206.66 33.7653 208.227C33.6723 208.327 32.9938 207.612 32.9039 207.69C31.7721 208.733 31.1484 210.125 29.9829 211.119C29.8891 211.201 29.2801 210.482 29.1055 210.594C28.7431 210.818 28.463 211.244 28.4333 211.748C28.4183 211.992 29.2027 212.287 29.1748 212.523C29.1104 213.073 28.8531 213.492 28.4309 213.772C28.2516 213.887 27.7148 213.049 27.5393 213.245C26.3313 214.564 25.117 215.757 24.9025 217.857C24.8925 217.995 26.2585 219.356 25.8129 219.302C25.4011 218.961 24.9325 218.543 24.5006 218.17C23.058 219.429 21.8839 221.184 21.3246 221.889C21.1708 222.077 21.0078 222.245 20.8286 222.382C20.7912 222.41 20.314 221.506 20.2475 221.551C19.8458 221.808 19.439 221.694 19.2052 222.83C19.1794 222.941 19.7335 224.649 19.4467 224.448C19.3985 224.412 19.0189 224.263 18.8538 223.9C18.831 223.845 18.6937 223.017 18.5983 223.014C17.9918 223.019 17.5721 223.265 16.2297 223.94C15.983 224.057 16.3751 224.905 16.2022 224.996C15.8783 225.167 15.5216 225.236 14.6004 225.501C14.0846 225.694 13.4248 225.746 11.8833 226.866C11.0466 227.519 9.96197 228.634 9.37888 230.46C8.81873 232.34 9.05377 233.665 9.33116 234.698C9.59005 235.571 9.84871 236.044 10.106 236.491C10.3334 236.87 10.4921 237.085 10.6683 237.312C10.8484 237.541 10.9772 237.682 11.0973 237.806C11.2193 237.932 11.3372 238.043 11.4529 238.143C11.8579 238.48 12.2196 238.656 12.58 238.706C13.5473 238.823 14.2948 237.429 15.5442 236.497C15.7234 236.368 16.0198 236.565 16.5909 235.891C18.0149 234.188 19.4134 232.194 20.9485 230.393C21.2722 230.001 21.2689 230.699 21.8356 229.577C21.8692 229.498 21.9024 229.001 22.1255 228.643C22.2767 228.394 22.8996 227.744 23.0728 227.408C23.2407 227.068 22.6872 227.586 22.8927 227.191C23.1201 226.807 23.7653 226.014 23.8414 225.92ZM55.1469 198.698C54.8769 197.826 56.8135 200.299 56.0892 199.905C56.0519 199.883 55.1595 198.741 55.1469 198.698ZM30.197 223.132C29.1356 222.151 31.0897 222.787 31.9238 223.519C32.7536 224.256 30.5167 223.433 30.197 223.132ZM27.2573 226.517C26.5518 225.553 30.467 227.677 29.409 227.712C29.3485 227.715 27.2976 226.573 27.2573 226.517ZM14.5307 234.987C14.5476 234.975 14.6411 235.046 14.7171 235.108C14.7852 235.163 14.8473 235.224 14.8359 235.242C14.5549 235.664 14.2736 235.768 14.1611 235.675C14.0368 235.571 14.0808 235.263 14.5307 234.987ZM23.9938 229.55C23.5924 229.078 24.4115 229.122 24.9154 229.707C25.3175 230.184 24.4898 230.144 23.9938 229.55ZM65.7726 186.058C65.7467 186.018 65.855 185.874 66.0206 186.081C66.5547 186.745 66.2119 186.716 65.7726 186.058ZM19.1835 234.984C19.8604 234.105 17.6457 231.102 17.188 232.143C17.1012 232.333 18.3076 232.688 18.3635 233.098C18.4472 233.862 16.6392 232.394 17.1349 233.62C17.2195 233.851 19.1463 235.045 19.1884 234.986C19.1868 234.985 19.1851 234.984 19.1835 234.984ZM53.0089 195.585C52.9888 195.548 53.1622 195.367 53.1917 195.396C53.9021 196.108 53.5523 196.475 53.0089 195.585ZM74.1815 181.186C74.228 181.262 73.8401 181.688 73.7733 181.638C72.5045 180.57 73.2945 179.698 74.1815 181.186ZM38.2382 203.578C37.4368 202.917 37.1074 203.005 37.6611 204.156C37.8391 203.949 38.0535 203.785 38.2382 203.578Z" fill="#8231E1"/>
</svg>
