<svg width="1000" height="363" viewBox="0 0 899 363" fill="none" xmlns="http://www.w3.org/2000/svg">
<path d="M-49.5745 272.474C-49.1426 268.884 -48.6516 265.138 -48.1111 261.263C-45.1422 240.023 -40.7936 215.432 -37.1033 196.07C-35.7374 188.905 -35.3535 192.701 -34.3665 187.761C-32.4366 178.104 -31.448 168.99 -29.4356 159.445C-28.766 156.295 -27.8927 160.483 -27.2275 157.183C-24.7458 144.831 -22.7987 132.798 -20.6952 120.619C-19.6937 114.829 -18.6653 109.044 -17.483 103.1C-16.6671 99.0127 -15.8479 94.9789 -14.8965 90.7699C-14.4165 88.6705 -13.915 86.5267 -13.235 84.1312C-12.8813 82.9138 -12.5067 81.6315 -11.8197 79.911C-11.4563 79.0258 -11.0197 78.0057 -10.2065 76.6592C-9.45797 75.3589 -7.91295 73.5429 -6.91018 72.6936C-5.30952 71.2972 -2.84628 69.3271 1.34871 68.4814C5.57441 67.5744 10.2273 69.0293 12.6136 70.6038C17.4942 73.8673 18.6299 76.4447 20.0802 78.6638C31.1951 104.22 31.6626 122.609 36.0405 144.079C45.0641 197.353 53.1179 250.551 61.5615 304.499C62.3971 309.84 63.2433 315.227 64.0863 320.525C64.7512 324.696 65.4152 328.957 66.1157 333.321C66.4653 335.493 66.8162 337.654 67.1926 339.797C67.3739 340.829 67.5752 341.923 67.7628 342.828C67.8581 343.29 67.962 343.728 67.9921 343.858C67.9962 343.882 67.9957 343.883 67.9572 343.786C67.9369 343.736 67.9068 343.662 67.8595 343.556C67.8007 343.425 67.71 343.228 67.5569 342.954C67.4865 342.828 67.3318 342.564 67.1463 342.298C67.0508 342.16 66.9404 342.01 66.8093 341.845C66.7404 341.759 66.6836 341.69 66.5862 341.577C66.4754 341.45 66.352 341.315 66.2126 341.174C65.9339 340.891 65.5915 340.581 65.1562 340.262C64.7097 339.945 64.2559 339.623 63.278 339.21C61.4948 338.413 58.7684 338.333 56.9024 339.064C54.9267 339.822 54.2602 340.553 53.6621 341.1C53.0696 341.701 52.8882 341.979 52.6808 342.266C52.4886 342.543 52.3775 342.734 52.3037 342.864C52.2265 343 52.1741 343.102 52.1358 343.179C51.7936 343.908 51.8421 343.959 51.845 343.935C51.8631 343.897 51.9133 343.711 51.9587 343.506C52.0558 343.069 52.1578 342.481 52.25 341.872C52.4372 340.628 52.597 339.268 52.7438 337.872C53.0348 335.088 53.2729 332.178 53.4881 329.277C53.9183 323.41 54.2565 317.514 54.5482 311.569C55.169 298.712 55.5837 285.83 55.7704 273.817C55.8265 270.087 54.5532 272.276 54.4773 271.565C53.3344 260.437 55.6332 264.184 56.2055 256.959C57.9354 235.231 59.2153 211.634 60.5757 189.402C61.0138 182.247 61.4603 175.267 61.9194 168.512C62.7579 156.692 59.383 168.344 61.7834 156.555C61.9503 155.737 62.8912 158.849 63.3346 155.626C64.3115 148.315 65.687 134.411 66.6027 128.714C68.3744 117.766 68.5562 115.995 70.7663 105.488C71.5005 102.299 72.2968 99.058 73.7032 95.3927C74.5177 93.6639 74.6522 92.0894 77.6719 89.0415C78.1693 88.6067 78.7317 88.1896 79.5012 87.8011C80.3485 87.379 81.3325 87.0599 82.5141 86.9858C84.9474 86.8313 86.8555 87.9201 87.7815 88.6462C89.7213 90.2265 90.2603 91.4279 90.8275 92.3729C92.8327 96.2568 93.5244 99.2339 94.4303 102.441C96.0867 108.729 97.3222 114.8 98.6117 120.664C99.3118 123.893 99.6791 119.353 100.884 124.464C101.9 128.748 103.685 138.948 104.497 144.875C104.649 145.98 104.772 146.947 104.851 147.69C105.343 152.33 104.063 150.512 103.984 151.362C103.286 158.299 108.331 173.483 108.708 175.509C115.575 211.972 118.819 243.638 124.114 278C126.1 290.873 128.277 304.208 130.528 317.245C131.707 323.997 132.859 330.664 134.24 336.903C134.581 338.413 134.963 339.984 135.354 341.273C135.547 341.915 135.77 342.541 135.902 342.827C135.949 342.954 136.046 343.034 135.731 342.604C135.609 342.464 135.223 341.898 134.168 341.318C133.749 341.075 132.668 340.661 131.646 340.654C131.125 340.64 130.598 340.7 130.123 340.817C129.667 340.931 129.335 341.062 129.012 341.216C128.379 341.523 127.954 341.868 127.666 342.139C127.429 342.368 127.318 342.505 127.213 342.637C127.015 342.897 126.973 342.996 126.96 343.016C126.933 343.072 127.02 342.89 127.092 342.692C127.131 342.586 127.178 342.453 127.225 342.31C127.265 342.189 127.307 342.055 127.351 341.909C127.438 341.623 127.542 341.249 127.62 340.956C127.98 339.583 128.288 338.138 128.581 336.669C130.722 325.367 132.213 314.268 133.824 303.395C136.198 287.011 138.461 270.951 140.646 253.569C141.029 250.528 139.271 253.932 139.739 250.204C144.719 210.677 149.923 171.485 156.376 132.256C157.024 128.351 157.39 133.544 158.1 129.667C159.842 120.107 162.124 108.381 164.261 96.8475C165.932 87.9353 167.388 79.4295 168.978 71.5798C169.391 69.6138 169.799 67.7341 170.369 65.8138C170.686 64.7921 171 63.8342 171.562 62.7319C171.678 62.4978 171.909 62.1078 172.118 61.8038C172.352 61.4717 172.525 61.2165 172.971 60.7728C173.403 60.3639 173.792 60.0196 174.602 59.6357C175.402 59.2612 176.445 59.0682 177.411 59.1819C179.498 59.4889 180.353 60.3614 181.077 60.9918C181.636 61.4998 182.15 62.1661 182.44 62.5357C183.126 63.4526 183.578 64.1648 184.044 64.9262C184.899 66.2949 185.602 67.475 186.301 68.5741C189.157 79.0132 190.901 90.255 192.587 100.949C193.602 107.613 194.473 114.061 195.087 119.714C196.106 129.167 193.428 120.286 195.872 131.712C196.417 134.277 196.831 130.736 197.576 134.619C200.708 150.98 203.337 168.947 206.485 185.103C207.127 188.387 207.845 187.344 208.153 188.254C210.69 195.915 210.724 209.337 211.041 212.227C213.441 234.135 216.443 249.941 219.723 270.158C220.493 274.894 220.705 269.136 221.479 273.644C221.796 275.496 222.137 277.496 222.451 279.342C226.34 300.426 229.232 324.817 235.463 341.62C235.61 341.867 235.658 341.947 235.67 342.008C235.043 341.282 233.24 340.804 232.526 341.016C231.753 341.156 231.579 341.347 231.48 341.435C231.322 341.629 231.564 341.625 231.948 341.626C232.323 341.615 232.927 341.706 232.822 341.8C232.782 341.846 232.547 341.88 232.217 341.99C231.88 342.096 231.54 342.302 231.411 342.419C231.207 342.618 231.43 342.451 231.568 342.252C231.727 342.042 231.901 341.764 232.062 341.471C232.388 340.876 232.666 340.237 232.906 339.604C233.385 338.333 233.704 337.128 233.96 335.968C234.809 331.948 234.819 328.701 236.081 322.28C236.485 320.146 237.091 321.476 237.237 321.097C239.509 315.132 238.195 309.471 238.347 307.877C239.884 290.178 242.444 278.17 244.082 262.254C244.311 260.016 244.536 257.487 244.716 255.046C244.888 252.687 243.435 257.941 243.985 251.269C247.931 207.149 250.75 160.352 261.018 116.902C263.039 110.129 262.341 115.171 262.545 114.74C263.954 111.948 264.784 109.607 265.702 107.436C266.108 106.463 266.648 105.334 267.326 104.458C267.745 103.94 268.191 103.508 268.765 103.157C269.432 102.76 270.229 102.545 270.975 102.555C272.025 102.557 272.898 102.965 273.408 103.301C285.712 120.484 284.124 136.662 289.542 147.965C296.657 182.488 301.916 217.475 310.767 250.828C318.527 287.577 326.721 247.112 331.278 228.99C335.047 213.04 338.568 197.032 342.116 181.022C342.317 180.107 342.757 181.902 343.152 180.079C347.919 158.086 345.859 162.105 347.383 147.195C347.411 146.923 347.458 146.615 347.522 146.278C348.33 141.889 351.932 132.525 352.266 131.654C353.55 128.139 353.797 132.138 354.162 130.948C357.195 121.191 353.042 121.929 356.755 108.534C356.878 108.126 357.037 110.039 357.418 108.954C358.625 105.526 359.423 102.021 360.825 98.721C362.468 94.9349 364.021 92.5123 366.016 89.7087C366.623 88.9005 367.317 88.0212 368.517 87.4549C369.742 86.8091 371.477 87.3581 372.393 88.3728C373.968 90.0764 374.445 92.2804 375.397 94.7919C375.854 96.2687 377.537 93.4582 379.921 105.62C380.898 110.422 384.741 131.812 385.611 137.802C386.504 143.781 385.165 139.8 385.21 140.234C385.674 144.138 385.923 146.65 386.08 148.561C386.528 154.376 385.755 152.418 385.854 158.728C385.988 166.972 388.553 164.293 389.43 167.493C390.315 170.769 391.646 182.656 391.923 185.596C392.194 188.534 391.165 184.989 391.484 187.591C393.649 204.846 394.244 194.826 395.706 200.372C399.177 213.422 399.023 224.099 401.357 236.224C401.993 239.504 401.9 236.744 402.561 239.626C405.232 251.056 406.117 258.147 410.285 270.848C410.944 272.838 415.177 282.941 417.156 289.353C417.461 290.279 415.787 288.094 417.832 292.471C418.561 293.92 419.431 295.491 420.588 296.903C421.765 298.344 423.443 299.646 425.02 298.882C429.395 296.05 431.295 288.807 432.695 284.633C434.278 279.06 431.605 285.2 433.88 278.191C434.852 275.008 433.733 281.112 435.498 275.083C437.283 269.19 440.435 253.541 441.431 247.615C442.473 241.685 441.288 244.827 441.334 244.339C441.638 241.387 443.229 229.92 443.372 228.927C449.813 187.464 454.757 148.335 459.54 108.386C460.649 99.1581 461.743 90.0198 462.886 80.6666C463.364 76.7814 462.455 79.2943 462.522 78.7004C464.064 65.2073 464.161 76.0838 465.948 66.7486C464.621 67.9339 465.516 62.4249 466.919 53.0006C467.631 48.4467 466.773 50.8445 466.797 50.4211C467.301 43.5713 469.382 38.942 470.772 37.7455C470.963 37.554 471.183 37.3643 471.385 37.2143C471.997 36.7568 472.786 36.2925 473.743 36.2478C474.703 36.1994 475.54 36.6307 476.131 37.0839C477.325 38.0265 478.056 39.118 478.721 40.1444C479.626 41.5788 480.288 42.9826 480.611 44.1809C481.333 47.2308 478.316 40.8455 481.4 49.3985C482.564 51.7438 481.526 44.8666 483.761 51.5326C489.141 68.9081 493.161 97.2907 496.501 120.069C497.985 130.45 499.087 139.727 499.897 146.274C502.422 167.118 503.198 173.846 504.447 186.016C506.65 207.994 506.452 199.872 508.247 213.47C510.035 227.117 507.632 220.648 507.482 222.653C507.329 224.604 507.935 226.702 507.996 229.105C508.061 231.521 507.246 226.354 507.792 232.007C508.334 237.644 510.676 252.967 511.271 254.902C512.534 259.064 512.547 251.986 513.965 266.934C514.046 267.786 513.299 265.08 513.634 268.333C514.078 272.592 514.542 276.838 515.039 281.083C517.2 295.097 517.091 311.428 523.048 323.019C524.738 323.521 526.638 323.029 528.061 321.932C532.462 318.375 533.101 312.02 533.904 306.556C534.316 302.982 534.434 306.224 534.661 304.15C536.289 282.376 534.901 290.132 534.445 278.172C535.477 280.884 536.283 274.226 536.479 257.729C536.519 254.542 536.498 252.656 536.445 251.161C536.326 248.091 536.048 247.44 535.875 243.041C535.801 241.106 536.179 234.093 535.975 232.788C535.31 228.587 534.486 235.172 534.93 218.146C534.95 217.395 535.31 219.788 535.351 217.193C535.607 200.478 534.904 198.447 534.918 180.379C534.929 166.21 535.449 141 535.587 124.862C536.636 125.226 536.448 109.962 535.779 103.779C535.868 93.2932 535.906 81.9716 536.102 71.8703C536.17 68.358 536.432 70.6693 536.468 70.2257C536.534 69.4214 536.583 68.6582 536.619 67.9344C536.883 62.4342 536.419 58.6873 536.425 56.6778C536.707 39.564 536.247 24.6608 538.586 9.23211C539.301 6.46431 540.032 3.39195 542.512 1.24667C544.148 -0.291064 547.079 -0.413911 548.915 0.920819C550.577 1.97703 551.962 3.37659 553.181 4.90315C553.653 5.60264 555.335 6.2856 557.65 12.2441C557.76 12.6358 554.359 5.64838 558.804 15.8132C563.034 26.0827 567.026 46.5288 569.795 61.5635C570.487 65.1591 572.433 74.374 573.156 81.8389C573.252 82.8247 572.935 81.7749 573.054 83.2054C573.449 87.877 574.366 90.3356 574.643 95.7985C574.847 99.7751 575.53 106.792 576.743 116.126C577.212 119.737 577.748 123.667 578.351 127.891C578.421 128.392 579.278 131.934 579.826 136.764C580.703 144.428 581.785 155.385 582.576 163.395C582.957 167.254 582.96 164.76 583.031 165.43C585.813 191.269 586.359 209.817 589.796 237.428C589.917 238.206 590.092 239.238 590.323 240.363C591.296 244.65 592.478 251.579 595.756 257.214C596.17 257.848 596.638 258.467 597.249 258.819C597.858 259.191 598.595 259.033 599.156 258.597C600.274 257.722 600.993 256.435 601.643 255.285C604.269 250.014 604.168 250.599 605.219 248.586C606.016 246.877 607.546 243.285 610.657 232.325C613.359 222.597 615.442 210.003 619.543 192.395C622.104 179.162 624.154 166.213 626.194 153.4C628.636 139.403 631.359 125.145 638.514 112.565C640.131 109.747 643.878 109.259 646.82 110.29C650.121 111.348 652.797 113.868 655.147 116.483C656.23 117.625 659.47 121.458 661.45 124.622C664.425 129.307 665.776 132.007 667.685 135.451C675.581 149.949 682.096 163.606 690.16 177.332C693.273 182.505 692.036 180.792 695.991 186.824C697.044 188.389 698.061 189.821 699.062 191.165C700.424 193.074 702.708 194.671 705.316 193.929C707.858 193.246 710.159 191.218 712.569 188.599C717.494 183.094 721.517 176.857 726.993 168.757C727.267 168.618 729.522 162.409 737.988 155.716C738.508 155.425 739.059 155.177 739.649 154.979C741.863 154.368 739.459 154.922 740.516 154.649C744.975 153.683 749.027 155.667 752.585 157.757C753.459 158.289 753.531 158.267 754.234 158.723C755.12 159.305 756.071 159.982 757.04 160.714C762.87 164.978 765.792 173.684 766.399 175.184C769.029 182.427 769.791 185.963 772.131 191.394C774.841 196.618 770.51 188.944 774.015 194.878C774.242 195.187 774.507 195.513 774.772 195.798C775.923 197.146 777.922 198.001 779.71 197.188C781.445 196.469 782.817 195.016 784.038 193.527C786.457 190.492 788.375 186.998 790.228 183.471C793.92 176.414 797.009 169.073 800.671 163.026C800.771 162.866 800.864 162.717 800.952 162.58C803.868 158.546 801.68 161.472 802.148 160.825C805.696 156.238 811.399 153.782 816.518 153.237C822.389 152.543 826.246 157.043 828.147 159.686C828.651 160.443 829.056 161.129 829.407 161.757C831.398 165.549 831.754 167.126 834.359 173.102C834.873 174.142 835.361 175.451 836.522 176.467C837.731 177.552 839.722 177.141 841.469 176.285C841.526 176.258 841.583 176.231 841.64 176.204C842.678 175.708 843.962 175.131 841.498 176.346C841.049 176.561 840.465 176.831 839.694 177.038C838.698 177.319 837.35 177.348 836.385 176.467C835.43 175.621 834.866 174.376 834.284 173.136C832.655 169.583 831.376 165.395 829.341 161.795C829.272 161.677 829.203 161.561 829.133 161.445C828.701 160.726 827.18 158.268 825.081 156.414C823.028 154.477 820.345 153.645 819.713 153.569C818.561 153.33 817.491 153.329 816.542 153.444C809.211 154.634 808.361 156.024 807.883 156.063C805.61 157.261 802.816 159.61 800.967 162.59C798.37 166.765 796.395 171.223 795.576 172.852C792.771 178.65 790.239 184.102 787.27 189.055C785.771 191.508 784.2 193.895 782.118 195.796C781.079 196.716 779.835 197.558 778.38 197.665C776.907 197.785 775.57 196.938 774.638 195.922C773.79 195.013 773.126 193.962 772.549 192.887C769.215 185.739 769.284 184.878 767.227 179.095C764.369 170.693 761.354 164.801 756.678 161.191C751.73 157.707 745.727 152.542 738.197 156.093C736.964 156.804 735.827 157.847 734.702 159.054C732.14 162.224 734.453 158.845 725.997 170.934C725.432 171.677 719.43 180.87 715.554 186.001C715.067 186.647 715.166 186.657 714.482 187.504C712.301 190.142 710.308 192.296 707.612 193.835C706.272 194.568 704.618 195.13 702.841 194.763C701.064 194.401 699.594 193.146 698.458 191.61C698.276 191.366 698.092 191.117 697.906 190.863C693.312 184.626 688.507 176.685 684.303 168.966C681.756 164.318 678.771 158.224 677.64 155.955C674.456 149.552 670.746 142.871 668.774 138.903C666.771 134.906 671.235 142.422 665.633 132.142C665.177 131.896 664.449 131.2 663.85 130.73C659.153 123.158 654.423 114.345 646.556 111.137C643.752 110.194 640.681 110.6 639.246 113.039C632.804 124.17 630.022 137.412 627.664 150.378C627.146 153.482 627.83 150.405 627.33 153.582C627.324 153.62 627.318 153.658 627.312 153.698C625.134 167.945 623.075 180.408 620.203 195.135C617.986 206.52 615.332 219.008 612.069 230.728C610.728 234.561 608.623 241.456 606.035 248.87C605.112 251.483 604.149 254.113 602.733 256.715C601.952 257.992 601.357 259.361 599.419 260.436C598.404 261.022 596.684 260.701 595.955 260.048C595.148 259.434 594.7 258.784 594.287 258.165C593.649 257.177 593.167 256.187 592.748 255.222C590.99 250.765 591.362 251.013 590.496 247.813C589.516 243.784 589.138 241.722 588.867 240.649C588.375 238.526 588.479 240.296 588.053 238.1C585.69 223.682 586.85 222.369 585.25 205.416C585.169 204.499 583.622 193.583 583.445 192.084C582.334 182.513 583.501 190.445 582.997 184.471C582.056 173.492 581.478 165.873 579.929 153.038C579.478 149.285 578.09 140.362 577.512 133.065C577.437 132.113 577.71 132.612 577.629 131.846C576.68 122.944 576.007 119.636 575.326 116.31C574.936 114.413 574.545 112.558 574.075 109.713C572.777 101.8 571.495 89.4624 571.266 86.9893C570.662 80.393 572.15 91.9326 572.23 92.3074C573.235 96.397 571.907 87.4588 570.907 80.6422C571.457 79.5364 569.933 70.0287 569.85 73.5693C569.848 73.9757 570.734 79.2531 570.907 80.6422C569.321 74.758 567.608 64.3205 566.091 52.7389C565.3 47.2907 566.914 52.3027 563.132 36.0852C561.259 28.793 561.506 31.7221 559.546 25.4234C556.966 18.0182 554.141 8.07648 547.508 3.0833C546.223 2.25549 545.228 2.27581 544.075 3.16815C542.451 4.44281 541.552 7.19461 540.916 9.78885C540.232 12.5564 540.045 15.4725 539.87 18.2761C539.589 23.926 540.18 18.4343 540.024 22.298C539.69 32.5527 539.348 41.6964 539.331 52.07C539.332 52.9979 539.686 50.7206 539.655 53.929C539.61 58.6978 539.569 63.3382 539.527 67.9641C539.364 86.8715 539.198 104.743 539.171 125.303C539.155 137.667 539.354 159.755 539.307 172.555C539.232 194.75 538.619 222.04 538.606 241.006C538.603 247.298 538.701 249.715 538.836 251.193C538.965 252.699 539.125 253.378 539.236 255.952C539.691 266.186 538.498 284.26 538.243 286.739C538.25 286.788 538.345 276.157 538.029 281.826C537.522 285.14 538.243 286.604 538.243 286.739C538.172 288.307 537.368 309.698 535.846 314.243C535.281 316.649 536.01 315.445 535.654 316.712C534.804 319.522 533.364 322.747 530.458 325.033C528.287 326.777 525.065 327.773 521.957 326.908C521.181 326.793 519.526 325.768 519.024 325.007C518.402 324.227 518.113 323.61 517.844 323.032C517.347 321.913 517.05 320.948 516.765 319.974C516.224 318.086 515.81 316.216 515.43 314.391C514.681 310.752 514.063 307.129 513.476 303.486C512.309 296.186 511.319 289.031 510.357 281.679C509.147 272.39 508.069 262.963 507.054 253.6C507.005 253.095 507.577 253.801 507.456 252.612C505.776 235.983 504.013 225.452 502.103 211.814C500.197 198.181 499.063 187.352 498.997 179.164C497.682 168.867 496.269 154.089 495.388 145.555C494.514 137.045 493.296 136.002 493.177 135.268C492.298 130.059 491.518 125.356 490.781 120.951C488.18 105.577 486.658 93.2792 483.201 74.8151C481.536 66.857 479.047 51.888 473.994 42.9715C473.487 42.1 472.764 41.3427 472.839 41.4654C472.877 41.4947 473.007 41.5879 473.281 41.675C473.548 41.7631 473.969 41.8117 474.329 41.7596C475.09 41.6395 475.281 41.3782 475.241 41.4397C475.243 41.4548 475.388 41.2749 475.338 41.3531C475.306 41.4159 475.223 41.596 475.133 41.8385C474.953 42.3218 474.776 42.9297 474.612 43.5646C472.62 52.4721 471.681 58.6938 470.575 67.6539C470.434 68.8702 471.103 67.7259 471.074 68.0935C470.361 78.1665 469.75 73.2635 469.259 75.2854C467.497 82.6622 466.452 87.4134 465.317 100.341C465.167 102.031 465.357 105.332 465.459 109.083C465.565 112.011 465.599 115.348 465.378 117.752C464.707 124.944 464.359 122.07 463.676 129.581C463.617 130.22 464.048 130.1 463.509 134.725C461.029 156.033 458.097 179.248 455.191 201.411C454.792 204.434 455.993 200.647 455.425 205.025C452.725 225.562 449.404 248.059 444.768 267.991C443.593 272.919 443.788 269.702 443.405 270.736C441.11 277.069 439.699 286.699 439.11 288.319C438.233 291.072 437.306 293.717 435.934 296.613C434.355 299.335 433.785 302.417 428.077 305.659C425.719 306.797 422.581 306.812 420.319 305.879C418.261 305.086 416.78 303.806 415.837 302.873C413.736 300.726 412.657 298.885 411.603 297.062C409.58 293.437 408.121 289.772 406.885 286.413C404.357 279.441 402.47 272.625 400.692 265.747C397.181 252.002 394.213 237.923 390.807 222.207C390.357 220.21 385.863 204.974 385.899 197.822C385.895 197.333 385.966 190.235 383.99 184.366C383.865 183.993 383.943 188.403 382.684 180.915C381.433 173.458 378.892 161.554 377.885 151.225C377.849 150.861 377.819 150.442 377.789 149.975C377.522 146.117 377.289 139.056 374.782 130.665C374.615 130.087 369.418 115.707 370.061 110.188C370.139 109.295 372.26 109.665 368.837 98.8079C368.154 96.863 368.686 100.45 367.067 95.4352C366.837 94.7771 366.601 94.1468 366.407 93.7228C366.318 93.5251 366.227 93.3698 366.244 93.426C366.253 93.4527 366.293 93.5378 366.391 93.6812C366.479 93.8138 366.657 94.0235 366.742 94.1097C366.897 94.2629 367.25 94.6444 368.194 95.0001C369.105 95.3767 370.716 95.3949 371.69 94.9978C372.689 94.6245 373.085 94.2008 373.261 94.0344C373.434 93.8534 373.414 93.8511 373.364 93.9504C371.09 98.1918 368.858 105.39 367.585 111.784C367.203 113.61 366.395 121.666 363.993 127.757C363.614 128.71 363.422 126.701 362.588 130.008C361.077 136.037 359.753 142.214 358.501 148.51C356.467 158.752 354.565 169.222 352.319 179.417C351.035 185.245 350.576 182.045 349.109 188.098C347.646 194.154 344.916 206.398 344.06 212.886C343.206 219.378 346.355 212.75 344.467 222.364C343.86 225.423 343.235 228.48 342.59 231.532C340.139 242.686 338.012 253.614 333.259 265.513C331.838 268.546 330.915 271.592 326.696 275.764C325.507 276.819 323.9 278.04 321.384 278.772C318.886 279.561 315.512 279.196 313.498 278.258C309.263 276.271 307.946 273.99 306.667 272.3C302.29 265.381 301.028 260.014 299.242 254.173C294.668 237.453 291.74 221.134 288.442 204.693C287.226 198.503 287.61 203.766 285.785 194.68C283.358 182.631 280.308 167.431 276.847 151.775C275.103 143.939 273.279 136.061 271.212 128.47C270.201 124.78 269.08 120.991 267.903 117.763C267.324 116.175 266.694 114.642 266.121 113.539C265.981 113.269 265.871 113.074 265.766 112.9C265.656 112.717 265.591 112.631 265.614 112.656C265.627 112.662 265.785 112.882 266.286 113.262C266.661 113.56 268.109 114.496 270.06 114.623C271.598 114.756 273.184 114.306 274.087 113.815C274.882 113.399 275.336 112.987 275.593 112.73C276.021 112.273 275.925 112.294 275.824 112.473C275.722 112.629 275.514 113.021 275.337 113.406C275.161 113.783 274.964 114.248 274.759 114.781C274.013 116.701 273.285 119.151 272.687 121.355C271.459 125.906 270.46 130.46 269.598 134.291C264.847 157.042 268.393 127.953 265.261 145.54C263.806 154.049 264.981 163.69 264.822 165.737C263.257 186.137 260.982 200.252 259.682 218.715C259.421 222.52 260.683 218.872 260.452 222.118C259.671 233.222 258.305 244.793 257.499 255.444C257.156 260.017 257.903 259.491 257.552 263.446C257.543 263.547 257.534 263.649 257.523 263.755C256.503 274.301 255.384 283.488 253.689 293.697C253.533 294.63 253.23 288.242 252.43 296.013C250.894 308.734 249.524 323.505 245.836 339.705C245.825 339.748 245.813 339.791 245.802 339.833C245.247 341.896 245.18 343.225 244.762 345.02C244.535 345.931 244.26 346.924 243.486 348.428C243.064 349.198 242.626 350.056 241.365 351.49C240.648 352.209 239.958 353.18 237.397 354.437C236.131 355.016 233.966 355.697 231.324 355.288C228.675 354.901 226.517 353.403 225.41 352.236C223.692 350.41 222.773 348.544 222.151 346.951C221.445 344.478 223.667 346.016 218.772 335.432C217.822 333.631 211.408 315.964 211.41 306.93C211.374 304.503 212.004 298.324 210.832 293.257C210.665 292.562 210.222 295.541 209.371 291.264C208.764 288.197 208.172 285.058 207.583 281.827C205.4 269.872 203.36 257.631 201.09 245.558C200.325 241.503 200.353 247.744 199.237 241.664C196.174 224.978 192.925 204.07 190.478 187.678C189.578 181.633 191.125 185.659 191.142 185.206C191.444 177.913 188.723 174.084 188.205 171.757C185.023 157.347 184.07 146.091 181.476 132.778C180.756 129.078 180.241 131.878 180.024 131.154C177.83 123.714 180.584 129.045 179.926 124.207C179.031 117.629 177.91 110.714 176.673 103.841C175.337 96.4444 173.888 89.0927 172.336 82.4095C171.194 77.6389 171.288 83.2176 170.266 79.0271C169.816 77.2393 169.299 75.3237 168.81 73.7884C168.547 72.9553 168.297 72.2503 168.081 71.721C167.984 71.4817 167.872 71.239 167.84 71.185C167.822 71.1514 167.818 71.1535 167.855 71.2243C167.898 71.2996 167.948 71.4002 168.153 71.6916C168.677 72.1057 168.786 73.6373 173.636 75.3707C176.06 76.1269 179.336 75.7768 181.332 74.7942C183.173 73.9308 183.992 73.0997 184.577 72.5079C185.025 72.0342 185.271 71.6871 185.425 71.4601C185.566 71.2482 185.606 71.1727 185.635 71.1237C185.678 71.0478 185.616 71.1727 185.534 71.3861C185.178 72.2852 184.666 74.0192 184.223 75.8009C182.459 83.0068 181.066 91.2363 179.676 99.366C177.928 109.729 176.251 120.224 174.574 130.412C173.765 135.332 173.275 132.09 172.923 133.087C170.468 139.964 171.094 150.6 170.974 153.019C170.422 163.994 169.055 168.12 167.976 177.735C163.529 217.515 157.535 265.207 152.055 305.799C151.047 313.206 150.05 320.424 149.012 327.279C148.296 331.952 147.564 336.61 146.569 341.43C145.98 344.006 145.691 346.102 144.08 350.165C143.291 351.527 143.676 352.548 139.564 356.344C138.174 357.411 136.486 358.526 133.432 359.044C130.465 359.611 126.787 358.508 125.386 357.642C123.706 356.727 122.627 355.715 121.835 354.854C121.263 354.223 120.851 353.668 120.501 353.15C119.761 352.026 119.516 351.491 119.206 350.855C119.06 350.548 118.929 350.252 118.808 349.962C118.708 349.726 118.621 349.507 118.534 349.283C118.364 348.841 118.205 348.396 118.064 347.973C117.944 347.614 117.831 347.255 117.721 346.893C114.892 336.391 114.023 328.785 112.574 320.242C107.03 284.844 102.464 252.113 96.3158 214.77C95.7455 211.293 94.9355 215.018 94.4242 212.019C90.813 190.694 87.4622 169.453 83.7933 148.468C82.2792 139.864 80.7311 131.403 78.9692 123.029C78.0898 118.869 77.1558 114.726 76.1193 110.803C75.6014 108.85 75.0634 106.978 74.4955 105.288C74.212 104.444 73.9222 103.664 73.677 103.089C73.5417 102.77 73.4406 102.559 73.3543 102.395C73.2809 102.254 73.2364 102.215 73.3624 102.433C73.5724 102.812 74.1173 103.581 74.1779 103.823C74.2576 104.097 73.9196 104.005 73.6974 104.027C73.4988 104.062 73.263 104.128 73.9283 104.964C74.0948 105.166 74.4442 105.527 74.9698 105.948C75.5327 106.378 76.1673 106.89 77.7289 107.575C79.1664 108.191 81.5365 108.874 84.4391 108.59C87.2419 108.359 89.9237 107.03 91.2521 106.005C92.1504 105.335 92.6087 104.867 93.0035 104.451C93.1968 104.244 93.3594 104.055 93.4983 103.884C93.6197 103.736 93.7171 103.61 93.8045 103.492C94.1584 103.009 94.2642 102.811 94.3316 102.706C94.4402 102.527 94.3354 102.757 94.2122 103.128C92.2573 108.988 90.2831 120.783 88.7534 129.293C87.8728 134.315 87.5921 127.384 86.7398 132.436C84.7751 144.253 83.4302 157.216 82.676 169.649C82.3647 174.95 84.3981 167.098 83.8942 173.958C83.4932 179.585 83.1375 185.21 82.818 190.829C80.5522 231.007 79.8886 271.034 77.1747 312.352C77.1001 313.459 77.0265 314.477 76.9476 315.576C76.7009 318.915 73.5935 321.671 73.8393 328.84C74.6547 329.417 75.6458 329.438 76.5339 329.715C76.3985 332.901 76.2434 336.047 76.005 339.352C75.8841 340.998 75.7439 342.701 75.531 344.541C75.4191 345.487 75.2956 346.453 75.0837 347.657C74.9737 348.269 74.8462 348.931 74.6288 349.792C74.3808 350.681 74.1778 351.706 73.1562 353.808C72.6642 354.548 72.8639 355.134 69.9008 358.171C69.0073 358.959 68.1248 359.797 65.8067 360.867C63.6659 361.853 60.489 362.414 57.6811 361.944C51.4062 360.612 50.2562 358.403 48.8271 357.079C47.8936 356 47.4522 355.272 47.0599 354.606C46.7718 354.103 46.5797 353.717 46.4081 353.35C46.2274 352.961 46.137 352.741 46.042 352.509C45.9493 352.281 45.8687 352.069 45.7956 351.869C45.3078 350.498 45.1683 349.887 44.9836 349.201C44.655 347.917 44.4484 346.959 44.2349 345.961C43.8229 344.013 43.4722 342.187 43.1315 340.381C42.4532 336.769 41.8192 333.196 41.2009 329.665C39.9618 322.572 38.7831 315.589 37.5954 308.479C29.5964 260.531 22.1979 212.634 13.5952 164.641C13.0767 161.775 12.3111 167.017 11.2974 161.486C10.5359 157.344 9.75302 153.183 8.97073 149.12C5.07161 129.666 0.591568 104.834 -4.22067 93.2934C-4.33955 93.0543 -4.41433 92.9449 -4.23823 93.1296C-4.03391 93.3075 -3.67002 93.8474 -2.07858 94.8256C-0.652935 95.7852 3.26542 97.0652 6.71659 96.2699C10.1255 95.5298 11.5475 94.107 12.1168 93.5999C12.4997 93.2779 13.6616 91.8881 13.99 91.2303C14.3917 90.5169 14.4443 90.2691 14.4463 90.2274C14.4226 90.1696 14.1757 90.7816 13.9592 91.4431C13.504 92.8173 13.0035 94.6523 12.5269 96.465C11.7639 99.4917 9.00687 97.2561 7.77351 106.797C7.57423 108.278 5.9947 119.545 5.65219 125.009C5.60656 125.758 5.58246 126.402 5.58888 126.885C5.60641 127.413 7.46083 124.993 6.74419 129.692C2.58301 156.959 -2.13418 185.578 -7.12545 212.726C-7.93127 217.099 -8.78324 212.174 -9.37284 215.297C-12.4449 231.612 -14.5558 249.22 -17.1397 265.685C-18.0644 271.592 -19.0359 277.277 -20.1314 282.782C-22.8705 296.745 -24.9711 291.213 -28.519 298.397C-29.0573 299.46 -29.8386 308.08 -31.3917 308.433C-35.4688 309.45 -39.5874 304.765 -43.9641 306.325C-44.7533 306.553 -44.5578 314.427 -45.3099 314.28C-45.3101 314.28 -45.3103 314.28 -45.3104 314.28C-45.5429 314.271 -45.8826 313.678 -46.3573 311.938C-46.5838 311.392 -46.7492 301.859 -47.2136 299.64C-47.576 298.037 -49.4734 300.685 -49.8098 297.442C-50.1373 294.219 -48.3915 290.933 -48.5155 285.77C-48.6316 280.597 -50.7681 282.573 -49.5745 272.474ZM490.865 107.312C490.101 99.4059 488.054 98.5781 489.881 106.948C489.97 107.346 490.905 107.715 490.865 107.312ZM633.294 125.276C629.829 135.017 628.91 142.106 630.751 135.048C632.707 128.052 634.415 122.335 633.294 125.276ZM691.537 180.336C685.481 169.822 684.031 168.433 690.715 179.61C691.109 180.247 691.904 180.951 691.537 180.336ZM-24.7648 263.284C-24.7899 263.311 -24.8858 263.836 -25.0063 264.562C-25.326 266.496 -25.8029 269.749 -25.7662 269.873C-24.9021 272.257 -23.784 267.549 -23.7522 264.741C-23.7444 263.367 -24.0169 262.462 -24.7648 263.284ZM765.173 172.686C764.466 170.936 762.823 167.636 761.257 165.556C759.7 163.466 758.555 162.431 760.091 164.185C762.819 166.903 766.934 177.064 765.173 172.686ZM400.261 236.797C400.266 236.659 399.36 232.155 399.18 232.288C398.586 232.719 400.094 238.968 400.261 236.797ZM885.391 150.725C882.692 150.023 879.998 149.799 877.484 149.929C860.213 162.735 853.688 171.218 872.471 152.941C876.39 149.392 864.164 160.729 869.058 156.116C871.799 153.48 874.334 150.994 877.48 149.911C881.95 149.694 886.226 150.53 890.344 152.563C892.832 153.997 895.599 155.249 898.778 156.238C900.211 156.655 894.429 155.08 890.34 152.571C888.043 151.42 885.875 150.849 885.345 150.713C885.36 150.717 885.375 150.721 885.391 150.725ZM492.36 102.448C492.367 102.317 491.357 96.0169 491.301 95.8494C490.148 92.5388 492.191 105.229 492.36 102.448ZM339.521 197.869C339.386 198.2 336.312 212.641 336.268 213.124C336.139 220.976 342.357 191.754 339.521 197.869ZM535.616 124.609C535.235 117.657 535.24 109.336 535.779 103.811C535.712 110.71 535.674 117.662 535.616 124.609Z" fill="#FFCC00"/>
</svg>
