<svg width="447" height="281" viewBox="0 0 447 350" fill="none" xmlns="http://www.w3.org/2000/svg">
<path d="M431.327 125.151C430.604 126.731 427.858 133.118 426.659 135.868C428.196 132.792 433.892 119.511 431.327 125.151ZM386.385 121.987C386.101 124.537 385.783 127.077 385.448 129.597C386.208 122.535 387.202 113.02 386.904 105.725C386.898 105.552 386.89 105.373 386.876 105.158C386.783 104.054 386.833 105.009 386.809 105.399C386.799 105.598 386.784 105.709 386.763 105.538C386.752 105.449 386.741 105.291 386.713 104.965C386.659 104.585 386.718 104.266 386.327 102.804C386.07 102.072 385.794 100.865 384.155 99.2885C382.416 97.5335 379.214 97.1423 377.873 97.5188C376.524 97.7924 375.86 98.1922 375.39 98.4461C374.862 98.7552 374.653 98.9133 374.376 99.1181C373.47 99.8185 373.119 100.197 372.725 100.582C371.969 101.349 371.223 102.194 370.037 103.901C368.514 106.04 365.02 111.875 361.738 117.821C358.977 122.794 356.294 127.791 354.841 130.463C343 152.279 331.33 174.326 319.598 196.076C331.486 174.379 320.515 195.082 316.629 201.98C316.505 202.201 316.389 202.407 316.282 202.596C315.339 203.664 315.921 204.564 302.242 224.336C299.127 228.29 298.104 229.022 297.533 229.639C296.936 230.185 296.848 230.47 295.333 231.262C295.94 231.003 296.604 230.692 298.073 230.687C299.454 230.68 301.07 231.333 301.985 232.131C303.632 233.621 303.63 234.382 303.794 234.685C303.995 235.351 303.904 235.188 303.9 235.023C303.856 234.599 303.834 233.692 303.859 232.589C303.907 230.351 304.104 227.179 304.427 222.968C303.709 243.264 304.584 223.555 305.917 207.008C305.974 206.221 306.125 204.093 306.333 201.085C306.898 192.946 307.9 178.691 308.433 171.31C308.684 167.862 309.245 162.622 309.568 158.047C309.789 154.897 309.85 152.509 310.172 147.833C311.273 131.619 312.366 115.622 313.029 99.3387C313.135 96.5044 313.225 93.6708 313.236 90.7021C313.238 89.2522 313.226 87.7198 313.129 86.0609C313.078 85.2566 313.012 84.3362 312.832 83.2345C312.715 82.592 312.64 82.0464 312.239 80.9051C312.076 80.477 311.714 79.5027 310.869 78.4405C310.294 77.7215 309.405 76.8582 308.08 76.2408C306.635 75.5203 304.555 75.3799 303.233 75.7202C304.74 75.3079 307.193 75.661 308.508 76.4695C309.831 77.1842 310.705 78.2243 311.072 78.7454C311.835 79.8256 312.09 80.6229 312.242 81.0509C312.583 82.1109 312.623 82.5275 312.715 83.0622C312.837 83.9153 312.867 84.5038 312.883 84.8672C312.913 85.6587 312.886 85.8155 312.853 85.6149C312.834 85.5124 312.809 85.2743 312.774 84.9666C312.739 84.6594 312.697 84.2671 312.614 83.7045C312.572 83.4328 312.528 83.153 312.445 82.7404C312.36 82.3429 312.283 81.961 312.054 81.2646C311.932 80.9172 311.847 80.6519 311.536 80.0235C311.185 79.4066 311.049 78.9468 309.82 77.7486C309.23 77.218 308.522 76.7041 307.442 76.2919C306.337 75.8677 305.024 75.7374 303.919 75.8951C301.972 76.1692 300.79 77.0503 300.257 77.454C298.083 79.3652 298.101 79.9305 297.522 80.7784C297.097 81.5182 296.778 82.1616 296.464 82.8192C295.874 84.0666 295.39 85.219 294.967 86.2495C294.133 88.2916 293.539 89.8828 293.461 90.1037C292.63 92.6096 294.157 88.301 295.961 84.1817C296.441 83.1076 296.902 82.1186 297.518 81.0268C298.236 79.9428 298.477 78.8899 300.993 77.1082C301.752 76.6279 302.693 76.2532 303.597 76.0943C304.68 75.8946 305.611 75.9987 306.088 76.0839C306.575 76.1754 306.673 76.213 306.36 76.1425C306.054 76.0847 305.275 75.9194 304.154 76.0348C303.013 76.1627 302.069 76.5034 301.144 77.0548C300.652 77.3573 300.417 77.5469 300.13 77.7856C299.854 78.0189 299.602 78.2638 299.369 78.5147C298.971 78.9481 298.681 79.3306 298.387 79.7586C298.155 80.0986 297.888 80.5344 297.685 80.8971C293.603 89.0985 291.907 95.3438 289.35 102.446C287.489 107.862 285.643 113.333 283.818 118.778C287.142 108.625 278.945 132.082 277.677 136.494C277.861 134.428 259.562 193.048 256.53 201.843C256.028 203.295 258.291 195.948 254.695 206.881C253.757 209.725 252.425 213.802 250.502 219.504C249.487 222.5 249.991 221.433 249.443 222.981C249.098 223.915 246.771 229.51 244.697 235.328C244.375 236.222 245.218 234.321 245.35 234.138C245.416 234.049 245.315 234.402 244.793 235.746C244.523 236.431 244.161 237.338 243.648 238.479C243.396 239.037 243.105 239.655 242.803 240.211C242.657 240.48 242.503 240.736 242.422 240.852C242.362 240.971 242.288 240.904 242.954 240.387C243.367 240.096 244.018 239.673 245.139 239.411C246.034 239.102 248.594 239.261 249.926 240.239C252.31 241.955 252.215 243.061 252.39 243.279C252.514 243.653 252.519 243.763 252.525 243.782C252.529 243.812 252.52 243.742 252.514 243.664C252.482 243.311 252.476 242.503 252.501 241.742C252.552 240.095 252.704 238.069 252.911 235.785C251.796 248.973 258.213 190.232 259.111 179.204C258.952 181.377 258.786 183.581 258.62 185.748C259.566 174.984 259.876 172.985 260.099 170.597C260.473 166.489 260.86 161.858 261.237 157.053C261.77 150.287 262.157 143.388 262.455 138.017C263.017 127.265 263.286 127.238 263.605 114.721C263.571 117.692 263.526 120.66 263.47 123.637C263.79 114.987 264.008 106.351 264.166 97.7192C263.369 117.701 264.259 93.4074 264.265 91.8107C264.32 89.2559 264.118 92.9168 264.203 88.6577C264.212 88.2176 264.344 88.8507 264.446 82.2792C264.636 68.5585 264.428 70.7207 264.481 64.9632C264.485 64.4392 264.596 66.2844 264.695 56.3385C264.736 52.1822 264.765 49.1078 264.786 46.9604C264.779 39.2227 264.777 42.182 264.731 46.96C264.663 51.2591 264.587 57.1957 264.576 57.7075C264.535 59.2924 264.134 48.4691 264.08 75.3102C264.112 66.2822 263.886 65.3836 263.89 64.3699C263.895 63.4744 264.033 47.8621 264.051 47.019C264.051 46.9974 264.052 46.9759 264.052 46.9545C264.121 39.059 264.291 46.086 264.314 44.5171C264.294 43.8247 264.374 39.2685 263.754 33.4473C263.587 32.0252 263.365 30.4468 262.938 28.7271C262.439 27.0283 262.074 24.9602 259.668 22.3058C258.497 21.0123 256.49 20.0414 255.867 19.8201C255.54 19.6913 255.581 19.6717 255.96 19.8671C256.326 20.049 256.971 20.5405 257.343 21.0018C258.134 22.0001 258.138 22.4055 258.204 22.4893C258.243 22.5743 258.24 22.4602 258.252 22.3131C258.216 21.7811 258.173 21.3349 258.055 20.738C257.925 20.2211 257.749 19.6437 257.411 18.9469C256.834 17.9403 256.316 16.5821 253.58 15.2798C252.257 14.7023 250.664 14.6126 249.587 14.8085C248.674 14.9605 247.971 15.2431 247.428 15.5179C246.271 16.1388 246.002 16.4624 245.642 16.7718C245.319 17.073 245.057 17.366 244.894 17.5608C244.748 17.737 244.626 17.8954 244.52 18.0407C244.314 18.3212 244.129 18.6042 244.048 18.7409C243.659 19.3888 243.579 19.6131 243.687 19.4839C243.744 19.4189 243.853 19.2653 244.023 19.0288C244.18 18.8155 244.445 18.4225 244.922 17.8634C245.114 17.6447 245.581 17.0954 246.3 16.5433C246.621 16.2986 247.465 15.6733 248.691 15.3038C249.569 14.8898 252.842 14.7968 254.606 16.1648C256.114 17.1903 256.746 18.322 257.129 19.1003C257.395 19.6647 257.547 20.1455 257.66 20.5778C257.783 21.0677 257.808 21.2479 257.857 21.5432C257.899 21.816 257.929 22.0795 257.953 22.3419C257.953 22.5652 258.05 22.772 257.856 22.2371C257.75 21.9781 257.472 21.3772 256.847 20.7643C256.219 20.1354 255.482 19.8449 255.58 19.8905C255.659 19.8872 258.622 21.101 259.942 22.8215C261.385 24.5134 261.928 25.9774 262.368 27.2224C263.853 32.0725 263.885 35.9531 264.069 40.15C264.037 41.2886 264.009 37.6164 263.451 33.1333C263.13 30.8722 262.794 28.4331 261.534 25.6694C260.913 24.309 259.78 22.7233 258.485 21.7369C257.182 20.7382 256.345 20.4758 256.185 20.3877C255.4 20.077 255.264 19.9747 255.87 20.3064C256.484 20.6335 257.277 21.5462 257.474 22.0001C257.706 22.4579 257.714 22.6105 257.721 22.6182C257.723 22.6251 257.705 22.5249 257.692 22.3671C257.635 21.8339 257.601 21.4696 257.404 20.6683C257.292 20.2438 257.143 19.7678 256.87 19.1958C256.428 18.3679 255.908 17.2582 254.003 16.1253C252.966 15.5337 251.615 15.2274 250.475 15.2871C250.199 15.2971 249.885 15.333 249.686 15.3657C249.484 15.398 249.291 15.4381 249.107 15.4839C248.741 15.5754 248.415 15.6887 248.126 15.8091C247.547 16.0516 247.112 16.3176 246.759 16.5649C246.477 16.7642 246.302 16.9087 246.117 17.0687C245.767 17.3743 245.483 17.6778 245.289 17.8984C245.122 18.0889 244.978 18.2676 244.846 18.4392C243.894 19.7231 243.582 20.3813 243.199 21.0569C242.497 22.3572 242.105 23.1778 241.79 23.8014C241.162 25.066 240.989 25.3485 240.931 25.341C240.829 25.3008 241.286 23.9472 240.274 25.9742C239.106 28.2992 235.974 36.5049 238.823 28.8587C231.316 46.93 236.023 36.0381 235.559 37.2105C234.878 38.9827 232.234 45.2254 231.924 46.0037C231.47 47.1581 233.21 43.2062 231.382 47.7567C231.085 48.4948 227.897 55.7243 231.693 46.2877C226.539 58.8479 226.785 57.7139 225.285 62.0665C222.702 67.1213 222.371 68.3535 222.196 69.3286C222.087 69.9446 222.046 70.4192 221.453 71.8549C217.647 81.3866 218.459 78.2833 218.198 78.8231C216.598 82.2245 207.415 107.915 205.104 114.273C206.289 111.954 212.444 93.8731 214.004 89.9352C219.128 76.7196 207.285 108.74 211.236 99.2394C209.644 103.271 208.083 107.259 206.513 111.284C204.125 118.781 207.987 108.325 200.765 128.254C199.373 131.438 205.843 114.142 204.416 117.577C203.587 119.565 199.419 131.175 199.283 131.381C199.139 131.577 202.941 121.169 202.259 122.76C200.758 126.306 187.315 164.496 197.832 135.506C194.932 143.607 193.875 147.933 191.206 154.897C189.463 159.385 198.146 133.718 184.327 171.94C184.243 172.841 189.978 156.699 190.131 156.29C190.367 155.711 189.778 158.791 189.618 159.302C189.119 161.132 174.423 199.987 171.19 207.946C172.593 204.382 158.22 238.056 156.802 236.652C156.839 236.602 156.681 236.69 156.871 236.428C157.002 236.223 157.259 235.827 157.041 236.077C156.944 236.185 156.854 236.28 156.784 236.349C156.725 236.409 156.626 236.497 156.652 236.47C156.681 236.448 156.757 236.364 157.122 236.172C157.569 235.945 158.665 235.503 160.193 235.751C161.449 235.943 162.567 236.649 163.122 237.216C163.735 237.85 163.774 238.036 163.881 238.206C164.044 238.546 163.928 238.329 163.88 238.11C163.815 237.863 163.731 237.462 163.653 236.929C163.591 236.509 163.533 236.032 163.481 235.47C163.273 233.204 163.226 230.58 163.241 228.018C163.281 222.79 163.589 217.487 163.847 213.981C164.587 204.574 164.682 205.888 164.718 205.334C165.101 201.167 164.687 204.459 164.928 201.943C165.209 198.122 168.214 172.034 168.456 170.665C168.511 170.284 168.155 174.545 168.892 168.884C169.03 167.905 168.705 168.487 171.006 151.594C173.816 131.227 169.394 165.775 170.728 157.336C172.137 144.217 172.402 144.672 172.851 141.125C173.007 139.895 173.99 130.715 175.381 120.789C174.356 127.896 173.334 135.033 172.333 142.154C173.229 135.133 175.156 121.553 175.912 115.747C176.279 112.921 175.742 115.251 176.602 109.099C176.788 107.786 178.008 102.731 175.556 118.726C175.562 120.017 176.495 112.419 177.044 108.846C177.128 108.301 177.722 106.262 178.163 101.699C178.259 100.625 175.758 112.309 180.599 81.8759C180.754 80.9001 180.401 84.3193 180.554 83.3651C180.658 82.74 181.676 74.8733 181.799 74.052C181.934 73.1777 181.554 76.9365 181.718 75.8969C182.55 70.6297 183.017 63.3362 181.575 74.5128C182.007 70.831 182.433 67.1352 182.857 63.328C182.705 67.3978 183.725 57.4599 184.314 52.3165C184.945 46.9378 185.379 42.5242 185.582 39.7933C186.632 25.5918 185.837 40.2871 186.258 35.5013C187.017 26.3048 186.078 33.4013 186.886 19.5192C186.922 18.8648 186.849 22.7756 186.893 22.7319C186.915 22.6788 187.002 21.7156 187.09 18.5613C187.109 17.7791 187.127 16.8307 187.114 15.702C187.107 15.0986 187.094 14.4985 187.048 13.7261C187.028 13.4039 186.988 12.8762 186.927 12.4022C186.902 12.1975 186.847 11.8051 186.774 11.4444C186.737 11.2577 186.694 11.0609 186.639 10.8469C186.566 10.5653 186.46 10.2028 186.3 9.79439C186.089 9.32769 186.09 9.09776 185.258 7.92377C184.474 6.97126 183.108 5.30468 179.806 5.06653C178.372 4.99464 177 5.4687 176.33 5.81862C175.749 6.10935 175.312 6.41796 174.961 6.70184C174.263 7.2711 173.869 7.77908 173.693 7.99847C172.807 9.18804 172.661 9.63149 172.356 10.2295C171.884 11.2323 171.54 12.1517 171.24 12.9727C170.61 14.7165 170.04 16.5044 169.428 18.4873C170.177 16.1504 170.863 13.8926 171.989 11.1646C172.165 10.7544 172.306 10.4347 172.543 9.95744C172.811 9.45252 172.992 9.0132 173.751 8.01403C173.855 7.88306 173.91 7.81276 174.096 7.60338C174.277 7.40174 174.489 7.18372 174.756 6.94847C175.023 6.71371 175.344 6.46019 175.757 6.20293C175.964 6.07461 176.194 5.9458 176.452 5.8222C176.765 5.66997 177.265 5.469 177.772 5.34142C179.841 4.62 183.128 5.76888 184.021 6.72289C185.212 7.69037 185.794 8.84033 185.955 9.16158C186.773 10.992 186.678 11.3995 186.82 12.0884C187.082 14.1604 187.032 15.2872 187.041 16.6287C187.02 16.4406 187.001 16.2193 186.982 15.9404C186.963 15.6302 186.945 15.2836 186.923 14.9151C186.858 14.0784 186.893 13.3432 186.559 11.472C186.427 11.0079 186.452 10.367 185.511 8.68527C185.141 8.08643 184.588 7.31037 183.536 6.55497C182.722 5.86676 180.302 4.99866 178.56 5.34917C177.699 5.46327 176.857 5.79412 176.44 6.00797C176.051 6.20088 175.729 6.40393 175.454 6.60007C174.906 6.99441 174.541 7.35714 174.25 7.67548C173.447 8.58323 173.152 9.18773 172.941 9.55053C172.827 9.75935 172.722 9.96285 172.622 10.1663C172.531 10.352 172.465 10.4931 172.389 10.6583C171.804 11.9556 171.427 12.9929 171.041 14.0467C169.568 18.1704 168.416 21.8345 168.238 22.3812C166.365 28.5686 166.153 29.4265 165.625 31.2308C165.122 32.9433 164.417 35.3986 161.652 44.1814C161.152 45.7655 160.173 49.2497 159.07 52.6287C154.513 66.6396 164.73 34.0351 164.742 33.0812C164.931 32.6619 154.043 67.7452 153.597 68.9617C152.107 74.1207 158.737 53.0766 157.629 57.1384C157.335 58.4798 143.461 100.882 138.995 115.701C138.591 117.017 138.259 118.099 138.011 118.913C134.471 130.512 133.196 135.846 132.671 135.736C132.134 139.093 130.804 141.952 130.337 143.361C124.355 161.164 124.37 161.134 118.712 176.093C117.418 179.449 116.486 182.231 115.999 183.376C115.709 184.052 116.087 182.666 114.683 185.996C113.079 190.755 100.64 217.216 99.0694 218.193C98.1347 220.138 105.178 208.09 104.005 210.291C101.991 214.053 99.9851 217.406 97.5423 220.694C97.6177 220.612 97.636 220.492 98.2738 219.939C98.626 219.682 99.0626 219.223 100.531 218.8C101.864 218.319 104.606 218.8 105.754 219.816C106.886 220.682 107.229 221.392 107.43 221.731C107.651 222.152 107.704 222.326 107.761 222.488C107.857 222.783 107.854 222.828 107.857 222.833C107.841 222.778 107.783 222.108 107.774 221.505C107.748 220.232 107.796 218.746 107.868 217.27C108.015 214.323 108.264 211.224 108.542 208.091C108.948 203.665 108.63 205.907 108.812 204.012C108.86 203.433 109.655 196.256 110.221 191.805C110.476 189.764 110.679 188.219 110.664 188.458C110.652 188.674 110.509 189.972 110.304 191.815C109.814 196.236 108.922 204.181 108.355 211.312C108.071 214.906 107.874 218.281 107.883 220.707C107.885 221.279 107.902 221.848 107.929 222.228C107.952 222.625 108.015 222.944 107.981 222.748C107.967 222.684 107.952 222.608 107.882 222.399C107.847 222.298 107.807 222.19 107.741 222.038C107.663 221.861 107.559 221.649 107.41 221.404C107.073 220.914 106.599 219.998 104.825 219.082C104.033 218.686 102.921 218.43 101.993 218.454C101.021 218.473 100.387 218.658 99.8346 218.862C98.8174 219.266 98.4162 219.632 98.1584 219.831C97.8934 220.051 97.7546 220.199 97.6643 220.295C97.4769 220.499 97.4424 220.553 97.4064 220.595C97.6645 220.22 97.6745 220.182 97.3725 220.571C97.398 220.532 97.427 220.484 97.5474 220.34C97.691 220.192 97.7964 219.982 98.6027 219.414C98.8242 219.267 99.0857 219.108 99.4627 218.936C99.8835 218.745 100.428 218.551 101.119 218.446C102.572 218.15 104.803 218.718 105.925 219.651C106.982 220.456 107.407 221.216 107.614 221.571C107.857 222.016 107.927 222.232 107.992 222.411C108.147 222.893 108.097 222.843 108.08 222.657C108.055 222.455 108.024 222.09 108.005 221.639C107.965 220.757 107.966 219.587 107.995 218.527C108.055 216.394 108.199 214.631 108.306 215.304C108.8 207.597 109.659 199.706 110.545 191.843C114.587 157.162 119.257 122.383 123.538 87.5498C120.244 112.094 116.819 139.708 113.561 165.363C113.108 168.893 111.672 180.75 111.696 179.313C114.333 157.476 117.964 130.362 120.543 109.357C120.625 108.684 120.172 111.132 120.471 108.615C121.035 103.91 123.193 88.6224 123.452 86.0311C123.496 85.5827 122.22 94.2877 122.437 91.6187C122.993 84.7666 123.863 83.1464 124.574 77.273C124.832 75.1194 125.727 67.2584 126.629 58.704C127.669 49.005 128.575 38.4917 128.833 34.2149C129.709 25.9605 127.152 57.2251 127.362 54.8434C127.955 49.7121 128.493 44.5938 128.895 39.3476C129.089 36.7403 129.261 34.0745 129.299 31.2905C129.305 29.8674 129.329 28.4619 129.086 26.5103C129.01 25.9731 128.921 25.3958 128.692 24.5988C128.537 24.0995 128.425 23.7063 128 22.8828C127.616 22.2504 127.026 20.9336 124.84 19.7451C122.592 18.5033 119.708 19.0688 118.747 19.5706C117.56 20.1038 117.086 20.5389 116.665 20.8795C115.885 21.5591 115.551 21.9812 115.229 22.3551C107.577 34.0899 105.715 42.6492 101.66 52.1919C101.533 52.5177 102.494 49.6523 100.886 53.753C99.6343 56.9538 98.8662 59.0529 98.2406 60.8084C97.4986 62.8985 97.0154 64.3617 96.2967 66.307C94.911 70.0398 89.9 83.3043 89.3114 85.0916C89.2372 85.3164 90.4219 82.7076 90.5792 82.304C92.8183 76.5586 93.3579 74.4144 93.5517 73.8892C94.2801 71.9275 95.0986 70.0327 95.7829 68.2072C96.7608 65.5988 97.313 63.9387 98.4528 60.8893C98.5983 60.5007 98.7519 60.0933 98.9149 59.6642C99.9341 56.9843 99.0963 59.6528 100.094 57.0277C100.448 56.0666 104.07 45.6624 104.849 44.8293C104.915 44.759 102.355 51.2949 98.7012 60.9841C89.325 85.8063 72.6342 131.198 70.3096 137.233C72.9366 130.005 75.5726 122.754 78.2086 115.515C72.8741 130.223 66.0476 147.739 66.0281 149.152C63.585 155.757 61.1204 162.419 58.672 169.011C56.7523 174.177 54.8681 179.239 52.9346 184.356C51.9691 186.909 51.0039 189.445 50.0266 191.939C49.5337 193.194 49.0454 194.421 48.5443 195.616C48.3024 196.192 48.0484 196.778 47.827 197.247C47.7159 197.484 47.6058 197.695 47.5875 197.725C47.5983 197.719 47.5683 197.71 47.9 197.3C48.1801 197.067 48.1421 196.697 49.9696 195.804C50.7797 195.37 53.1409 195.094 54.6528 195.905C56.2105 196.689 56.6175 197.412 56.9556 197.85C60.5595 172.989 65.0453 133.433 66.9153 100.887C67.2357 94.0214 66.976 86.542 62.648 79.2305C58.8151 73.5519 56.4161 72.8932 54.0293 71.6985C51.6349 71.0543 47.0569 67.9337 37.2319 72.8308C36.6752 73.154 36.1072 73.5243 35.5704 73.9109C36.079 73.5285 36.638 73.1459 37.2125 72.7977C41.9216 69.9067 48.1677 69.0918 53.6622 71.316C50.6687 69.9521 43.6322 68.7133 37.1125 72.6269C23.48 82.4009 19.101 99.2001 14.6744 105.858C13.7701 107.458 13.066 108.492 12.6796 108.997C12.5875 109.117 12.4851 109.224 12.3125 109.394C12.1613 109.542 11.8804 109.801 11.777 109.838C11.7604 109.841 11.7609 109.823 11.848 109.753C11.936 109.688 12.0901 109.556 12.5754 109.376C13.0092 109.213 13.9881 108.992 15.1062 109.276C16.2513 109.559 16.9996 110.219 17.3004 110.561C17.6154 110.922 17.6434 111.036 17.6421 111.006C17.6334 110.974 17.5717 110.806 17.5034 110.551C17.3642 110.042 17.2021 109.228 17.0659 108.229C16.7242 105.622 16.6295 103.514 16.5309 101.908C16.3672 98.9057 16.2302 97.3207 16.1433 94.4188C16.0294 90.6141 16.0619 86.33 16.0499 85.2067C16.0396 84.3488 15.9103 83.9913 15.8951 81.9045C15.8763 75.31 16.1732 80.6636 15.8604 74.1056C15.8159 75.7107 15.7785 77.2898 15.7478 78.8894C15.7538 70.9369 15.9468 60.0272 15.5244 71.7776C15.466 73.7849 15.624 72.0618 15.594 73.561C15.2777 92.6189 15.7697 100.556 15.7414 101.936C15.7455 102.231 15.7383 102.216 15.7216 101.937C15.4804 99.5154 15.0762 77.3117 15.7569 64.7841C15.5681 59.4743 17.6827 29.753 17.8537 28.7512C17.9187 27.3762 17.342 32.4455 17.7855 25.7692C17.7453 24.8802 18.9006 17.0357 19.0369 7.49555C18.7288 6.01823 19.1696 4.01762 15.8168 1.31635C13.9854 0.0402211 11.4897 0.214033 10.3271 0.674961C9.05479 1.12478 8.34753 1.66152 7.73759 2.13671C5.43873 4.10859 4.77844 5.62318 4.0464 6.78921C3.39187 7.93685 2.96751 8.80748 2.7491 9.26433C2.33133 10.2084 2.51894 9.67771 4.28104 6.66761C4.77289 6.0088 5.23108 4.57432 7.84852 2.27509C8.40912 1.83873 9.06602 1.34234 10.2204 0.904749C11.2828 0.476195 13.5137 0.148369 15.4287 1.29294C17.2832 2.41264 17.9115 3.85927 18.2937 4.84524C18.6618 5.87585 18.7807 6.71711 18.852 7.51094C18.8099 15.6155 17.8038 22.5626 17.6356 25.526C17.7858 21.0474 18.6666 15.4647 18.7572 7.51883C18.4851 6.11781 18.8697 4.31998 15.931 1.7067C14.325 0.416781 11.7776 0.390937 10.5667 0.849763C9.24981 1.2749 8.51746 1.82068 7.87726 2.31095C3.01955 7.08796 2.54861 10.2502 0.970253 13.1137C-0.306751 15.8702 -1.14559 17.8637 -1.41899 18.5317C-5.90918 29.4746 7.73903 -2.33081 -2.52762 22.2949C-9.76308 41.2246 -3.2098 23.3628 -6.07978 30.6081C-6.36568 31.3384 -6.83788 32.5998 -7.43991 34.2438C-10.1718 41.6522 -15.1273 56.1145 -15.2431 55.5491C-17.8711 62.9052 -16.1696 58.6516 -16.4771 59.5674C-16.7879 60.4676 -21.9408 74.931 -23.4889 79.6742C-23.6761 80.2458 -22.8786 78.5181 -23.0672 79.112C-23.4399 80.2604 -28.2914 94.2517 -28.4976 94.8131C-28.6323 95.171 -27.6421 91.7717 -28.1524 93.1348C-28.7459 94.7136 -33.3219 108.211 -33.6191 108.94C-34.0458 109.959 -28.3117 93.3456 -29.4329 96.0508C-32.0199 103.739 -36.3998 116.194 -38.2679 121.215C-37.8026 119.981 -35.2631 112.551 -34.3949 109.963C-35.071 111.094 -40.5081 127.061 -38.4447 121.674C-39.7348 125.102 -38.9867 122.715 -39.7564 124.636C-39.9579 125.142 -41.6429 130.074 -42.0097 131.005C-42.0615 131.128 -40.4252 126.002 -40.8248 127.004C-41.5487 128.818 -46.6153 143.781 -47.0055 145.011C-48.1061 148.478 -43.8758 136.32 -43.4194 135.335C-43.3541 135.198 -46.6674 145.638 -46.7024 145.803C-46.7061 146.477 -42.9278 134.891 -43.1938 136.27C-44.1271 139.139 -45.0589 142.005 -45.9907 144.871C-42.0647 133.926 -35.2245 113.53 -33.2189 108.352C-38.8534 124.647 -44.6497 141.732 -44.1666 141.856C-43.9636 141.911 -41.452 134.91 -41.4944 135.201C-41.6669 136.3 -45.1876 146.006 -45.3006 146.37C-45.3908 146.671 -45.4262 146.811 -45.4158 146.814C-45.4158 146.814 -45.4158 146.814 -45.4158 146.814C-45.3088 146.847 -40.4954 132.946 -40.208 132.262C-39.7234 131.119 -41.4798 137.44 -41.3985 137.457C-41.3092 137.245 -37.8506 127.357 -38.8528 130.749C-39.8679 134.182 -42.818 142.865 -42.9079 143.177C-43.3892 144.861 -38.1469 129.698 -37.9432 129.261C-37.8391 129.036 -40.4618 137.239 -40.4993 137.492C-40.5245 137.709 -38.3213 131.545 -37.3509 129.147C-36.6283 127.359 -38.3563 132.693 -38.0223 131.764C-37.7843 131.097 -32.9017 116.757 -32.639 116.049C-32.2541 115.008 -33.2784 118.411 -33.0811 117.933C-32.7993 117.25 -31.2646 112.607 -31.4241 113.223C-31.5471 113.687 -37.2457 131.795 -37.0932 131.72C-36.8303 131.574 -30.7963 112.41 -36.0651 130.364C-36.1038 130.494 -37.6218 134.778 -37.6591 134.903C-38.4243 137.609 -33.5088 123.865 -39.2944 140.747C-28.3585 109.407 -37.6763 136.937 -35.77 132.396C-35.0345 130.64 -30.8351 118.48 -30.7962 118.429C-31.0427 119.668 -32.4888 123.511 -32.8587 124.85C-33.0658 125.598 -29.1812 114.748 -29.9098 117.24C-30.2894 118.533 -34.2478 130.088 -34.399 130.57C-35.8556 135.186 -33.8331 129.606 -34.1026 130.637C-34.2829 131.326 -36.6528 138.303 -36.706 138.489C-36.7886 138.791 -33.3638 129.374 -32.6231 127.427C-32.059 125.946 -33.8923 131.604 -33.5128 130.566C-31.2269 124.305 -27.0031 110.756 -30.9169 123.867C-31.1537 124.661 -32.8346 129.556 -32.8762 129.699C-33.7642 132.769 -30.6868 123.771 -30.0197 122.193C-28.8782 119.494 -33.4007 132.405 -29.5919 121.684C-32.2149 129.808 -33.7521 134.308 -37.0045 143.75C-27.9974 117.608 -24.33 108.542 -34.2397 137.601C-31.1023 128.355 -31.1607 129.482 -30.2152 126.721C-29.6293 125.007 -25.3513 111.517 -26.7953 117.873C-26.9778 118.672 -29.8561 126.781 -28.8208 124.286C-22.2017 104.734 -28.5749 123.907 -28.5586 123.934C-28.1069 123.81 -12.0962 75.9742 -9.15731 67.8484C-5.7974 58.3703 -2.50775 50.0932 -1.76746 48.039C0.654061 41.3128 -1.50386 46.8278 -1.01965 45.3087C-0.826834 44.7086 0.384373 41.4409 1.82894 37.67C4.09779 31.696 7.04969 24.5058 7.27983 23.9464C8.68328 20.3143 7.00718 23.9222 7.15881 23.5272C7.5721 22.4372 8.45509 20.2048 9.69943 17.3871C10.3146 16.0011 11.0294 14.4483 11.812 12.9557C12.532 11.5236 13.6661 9.84851 13.8693 9.78582C13.9198 9.73168 13.9283 9.80975 13.3915 9.99176C13.1216 10.0734 12.6609 10.1738 12.0353 10.1024C11.4156 10.0408 10.6915 9.73927 10.2378 9.38397C9.31629 8.63581 9.28618 8.19089 9.23063 8.10793C9.19992 8.00737 9.23705 8.12816 9.24859 8.31041C9.13815 13.6064 8.26017 21.044 8.06585 24.0137C7.96924 23.7415 9.28339 8.41376 8.26135 17.9715C7.04175 29.138 7.55522 29.8726 7.55218 30.1437C5.56619 54.0677 4.6169 78.1898 5.48097 102.304C5.75814 106.421 5.48758 109.949 7.52589 115.5C7.87722 116.252 8.29087 117.154 9.3735 118.248C10.329 119.365 13.0472 120.527 15.0065 120.07C18.6947 119.147 19.2435 117.731 20.2745 116.776C22.0054 114.748 23.0085 112.991 24.0618 111.165C30.2065 100.036 35.0977 87.1428 42.6087 82.0164C46.8478 79.5776 51.7087 81.1099 54.0281 86.1752C53.8793 86.1188 52.9093 83.8485 50.8368 82.3625C48.8762 80.8247 45.3776 80.5044 42.6803 82.1387C38.8831 84.4383 35.8038 89.7394 35.7028 89.8147C35.3473 90.4512 35.8915 89.594 37.1295 87.9023C38.3359 86.277 40.4492 83.5864 42.7453 82.2498C45.9951 80.3051 50.6315 80.8681 53.1056 85.1061C55.729 89.3156 56.0089 95.77 55.7405 100.221C55.5413 103.747 55.382 106.33 55.3191 107.522C55.4561 105.066 55.5792 102.676 55.6967 100.218C55.8164 97.6407 55.7454 95.0929 55.4021 92.7056C55.5678 94.6041 55.6608 97.1746 55.4679 100.205C54.8623 110.205 54.0132 123.786 52.9764 133.514C52.5379 137.674 53.1583 129.664 53.1308 129.804C52.5806 134.516 51.9351 142.04 52.6575 136.438C51.3627 147.871 51.6969 146.259 50.7577 155.044C50.7055 155.508 50.9982 151.689 50.161 158.667C49.7875 161.898 47.7094 179.39 47.3289 181.715C47.1618 182.691 47.6843 173.743 48.2637 172.695C50.2661 153.694 49.1773 166.684 50.0183 159.285C50.1218 158.171 49.6696 160.734 51.7177 142.22C50.9575 145.675 48.8984 167.087 48.3846 170.733C47.4031 178.231 50.788 147.161 51.6278 141.488C51.0034 144.108 51.8198 139.282 52.4486 132.349C53.1224 124.76 52.7168 128.05 53.071 123.951C53.9842 112.731 53.8677 117.399 54.3064 108.124C54.3391 113.253 54.7512 107.482 55.0598 100.18C55.3618 95.0828 54.2969 89.7316 53.3117 87.7624C54.6325 91.1874 54.9687 95.6335 54.68 100.158C54.2577 106.903 53.7587 113.643 53.1915 120.382C53.2094 119.708 53.2264 119.038 53.2431 118.362C53.0036 121.455 52.7491 124.554 52.4785 127.678C52.5573 127.184 52.636 126.689 52.7144 126.191C51.0623 142.179 50.8128 146.121 50.7008 147.397C49.8335 155.798 48.8042 164.752 47.7321 173.826C47.1989 178.368 46.6568 182.907 46.1714 187.432C45.9314 189.69 45.6988 191.985 45.5247 194.3C45.443 195.408 45.364 196.63 45.3368 197.914C45.3309 198.196 45.3269 198.584 45.3306 198.927C45.3348 199.282 45.3411 199.59 45.3678 200.052C45.3983 200.502 45.4163 200.825 45.5289 201.529C45.587 201.863 45.6398 202.144 45.7759 202.623C45.9501 203.197 46.1793 203.892 46.7933 204.806C47.1924 205.334 47.6116 206.046 49.1476 206.917C50.5163 207.799 53.2892 207.794 54.2456 207.344C54.8445 207.15 55.3993 206.846 55.6673 206.676C55.9548 206.496 56.1875 206.322 56.3853 206.16C56.8115 205.803 56.9537 205.639 57.1359 205.444C57.4961 205.041 57.6109 204.87 57.7638 204.659C57.9185 204.438 57.9799 204.341 58.0692 204.201C58.1533 204.067 58.221 203.954 58.2752 203.863C58.5117 203.461 58.6577 203.187 58.8109 202.899C59.1193 202.312 59.4368 201.672 59.9197 200.577C60.8953 198.362 62.4858 194.377 65.7123 185.548C67.7759 179.891 65.6105 185.163 68.0223 178.793C69.1234 176.289 69.8191 174.607 70.3085 173.342C71.2984 170.787 71.3084 170.251 71.9025 168.651C74.4251 161.86 76.0797 157.737 76.3086 157.124C79.436 148.742 83.9713 136.437 87.403 127.237C87.4681 127.066 85.8291 131.912 88.0075 125.912C88.7748 123.802 95.161 104.745 101.518 88.3567C99.9557 92.6502 98.397 96.9472 96.8406 101.246C98.6381 96.1663 112.049 61.0299 108.97 69.693C107.06 75.0007 101.842 87.7482 101.683 89.2978C103.052 85.5401 106.474 76.3533 110.605 65.5252C115.105 54.0997 120.81 37.8643 125.35 30.8585C125.442 30.733 125.571 30.6645 125.115 31.045C124.843 31.2187 124.473 31.6602 122.923 32.0546C122.12 32.2395 120.932 32.2884 119.754 31.9047C118.611 31.5483 117.722 30.8503 117.273 30.3824C116.318 29.3503 116.238 28.888 116.101 28.61C115.997 28.3398 115.977 28.2346 115.965 28.189C115.947 28.1042 115.975 28.2389 115.99 28.3941C116.069 29.1271 116.082 30.2945 116.062 31.3806C116.022 33.5616 115.885 35.7352 115.76 37.5524C115.499 41.2373 115.252 43.8475 115.192 44.6836C115.14 45.4212 115.67 40.9389 115.595 41.9546C115.571 42.5836 114.647 51.9948 114.049 57.2993C113.889 58.7766 113.76 59.9624 113.716 60.4434C113.647 61.2022 113.935 58.9916 114.158 57.3114C114.319 56.0787 114.451 55.0919 114.445 55.3189C114.441 55.4107 114.369 56.1344 114.242 57.3208C113.72 62.3683 112.132 75.633 111.886 76.524C112.549 71.7283 114.075 58.1846 113.112 65.2546C112.99 66.1668 112.528 70.9149 112.371 72.0211C111.389 78.9725 112.843 67.0951 113.938 57.2868C114.466 52.5739 114.894 48.3845 115.043 46.8339C114.697 50.0363 114.304 53.5442 113.873 57.2796C111.726 75.8229 108.789 99.7399 106.288 118.395C105.256 127.471 108.213 104.989 107.006 115.255C104.5 136.546 106.098 120.888 105.996 121.546C105.184 126.812 103.582 144.888 103.039 144.839C102.134 152.567 102.519 150.068 101.066 160.954C101.212 159.498 101.352 158.093 101.498 156.641C100.034 166.118 98.2561 184.039 97.7732 190.366C97.632 192.131 97.5876 192.949 97.6458 192.549C97.7337 191.946 97.8305 191.217 97.9355 190.385C98.686 184.405 99.7893 173.857 99.9221 172.844C100.14 171.185 101.257 166.553 103.121 148.072C104.444 140.578 99.6631 177.312 102.032 160.62C101.373 165.709 99.8547 177.925 98.4382 190.443C97.5728 198.135 96.764 205.983 96.2951 212.434C96.0614 215.695 95.9066 218.542 95.9112 221.077C95.9239 222.356 95.9373 223.465 96.1655 224.889C96.2228 225.221 96.3069 225.652 96.4698 226.168C96.6847 226.721 96.7493 227.307 97.8426 228.605C98.3048 229.144 99.4654 230.082 100.876 230.363C102.367 230.679 103.564 230.35 104.309 230.04C105.686 229.413 106.019 228.948 106.379 228.625C106.893 228.083 106.653 228.384 106.553 228.551C106.499 228.636 106.48 228.688 106.612 228.578C106.742 228.47 107.017 228.196 107.325 227.801C107.759 227.264 109.291 225.462 112.122 220.539C115.031 215.532 107.717 227.482 108.984 225.164C115.16 220.032 140.372 155.412 150.755 119.344C153.484 110.564 155.678 103.669 156.878 99.8984C157.273 98.6587 157.019 99.0765 157.404 97.8706C158.586 94.1423 163.112 80.6363 165.207 73.9498C160.962 87.829 169.637 61.0086 171.719 54.0987C174.909 43.6509 174.494 44.2205 175.808 39.6885C176.269 38.0835 176.756 36.3951 177.266 34.6293C178.37 30.8118 179.562 26.7449 180.859 22.6066C181.502 20.5692 182.186 18.447 182.878 16.6516C182.972 16.4089 183.06 16.1929 183.138 16.0072C183.219 15.8145 183.312 15.606 183.372 15.4838C183.437 15.3456 183.509 15.2316 183.449 15.3309C183.43 15.361 183.398 15.4103 183.343 15.4844C183.276 15.569 183.25 15.6181 183.02 15.8576C182.807 16.0691 182.49 16.3711 181.887 16.6966C181.333 17.0743 179.251 17.6305 177.679 16.9285C176.285 16.3522 175.73 15.5954 175.373 15.1003C175.287 14.9736 175.218 14.8585 175.16 14.7546C175.117 14.6778 175.091 14.6262 175.062 14.5682C175.006 14.4562 174.965 14.3603 174.932 14.2781C174.801 13.9441 174.794 13.8511 174.784 13.8226C174.771 13.758 174.795 13.9012 174.808 14.0514C174.824 14.2275 174.836 14.4173 174.845 14.631C174.855 14.8492 174.863 15.1038 174.867 15.3217C174.833 23.5031 174.063 32.2977 173.752 38.9803C173.681 40.4517 173.544 42.4256 173.469 43.6956C173.227 42.9711 170.941 67.642 169.317 79.064C168.116 87.9334 166.029 100.792 167.517 88.7372C165.42 104.077 163.078 120.143 161.096 134.536C160.768 136.914 161.343 133.658 160.781 137.714C160.729 138.082 160.531 138.575 160.05 142.055C156.128 170.84 158.274 156.849 157.647 162.247C157.304 165.297 157.05 167.518 156.856 169.141C158.958 152.357 161.671 133.008 162.38 127.856C162.033 132.29 157.312 164.997 156.281 174.661C156.244 174.995 156.541 173.852 156.501 174.191C156.5 174.198 156.499 174.205 156.498 174.212C156.019 177.783 153.449 200.807 153.788 196.076C153.872 194.729 154.974 184.199 156.544 171.634C156.092 175.045 156.229 172.474 156.147 173.076C155.149 180.299 153.327 198.199 152.814 204.574C152.686 206.029 152.585 205.908 152.563 206.146C152.096 211.885 152.594 209.646 151.83 215.517C151.414 226.194 153.489 195.684 153.675 198.021C153.695 198.512 153.046 204.801 152.394 213.545C152.074 217.961 151.758 222.855 151.658 228.072C151.617 230.591 151.616 233.297 151.817 236.09C151.87 236.816 151.937 237.508 152.018 238.167C152.097 238.817 152.247 239.782 152.415 240.528C152.504 240.926 152.59 241.273 152.719 241.704C152.884 242.252 153.079 242.793 153.342 243.349C153.474 243.626 153.623 243.908 153.799 244.194C153.886 244.337 153.981 244.481 154.084 244.626C154.194 244.783 154.398 245.05 154.589 245.262C155.353 246.143 156.68 247.08 158.273 247.332C160.115 247.646 161.744 247.041 162.685 246.512C163.43 246.1 164.018 245.64 164.551 245.16C165.138 244.623 165.416 244.312 165.762 243.927C166.094 243.55 166.413 243.159 166.726 242.752C167.369 241.908 167.733 241.375 168.222 240.634C168.455 240.28 168.686 239.917 168.915 239.546C169.116 239.223 169.297 238.926 169.486 238.61C171.064 235.947 172.213 233.705 173.232 231.694C175.183 227.809 176.3 225.381 176.348 225.446C176.408 225.228 176.778 224.315 177.504 222.545C179.227 218.594 186.189 201.401 187.38 198.35C187.585 197.854 187.793 198.166 188.037 197.544C188.716 195.937 196.476 174.621 199.518 166.684C197.993 170.994 196.446 175.332 194.896 179.63C204.456 153.657 203.004 157.687 199.961 166.389C199.803 166.823 199.66 167.249 199.511 167.663C197.135 174.391 193.99 183.028 193.962 183.162C193.973 183.696 209.993 139.593 206.641 147.975C206.193 149.148 198.929 169.608 202.395 159.431C203.007 157.651 207.775 144.546 207.994 143.856C209.522 139.189 199.023 167.775 200.075 164.191C202.787 157.325 205.898 148.351 208.793 140.403C210.116 136.771 210.572 135.949 210.734 135.503C213.167 128.808 211.671 132.518 212.472 130.286C212.883 129.138 217.932 116.028 216.596 118.364C232.595 75.1918 221.149 106.495 211.676 133.095C214.849 124.711 220.631 108.265 223.376 100.895C224.37 98.2198 223.946 99.8253 225.595 95.4429C226.932 91.9837 229.896 83.577 233.802 74.475C240.827 58.6343 248.482 38.8215 251.423 32.0537C248.512 38.7901 249.179 36.7279 251.416 31.527C253.674 26.4938 251.999 30.7965 252.459 29.8299C252.539 29.6698 252.918 28.81 253.502 27.6195C253.782 27.0497 254.159 26.3272 254.421 25.9186C254.474 25.8333 254.53 25.7612 254.474 25.8311C254.448 25.8611 254.39 25.939 254.196 26.1215C254.1 26.2107 253.971 26.3219 253.788 26.4545C253.53 26.6382 253.143 26.8885 252.538 27.1061C252.229 27.2143 251.893 27.3081 251.443 27.3679C250.912 27.4379 250.287 27.4314 249.662 27.3022C249.037 27.1761 248.426 26.9268 247.927 26.6212C247.662 26.4582 247.491 26.3293 247.333 26.2014C247.173 26.072 247.031 25.9409 246.904 25.8122C246.395 25.2932 246.133 24.837 245.965 24.5031C245.845 24.2573 245.786 24.0947 245.738 23.9526C245.645 23.6686 245.635 23.5666 245.627 23.5272C245.619 23.4827 245.622 23.4874 245.626 23.5293C245.724 24.3839 245.803 25.2404 246.304 26.6328C246.581 27.3565 246.977 28.1935 247.747 29.098C248.483 29.9831 249.578 30.7081 250.283 31.034C251.782 31.6774 251.479 31.5789 251.076 31.3066C250.655 31.0013 250.51 30.7036 250.548 30.7694C250.831 31.1505 251.369 33.7556 251.53 35.6968C251.932 39.8905 251.902 43.774 251.903 45.1911C251.956 35.1885 251.095 32.2858 251.314 32.8522C251.506 33.3708 252.268 38.1311 252.171 46.6858C252.238 44.2282 252.264 41.7974 252.211 39.4277C252.286 41.4532 252.327 44.0092 252.312 46.859C252.263 57.674 252.314 71.9154 252.195 76.5307C252.173 77.4481 252.063 74.1494 252.05 74.6666C251.955 79.8005 251.826 97.2834 251.743 98.0904C251.691 98.7781 251.708 91.3258 251.598 94.0898C251.575 94.6731 251.643 101.853 251.401 108.92C251.311 111.542 251.218 109.959 251.192 110.619C250.959 116.118 251.312 112.879 250.911 122.928C250.589 130.28 250.138 135.748 249.558 145.872C251.066 112.571 249.925 140.601 248.67 154.437C248.605 155.167 248.551 155.445 248.473 155.964C248.306 157.057 248.065 159.127 247.317 168.077C250.303 139.722 246.881 176.2 246.031 183.652C245.989 184.068 246.144 184.188 245.761 187.879C245.727 188.195 245.669 187.709 245.298 191.129C241.683 223.359 244.061 202.782 243.496 208.904C243.255 211.492 241.298 227.229 240.9 231.544C240.807 232.545 240.947 232.067 240.61 235.942C240.459 237.775 240.312 239.674 240.248 241.566C240.221 242.473 240.198 243.482 240.28 244.65C240.297 244.89 240.339 245.321 240.392 245.67C240.421 245.861 240.446 246.014 240.496 246.258C240.552 246.525 240.622 246.807 240.721 247.118C240.94 247.586 241.053 248.838 243.064 250.429C244.247 251.412 246.647 251.747 247.706 251.433C248.866 251.193 249.616 250.736 250.156 250.354C253.093 247.906 253.202 246.694 254.006 245.415C254.637 244.201 255.119 243.128 255.548 242.135C255.722 241.648 255.778 241.458 258.78 233.492C259.614 231.248 260.569 228.736 259.477 231.955C258.724 234.148 257.795 236.745 256.66 239.609C256.086 241.05 255.465 242.559 254.705 244.177C254.322 244.986 253.91 245.825 253.348 246.786C252.726 247.739 252.271 248.848 250.222 250.444C249.294 250.985 248.327 251.991 245.233 251.523C243.898 251.277 242.571 250.269 242.195 249.836C241.656 249.284 241.328 248.762 241.091 248.315C240.834 247.814 240.767 247.608 240.672 247.35C240.585 247.103 240.519 246.875 240.464 246.66C240.347 246.191 240.309 245.947 240.265 245.666C240.223 245.391 240.193 245.125 240.168 244.862C240.15 244.654 240.135 244.448 240.123 244.24C240.112 244.032 240.103 243.823 240.097 243.61C240.092 243.42 240.089 243.253 240.087 243.071C240.078 241.567 240.144 240.356 240.226 239.01C240.389 236.464 240.623 234.016 240.854 231.661C241.332 226.876 241.813 222.531 242.176 218.828C242.748 213.088 241.99 219.246 241.126 227.069C240.702 230.975 240.25 235.367 240.027 238.98C239.915 240.847 239.855 242.5 239.925 244.034C240.119 245.578 239.781 247.044 241.845 249.725C242.135 250.047 242.259 250.147 242.163 250.057C242.073 249.969 241.787 249.685 241.491 249.283C241.193 248.886 240.896 248.365 240.698 247.895C240.555 247.558 240.437 247.209 240.345 246.87C240.006 245.542 240.011 244.751 239.98 244.217C239.963 243.669 239.972 243.389 239.999 243.869C240.007 243.989 240.017 244.154 240.034 244.371C240.052 244.599 240.067 244.819 240.124 245.283C240.195 245.74 240.199 246.118 240.558 247.262C240.739 247.66 240.933 248.819 242.581 250.296C243.604 251.28 245.942 251.985 247.417 251.673C248.746 251.47 249.642 250.945 250.263 250.502C250.343 250.444 250.423 250.384 250.503 250.322C253.745 247.356 253.932 245.714 255.083 243.588C256.041 241.535 256.931 239.39 257.833 237.121C259.604 232.649 261.341 227.844 262.802 223.46C263.023 222.822 265.104 215.79 264.983 216.088C264.885 216.395 261.214 227.036 261.668 225.44C261.719 225.287 264.033 218.475 264.26 217.593C264.562 216.475 264.889 213.324 265.338 211.905C265.528 211.306 265.673 210.858 265.785 210.525C266.344 208.856 265.995 210.265 266.652 208.233C268.323 203.078 273.942 185.217 274.358 184.706C273.415 187.641 272.459 190.612 271.515 193.546C276.884 177.185 274.704 184.185 275.502 181.885C276.364 179.398 275.935 180.041 277.721 174.513C278.106 173.309 285.705 150.234 285.654 150.686C281.336 163.403 283.134 158.754 282.944 159.343C282.228 161.585 281.157 164.394 280.177 167.4C273.3 188.514 280.473 167.296 278.9 172.298C278.356 174.025 277.124 177.4 276.892 178.133C276.143 180.492 276.277 180.6 275.751 182.168C274.522 185.835 275.707 181.471 275.6 181.76C274.391 185.003 270.345 197.963 273.207 190C271.717 194.85 271.244 195.326 270.111 199.18C267.848 206.867 271.519 195.449 272.561 192.383C276.31 181.367 277.27 178.039 282.428 162.401C284.285 156.77 286.617 150.136 287.482 147.532C288.023 145.888 292.672 130.18 293.582 129.988C295.513 123.918 298.173 114.298 300.308 108.124C300.546 107.434 300.746 106.872 300.915 106.408C302.161 102.987 301.905 104.408 302.076 103.94C302.366 103.135 304.677 96.4535 305.535 94.3155C306.553 91.7842 306.144 92.9981 307.77 89.2179C308.257 88.1153 308.801 87.1038 308.893 86.9997C308.896 86.9956 308.878 87.0232 308.826 87.0866C308.78 87.1416 308.681 87.2648 308.455 87.4691C308.342 87.5694 308.201 87.686 308.017 87.8153C307.766 87.9904 307.432 88.192 306.982 88.3748C306.276 88.7328 304.171 89.0463 302.663 88.3219C301.328 87.7535 300.597 86.8249 300.351 86.4752C300.074 86.0815 299.949 85.804 299.871 85.6231C299.757 85.3467 299.746 85.2576 299.746 85.2574C299.772 85.3129 299.859 85.8769 299.899 86.2682C299.946 86.7103 299.977 87.0508 300.008 87.4C300.116 88.6623 300.186 88.8938 300.202 89.4272C300.262 100.61 299.897 97.8284 299.802 98.8279C299.783 98.97 299.764 99.1911 299.746 99.5506C299.757 102.206 297.575 140.555 296.863 148.622C297.144 145.338 297.422 142.065 297.697 138.779C297.489 144.669 296.769 150.881 297.082 151.013C296.485 152.169 295.988 164.331 295.714 167.975C295.607 169.403 295.526 169.296 295.395 171.092C294.882 178.114 293.811 193.978 293.497 197.774C293.412 198.8 293.344 199.579 293.29 200.158C293.099 202.216 293.073 201.907 293.149 200.148C293.405 194.174 294.883 171.167 295.035 168.749C294.673 173.991 292.827 198.645 292.572 200.107C292.556 200.201 292.546 200.204 292.543 200.105C292.53 199.814 292.593 198.409 292.749 195.68C292.901 193.012 293.474 188.266 293.59 186.789C294.378 176.623 293.597 184.612 293.634 183.813C293.7 182.446 294.379 175.785 294.479 174.027C294.513 173.442 294.058 177.2 294.739 167.532C294.301 171.576 292.921 191.966 292.345 200.09C292.243 201.528 292.17 202.518 292.124 203.064C292.018 204.339 292.199 196.303 290.906 219.659C290.888 219.39 290.87 219.122 290.853 218.848C290.635 221.941 290.417 225.053 290.249 228.252C290.168 229.853 290.094 231.467 290.082 233.229C290.081 234.126 290.081 235.008 290.18 236.198C290.242 236.808 290.278 237.441 290.6 238.642C290.857 239.341 290.852 240.056 292.328 241.903C292.985 242.719 294.75 244.103 296.785 244.381C298.91 244.685 300.259 244.162 301.194 243.746C310.269 239.057 313.806 232.474 318.005 226.696C317.124 227.888 312.543 234.147 318.111 226.148C321.135 221.551 319.07 225.061 319.354 224.638C320.098 223.527 323.98 217.476 328.805 208.708C341.83 185.039 364.25 142.329 370.059 131.991C370.974 130.327 372.497 127.596 374.111 124.775C377.151 119.405 380.624 113.867 381.008 113.34C381.475 112.623 382.129 111.631 382.785 110.762C382.953 110.54 383.112 110.342 383.223 110.213C383.318 110.09 383.475 109.98 383.095 110.295C382.964 110.395 382.859 110.483 382.501 110.695C382.325 110.795 382.158 110.887 381.848 111.02C381.524 111.157 381.136 111.296 380.614 111.404C379.987 111.528 379.273 111.602 378.326 111.477C377.351 111.349 376.316 110.962 375.493 110.417C373.798 109.256 373.339 108.164 373.047 107.582C372.556 106.394 372.645 106.214 372.604 106.072C372.594 105.963 372.603 106.029 372.606 106.155C372.933 115.256 371.048 129.653 370.634 133.155C370.237 136.219 370.449 133.294 370.112 136.005C369.789 138.557 370.28 135.937 370.188 136.696C369.915 138.991 368.871 146.753 367.415 156.313C364.886 172.922 361.68 194.705 360.753 201.963C361.664 194.999 367.048 160.476 367.068 161.18C367.062 161.311 365.926 169.733 365.614 171.476C365.32 174.347 363.48 184.155 362.789 189.496C362.712 190.102 363.269 187.76 361.94 197.321C361.487 200.589 360.087 209.191 359.09 217.933C358.592 221.402 357.53 229.176 356.371 238.542C355.792 243.233 355.177 248.406 354.635 253.687C354.363 256.355 354.112 258.986 353.916 261.738C353.815 263.198 353.736 264.5 353.704 266.049C353.695 266.785 353.68 267.558 353.767 268.674C353.793 268.977 353.827 269.287 353.884 269.635C353.987 270.184 354.054 270.747 354.554 271.859C355.001 272.73 356.072 274.919 359.387 275.694C362.819 276.308 364.82 274.529 365.549 273.837C366.429 272.94 366.682 272.43 366.975 271.933C374.861 256.588 379.709 243.889 380.771 242.004C380.838 241.891 377.182 250.556 379.793 244.763C383.254 237.049 379.873 243.816 383.693 234.791C383.833 234.46 384.489 232.925 385.47 230.628C388.676 223.124 395.071 208.051 395.35 207.445C398.804 199.899 389.595 221.963 389.751 221.655C390.146 220.916 397.903 202.661 398.202 201.908C398.485 201.191 391.893 215.966 399.566 198.108C398.735 200.179 397.912 202.228 397.075 204.311C400.705 195.907 400.833 195.024 401.68 192.982C404.32 186.622 407.532 179.896 411.448 169.582C412.485 166.853 410.476 171.264 410.604 170.919C411.834 167.632 413.951 163.685 415.737 158.725C415.878 158.344 410.893 169.543 419.306 149.855C418.747 151.233 418.204 152.575 417.647 153.953C418.884 151.185 427.491 131.32 428.666 128.662C432.054 120.855 428.855 127.571 432.346 119.777C431.521 121.925 432.896 118.998 434.732 115.032C437.275 109.421 440.844 102.266 440.37 102.964C440.717 102.459 441.594 100.908 442.275 100.038C442.331 99.9673 442.384 99.9195 442.298 100.013C442.266 100.046 442.155 100.161 441.941 100.325C441.819 100.416 441.741 100.479 441.471 100.639C441.216 100.787 440.877 100.958 440.417 101.105C439.706 101.442 437.204 101.544 435.797 100.617C435.072 100.21 434.534 99.6913 434.204 99.2904C433.933 98.9628 433.755 98.6748 433.627 98.4402C433.364 97.9332 433.347 97.8055 433.296 97.6582C433.257 97.5249 433.255 97.5024 433.254 97.5016C433.303 97.6916 433.365 99.1172 433.327 100.367C433.175 105.749 432.511 112.715 432.026 118.302C431.848 120.295 431.68 122.155 431.531 123.759C430.924 130.299 429.532 143.608 429.347 145.686C429.125 148.212 429.408 147.475 429.016 152.035C428.904 153.338 427.442 166.913 426.433 178.844C426.239 181.159 426.089 186.038 426.623 181.76C427.543 174.435 428.629 160.494 428.818 160.699C429.03 160.928 427.029 179.641 426.517 184.678C424.172 207.928 425.837 194.533 425.853 195.142C425.871 196.712 424.432 209.379 424.372 209.919C424.187 212.126 425.372 203.137 425.486 203.031C425.656 202.874 424.476 215.128 424.846 212.357C425.401 208.383 426.447 197.135 426.529 196.418C427.672 187.147 426.619 199.913 426.372 203.431C426.301 204.502 426.858 200.268 426.773 201.151C425.457 214.626 426.01 203.943 425.004 212.881C424.078 220.848 425.533 210.631 425.503 210.928C425.477 211.338 424.326 220.844 424.194 222.345C424.201 223.101 427.534 198.375 427.561 199.42C426.642 207.329 425.681 215.236 424.612 223.116C424.787 223.767 426.028 212.399 426.178 211.21C426.508 208.856 425.845 215.462 425.951 215.192C426.02 215.056 427.12 207.304 426.352 214.327C426.121 216.382 425.532 220.34 424.727 226.826C424.58 228.003 424.431 229.23 424.28 230.519C424.468 229.221 424.644 227.998 424.811 226.837C428.208 201.911 425.883 221.265 425.852 222.14C425.825 223.022 427.892 208.495 425.576 226.157C425.937 226.984 425.788 225.789 426.513 220.786C427.364 214.66 425.831 228.897 428.389 206.381C428.493 207.691 426.257 225.78 426.099 226.717C426.004 227.548 426.648 223.549 426.493 224.989C426.413 225.734 426.339 226.414 426.271 227.036C424.718 241.013 425.99 230.506 425.597 235.268C425.573 235.689 423.411 251.708 425.168 239.545C425.84 234.86 426.401 230.754 426.889 227.12C428.661 213.649 429.236 207.236 430.112 204.337C429.393 211.841 428.394 220.024 427.361 227.184C426.116 235.829 424.977 242.948 424.583 245.676C423.479 253.284 424.746 245.433 424.651 246.354C424.614 246.719 423.653 253.262 423.647 253.36C423.518 256.742 425.735 240.672 427.462 227.198C428.181 221.644 428.786 216.472 429.188 213.34C428.921 216.21 428.638 219.123 428.346 221.994C428.85 218.095 429.328 214.194 429.79 210.288C427.691 228.886 429.798 210.948 430.72 206.357C430.933 205.324 429.363 217.538 431.224 203.615C430.101 213.911 430.578 210.626 429.312 219.942C429.547 219.727 432.201 198.774 433.127 190.508C430.111 219.378 431.411 203.448 428.67 227.362C428.631 227.674 428.592 227.991 428.552 228.313C428.187 230.336 428.296 229.221 428.529 227.343C428.824 224.97 429.293 221.345 429.202 221.897C428.997 223.159 428.751 225.031 428.433 227.33C427.855 231.506 427.051 237.238 425.879 243.551C425.578 245.162 426.347 238.268 424.905 248.423C424.748 249.545 423.982 256.025 424.007 255.929C424.281 255.089 425.16 248.696 425.253 248.452C425.351 248.198 424.279 255.303 424.282 255.359C424.434 255.584 425.222 249.434 425.147 250.33C424.995 252.273 421.587 277.967 426.387 244.496C422.129 272.227 425.729 248.02 427.289 237.211C427.69 234.466 427.895 233.777 428.471 229.847C428.587 229.055 428.705 228.228 428.823 227.383C429.439 222.989 429.975 218.396 430.259 216.206C430.612 213.385 428.96 229.475 431.639 206.235C431.109 211.914 430.202 219.63 429.131 227.425C427.965 235.917 426.738 244.446 425.952 250.49C422.874 273.881 428.772 234.266 429.287 230.151C429.446 229.056 429.087 232.754 429.195 232.027C429.245 231.688 429.473 230.016 429.81 227.517C430.777 220.5 432.262 207.669 432.531 206.034C432.909 203.83 431.566 214.311 431.596 215.015C431.673 215.509 434.879 188.261 433.286 203.028C432.558 209.782 431.165 220.329 430.181 227.567C429.688 231.234 429.349 234.004 429.324 235.073C429.672 232.598 430.016 230.124 430.365 227.592C432.07 215.148 433.483 202.705 434.839 190.251C434.104 198.459 433.338 206.638 432.486 214.855C434.542 198.07 435.874 183.543 437.665 167.615C434.227 205.982 439.289 155.207 439.345 154.658C439.401 154.466 438.283 169.592 438.098 172.025C439.61 158.674 443.481 118.066 441.687 141.864C441.995 137.554 443.225 127.115 443.229 127.264C443.306 128.611 441.023 151.366 441.549 147.681C442.165 143.404 442.46 137.313 443.102 130.715C443.534 126.28 443.91 122.587 444.247 119.452C445.312 109.252 446.023 104.929 446.269 98.9116C446.274 98.7171 446.277 98.5245 446.278 98.3331C446.279 98.1117 446.277 97.8921 446.273 97.6732C446.269 97.4507 446.264 97.2486 446.252 97.0064C446.239 96.7471 446.222 96.487 446.199 96.2225C446.187 96.0889 446.174 95.9613 446.158 95.8176C446.138 95.6522 446.116 95.4842 446.089 95.3121C446.029 94.9443 445.99 94.6875 445.843 94.1234C445.682 93.5767 445.603 93.1761 445.054 92.1366C444.924 91.9 444.77 91.6501 444.584 91.3883C444.491 91.2575 444.39 91.1238 444.28 90.988C444.173 90.8559 443.988 90.6442 443.815 90.4697C443.102 89.7437 442.061 88.9991 440.701 88.5993C439.364 88.1789 437.785 88.2826 436.911 88.5211C436.042 88.7369 435.371 89.058 434.835 89.372C433.963 89.8918 433.458 90.3634 433.07 90.7338C432.729 91.0645 432.422 91.4071 432.169 91.7107C431.95 91.9726 431.743 92.2372 431.54 92.5106C430.81 93.4987 430.234 94.4324 429.686 95.3604C427.523 99.0802 425.437 103.448 422.672 109.542C422.262 110.45 421.802 111.477 421.347 112.501C421.584 111.885 421.855 111.197 422.1 110.567C406.88 144.768 392.737 179.101 378.272 213.368C376.936 216.344 375.094 220.532 372.995 225.322C367.757 237.061 360.952 253.637 354.836 265.183C354.883 265.099 354.96 264.963 355.115 264.744C355.193 264.634 355.292 264.502 355.426 264.344C355.494 264.265 355.57 264.179 355.658 264.086C355.709 264.032 355.725 264.015 355.822 263.919C355.922 263.821 356.036 263.715 356.168 263.602C356.693 263.167 357.517 262.544 358.961 262.16C360.371 261.752 362.471 261.921 363.898 262.677C366.798 264.244 367.149 266.171 367.275 266.287C367.587 267.098 367.587 267.387 367.606 267.455C367.619 267.538 367.616 267.538 367.613 267.489C367.598 267.292 367.593 266.715 367.607 266.198C367.636 265.096 367.706 263.948 367.794 262.729C367.964 260.418 368.172 258.234 368.374 256.19C368.672 252.524 370.824 233.888 371.003 232.508C371.272 229.935 369.439 244.13 370.15 237.717C370.243 236.311 374.464 204.927 374.363 207.147C373.876 210.709 372.27 221.718 372.075 223.517C371.042 232.399 377.117 187.838 381.586 158.435C383.507 145.659 384.76 135.645 384.969 134.188C384.761 136.353 384.535 138.565 384.305 140.737C385.095 134.538 385.828 128.318 386.385 121.987ZM420.895 147.923C422.52 144.577 426.077 135.993 428.324 130.983C431.404 124.047 437.308 112.645 434.409 117.41C429.824 127.465 425.338 137.717 420.895 147.923ZM355.617 240.689C354.806 248.199 355.868 242.413 356.486 236.285C356.559 235.595 356.753 230.574 355.617 240.689ZM387.923 225.922C387.84 226.11 386.626 228.98 385.86 230.793C385.485 231.679 385.213 232.324 385.187 232.391C384.366 234.469 384.993 233.079 385.957 230.835C387.42 227.43 389.606 222.157 387.923 225.922ZM290.394 232.649C290.087 236.689 291.537 241.174 290.494 237.542C290.014 235.15 290.094 232.302 290.267 229.587C290.287 229.258 290.392 232.034 290.394 232.649ZM301.918 243.032C310.414 238.217 317.818 226.933 310.983 235.879C310.607 236.294 308.812 238.282 306.589 240.058C304.4 241.874 301.705 243.156 301.918 243.032ZM353.389 268.723C353.212 266.694 353.785 258.991 354.112 255.61C354.031 255.792 353.097 263.803 353.389 268.723ZM369.229 133.195C369.133 133.296 371.264 129.322 373.884 124.647C377.569 117.921 382.709 109.926 382.98 110.075C382.077 110.858 377.369 118.533 373.968 124.695C371.42 129.245 369.327 133.096 369.229 133.195ZM336.603 193.769C336.912 193.168 341.329 184.985 341.27 185.265C339.232 189.307 335.214 196.501 336.603 193.769ZM295.396 158.336C295.449 157.837 295.5 164.795 296.283 148.369C296.397 145.958 295.673 154.548 295.712 153.691C295.799 151.897 295.879 150.479 295.953 149.341C295.39 156.974 294.808 164.916 294.786 165.68C294.682 169.298 295.374 158.561 295.396 158.336ZM299.545 87.3741C299.548 87.194 299.543 86.8988 299.527 86.5771C299.509 86.22 299.479 85.8257 299.437 85.5216C299.422 85.4001 299.388 85.2614 299.421 85.3835C299.451 85.4716 299.457 85.549 299.646 85.9518C299.747 86.1588 299.895 86.4334 300.155 86.7827C300.436 87.1604 301.047 87.858 302.015 88.3828C302.969 88.9545 304.694 89.2794 305.883 89.033C306.933 88.8485 307.586 88.4921 308.046 88.2014C308.466 87.9239 308.612 87.7815 308.78 87.6272C308.934 87.4807 309.02 87.3794 309.064 87.3282C309.253 87.0942 309.161 87.1926 309.077 87.3475C308.188 88.9246 307.008 92.0977 306.656 93.057C306.528 93.4287 307.323 91.8942 305.766 96.056C304.554 99.3781 306.113 94.3116 303.823 100.885C301.521 107.608 304.79 98.7137 304.608 99.2949C304.443 99.7781 303.017 103.745 301.985 106.774C301.321 108.714 300.795 110.315 300.893 110.191C300.948 110.134 301.454 108.688 302.101 106.814C303.35 103.18 305.189 97.8723 305.856 96.1121C307.154 92.7086 305.753 96.8052 307.88 91.2371C309.233 87.9354 308.207 89.6607 308.487 88.9671C308.533 88.8583 308.94 87.9662 309.274 87.4183C309.339 87.3047 309.423 87.2215 309.228 87.4655C309.183 87.5198 309.096 87.6218 308.939 87.7739C308.769 87.9324 308.611 88.086 308.187 88.3697C307.705 88.6756 307.027 89.0591 305.878 89.2558C304.596 89.5231 302.683 89.1011 301.737 88.4781C300.73 87.8969 300.086 87.0809 299.881 86.7814C299.62 86.4098 299.479 86.1256 299.385 85.9176C299.235 85.5768 299.212 85.4558 299.196 85.4053C299.177 85.3267 299.213 85.4973 299.236 85.6856C299.441 87.5842 299.455 89.8545 299.543 87.3546C299.544 87.3611 299.545 87.3676 299.545 87.3741ZM296.107 147.276C296.058 147.852 296.007 148.524 295.953 149.341C296.005 148.647 296.056 147.961 296.107 147.276ZM412.296 167.749C410.858 171.363 415.477 160.782 417.087 156.718C417.024 156.619 412.525 167.17 412.296 167.749ZM296.818 140.209C297.488 128.857 296.853 137.2 296.107 147.276C296.378 144.078 296.589 144.017 296.818 140.209ZM365.614 171.476C365.663 170.994 365.675 170.684 365.626 170.638C365.499 171.908 365.516 172.023 365.614 171.476ZM369.38 145.208C370.798 136.273 368.241 154.465 368.105 154.337C368.072 154.3 369.333 145.566 369.38 145.208ZM290.93 221.729C290.903 222.601 292.232 209.511 290.665 228.518C291.196 218.296 290.499 229.049 290.484 228.927C290.308 228.363 291.618 211.535 291.843 207.816C292.283 204.942 291.054 218.919 290.931 221.707C290.931 221.714 290.93 221.722 290.93 221.729ZM270.376 202.386C271.219 200.245 273.421 193.368 274.931 188.717C274.098 190.836 271.885 197.752 270.376 202.386ZM90.2043 120.116C101.981 88.7897 102.992 84.5483 92.5106 113.312C92.3057 113.875 89.445 122.001 90.2043 120.116ZM95.3055 210.861C95.2803 214.087 96.1692 203.474 96.8598 196.609C97.0009 195.088 97.4111 189.275 96.6308 195.839C96.9319 195.695 95.9491 205.778 95.3055 210.861ZM297.39 133.812C297.766 130.521 298.291 120.336 298.563 114.999C298.256 118.245 297.653 129.062 297.39 133.812ZM116.204 34.9545C116.031 38.3042 115.604 40.6781 115.642 40.063C115.811 37.3643 116.278 31.1177 116.204 34.9545ZM295.178 166.642C295.243 167.11 296.276 153.645 296.103 152.691C295.924 155.573 295.144 166.301 295.178 166.642ZM273.174 193.599C273.777 191.596 270.317 201.91 269.34 205.044C269.521 204.819 272.772 194.933 273.174 193.599ZM110.006 90.9647C109.633 94.0878 108.641 101.94 108.449 102.78C108.208 103.852 109.702 92.3669 110.006 90.9647ZM3.65285 35.8013C3.54442 36.1717 8.06265 24.9011 10.0893 20.0962C13.8269 10.7865 3.62493 35.2134 3.65285 35.8013ZM116.856 48.4567C113.405 57.7234 117.264 47.4273 117.298 47.9281C114.818 54.0917 108.902 69.6324 112.808 58.876C113.57 56.7843 115.722 51.3261 116.856 48.4567ZM120.223 40.0563C120.676 39.0944 123.681 32.9572 121.25 38.3435C120.138 40.8637 118.172 45.0095 120.223 40.0563ZM5.08459 46.8164C4.54416 55.8317 7.60308 14.5894 7.75567 13.6194C7.78854 12.9927 7.79851 12.644 7.80286 12.4027C7.84485 12.0198 7.90268 11.4043 7.96065 10.5344C7.9862 10.1565 8.01349 9.65879 8.02594 9.27528C8.03278 9.07429 8.03703 8.84043 8.0364 8.69079C8.03707 8.54224 8.02803 8.36839 8.02933 8.41191C8.02615 8.26881 7.95443 8.2431 8.14773 8.73244C8.25637 8.97681 8.44656 9.37828 8.93974 9.89971C9.41324 10.4127 10.2861 10.9898 11.1792 11.2208C13.055 11.6649 13.8801 11.1623 14.207 11.0734C14.5511 10.9294 14.6023 10.8936 14.6546 10.8859C14.5623 10.9346 14.4279 11.0773 13.7383 11.2936C13.1577 11.5163 11.2035 11.6778 9.71939 10.6582C8.2957 9.67578 8.09275 8.82316 7.97436 8.57C7.87813 8.27709 7.91337 8.30796 7.9183 8.42116C7.91597 8.37853 7.92387 8.51951 7.92383 8.66201C7.92464 8.79824 7.92259 8.97823 7.91717 9.18359C7.90904 9.50958 7.88869 9.95894 7.87217 10.2721C7.85508 10.6008 7.83615 10.9191 7.82044 11.1791C7.80671 11.4087 7.79645 11.5798 7.7924 11.6684C7.7787 11.9658 7.76789 12.2022 7.76235 12.367C7.43517 14.8176 4.99857 45.1004 5.08459 46.8164ZM8.53454 118.915C6.97384 117.21 6.69251 116.149 6.31022 115.231C5.97246 114.304 5.79372 113.591 5.63489 112.908C5.3374 111.588 5.18527 110.534 5.0583 109.624C4.81517 107.81 4.69922 106.584 4.59357 105.706C4.39731 103.991 4.2779 103.72 4.29241 104.207C4.53761 110.151 5.05677 111.561 4.98641 111.045C4.95283 110.545 4.7933 108.589 4.83042 108.784C4.90893 109.211 5.07387 111.586 5.83771 114.203C6.22529 115.508 6.86646 117.065 7.91509 118.333C8.38182 118.913 8.97674 119.419 9.11979 119.516C9.28967 119.629 9.02284 119.443 8.45025 118.828C8.47797 118.857 8.50607 118.886 8.53454 118.915ZM4.45105 60.8429C4.45899 60.4296 4.85425 51.764 4.88004 51.4116C5.06122 44.3058 3.96132 68.7976 4.45105 60.8429ZM293.408 130.694C291.522 136.531 293.574 130.87 294.802 126.988C294.903 126.665 295.077 125.535 293.408 130.694ZM122.166 35.7684C122.266 35.5912 123.645 32.2787 125.01 30.573C125.106 30.4425 125.251 30.3481 124.843 30.6897C124.589 30.842 124.276 31.2763 122.679 31.6461C121.874 31.8144 120.623 31.7992 119.507 31.338C118.472 30.9331 117.702 30.2193 117.365 29.8166C117.172 29.594 117.008 29.36 116.912 29.2069C116.817 29.0573 116.743 28.9231 116.684 28.805C116.559 28.5547 116.517 28.4326 116.478 28.325C116.405 28.1067 116.407 28.0774 116.405 28.0731C116.409 28.0838 116.441 28.2802 116.463 28.5274C116.554 29.5328 116.547 31.0921 116.497 32.5927C116.392 35.6783 116.14 38.899 115.887 41.7824C115.374 47.4915 114.858 51.7309 114.852 50.9453C114.957 49.9964 115.422 45.6552 115.858 40.2503C116.069 37.5879 116.279 34.6143 116.347 31.8835C116.38 30.5411 116.369 29.1572 116.279 28.3526C116.262 28.1829 116.229 28.033 116.254 28.1439C116.268 28.1931 116.3 28.3423 116.434 28.6537C116.518 28.8425 116.632 29.0767 116.837 29.3866C117.109 29.7764 117.38 30.1647 118.121 30.7393C118.817 31.2786 119.929 31.7782 121.041 31.8767C122.113 31.9874 123.024 31.761 123.521 31.5817C124.612 31.1612 124.825 30.884 125.018 30.7495C125.333 30.4734 125.221 30.5497 125.127 30.6714C124.07 31.915 122.793 34.6804 122.227 35.8417C121.628 37.1067 121.517 37.2826 122.166 35.7684ZM134.081 171.787C131.819 177.93 134.546 171.268 135.596 168.061C135.996 166.85 134.645 170.251 134.081 171.787ZM294.103 184.829C293.494 191.463 294.036 190.134 294.298 184.353C294.308 184.127 294.126 184.571 294.103 184.829ZM113.296 219.819C123.388 199.973 122.372 204.072 107.549 227.963C107.234 228.367 106.995 228.793 105.968 229.627C105.69 229.842 105.312 230.1 104.831 230.336C104.309 230.592 103.557 230.874 102.608 230.957C100.497 231.252 98.1492 229.808 97.5343 229.004C96.0275 227.201 96.1364 226.623 95.8859 225.992C95.812 225.731 95.7501 225.464 95.7056 225.245C95.6646 225.044 95.6299 224.847 95.5993 224.65C95.6242 224.843 95.6532 225.036 95.6883 225.234C95.7255 225.444 95.7819 225.713 95.8489 225.97C96.0721 226.58 95.9874 227.163 97.3682 228.909C97.905 229.647 100.074 231.225 102.318 231.05C103.371 231.004 104.117 230.749 104.732 230.473C105.255 230.233 105.642 229.98 105.96 229.744C107.051 228.889 107.31 228.443 107.644 228.032C107.674 227.994 107.704 227.956 107.736 227.916C107.706 227.957 107.677 227.997 107.649 228.036C107.324 228.452 107.067 228.897 106.026 229.735C105.74 229.955 105.363 230.21 104.883 230.445C104.365 230.699 103.615 230.978 102.702 231.069C100.654 231.376 98.3089 230.086 97.5922 229.234C95.9657 227.395 96.0988 226.84 95.8225 226.187C95.6675 225.67 95.583 225.231 95.5267 224.904C95.3111 223.547 95.2994 222.741 95.2671 221.9C95.2249 220.293 95.2623 219.018 95.2997 217.861C95.3796 215.628 95.4895 213.994 95.5574 212.929C95.706 210.726 95.7199 210.558 95.6367 211.566C95.557 212.594 95.3802 214.819 95.2627 217.602C95.208 219.01 95.1594 220.515 95.2153 222.251C95.2602 223.154 95.2616 223.98 95.5675 225.493C95.6138 225.704 95.6678 225.921 95.7348 226.151C95.8157 226.428 95.9205 226.74 96.064 227.078C96.2531 227.503 96.4299 227.913 96.9542 228.619C97.2359 228.986 97.5712 229.361 98.066 229.762C98.6424 230.228 99.3994 230.663 100.271 230.918C102.215 231.497 103.962 230.987 104.869 230.539C105.727 230.121 106.21 229.702 106.54 229.409C107.203 228.793 107.456 228.428 107.715 228.084C109.168 226.12 110.534 224.059 111.343 222.765C113.077 219.955 111.765 222.388 113.286 219.839C113.29 219.832 113.293 219.825 113.296 219.819ZM145.121 139.652C151.215 119.023 139.01 158.183 134.747 169.15C138.841 158.472 143.587 144.375 137.182 163.586C146.865 135.653 142.549 147.251 142.962 146.113C143.374 144.819 144.88 140.473 145.121 139.652ZM125.86 192.978C125.366 194.199 121.786 202.864 120.287 205.961C122.573 201.75 129.093 185.39 125.86 192.978ZM53.3385 87.542C53.2982 87.2614 53.1894 86.777 52.739 85.885C52.2859 85.0292 51.4745 83.6772 49.8519 82.7191C50.8307 83.2644 52.625 85.3769 53.3385 87.542ZM422.975 141.147C424.957 136.51 428.921 127.302 427.832 130.179C427.703 130.488 423.044 141.19 422.975 141.147ZM106.568 120.457C106.449 121.522 102.916 149.087 103.981 139.547C104.302 136.664 107.547 111.601 106.568 120.457ZM108.146 70.6577C108.506 69.7046 109.343 67.5131 110.173 65.3602C111.286 62.4708 112.395 59.6418 112.463 59.5195C112.646 59.2264 111.454 62.3466 110.266 65.3957C109.316 67.832 108.359 70.2392 108.146 70.6577ZM433.035 117.838C433.092 117.701 433.666 116.42 434.375 114.869C436.281 110.615 439.579 103.95 439.096 105.079C438.343 106.714 436.023 111.56 434.461 114.908C433.411 117.142 432.675 118.691 433.035 117.838ZM286.09 151.795C285.684 153.016 285.301 154.689 285.164 155.112C284.837 156.105 277.441 178.525 280.438 170.014C280.931 168.591 291.438 136.304 292.825 132.115C293.148 130.439 288.8 144.253 287.679 147.607C287.481 148.195 287.185 148.513 286.094 151.785C286.093 151.789 286.091 151.792 286.09 151.795ZM35.5733 91.7389C34.95 92.0922 28.9488 103.836 24.8345 111.602C23.0954 114.81 21.0238 117.37 21.099 117.313C22.8543 115.234 23.8655 113.471 24.9202 111.651C28.8674 104.526 31.831 97.7633 35.5733 91.7389ZM42.8381 83.0601C42.9458 82.9863 43.0366 82.9271 43.1131 82.8782C43.7092 82.5199 43.5957 82.5556 43.0816 82.8244C41.8976 83.1195 37.7775 87.8027 36.4933 90.0865C36.5195 90.1402 37.9278 87.9739 39.4899 86.1649C41.0609 84.2861 42.6588 83.159 42.8381 83.0601ZM117.097 30.5777C117.065 31.8554 117.046 30.4686 116.938 29.2105C116.886 28.5905 116.792 28.0693 116.75 28.011C116.729 27.9745 116.737 28.0568 116.734 28.079C116.734 28.1108 116.705 28.0394 116.695 28.0141C116.831 27.6149 116.86 33.9757 116.616 35.8012C116.578 36.3701 116.719 30.1239 116.57 28.8957C116.543 28.4142 116.53 28.2622 116.537 28.1907C116.542 28.1164 116.561 28.112 116.579 28.1003C116.597 28.0923 116.612 28.0657 116.621 28.035C116.627 28.0242 116.626 28.0066 116.657 28.1033C116.677 28.1617 116.706 28.2626 116.802 28.4844C116.953 28.7518 117.016 29.1747 118.034 30.1437C118.613 30.6591 119.465 31.1741 120.551 31.3922C121.619 31.6059 122.52 31.4619 123.126 31.2825C124.268 30.9112 124.538 30.5894 124.725 30.4644C125.049 30.187 124.921 30.2756 124.817 30.4112C121.559 35.1228 118.508 43.9189 115.558 51.1558C115.272 51.8785 117.421 46.1482 114.946 52.4286C114.583 53.3503 112.713 58.4981 110.108 65.3354C109.91 65.8557 109.704 66.3933 109.491 66.9477C102.641 83.6217 98.464 96.2106 90.3214 117.617C90.5773 116.79 96.4336 100.693 96.7836 99.7498C100.134 90.6522 104.87 77.8932 109.702 65.1806C114.433 52.8983 119.229 39.939 123.301 32.1439C124.2 30.5573 124.448 30.4133 124.605 30.233C124.704 30.1387 124.722 30.1443 124.752 30.1296C124.762 30.1278 124.781 30.1184 124.732 30.1703C124.706 30.1964 124.66 30.2447 124.524 30.352C124.359 30.4601 124.213 30.6522 123.322 30.9973C122.726 31.2209 121.716 31.3912 120.741 31.2119C119.749 31.038 119.041 30.6362 118.576 30.2989C118.079 29.9283 117.889 29.6993 117.708 29.4899C117.538 29.2852 117.426 29.1182 117.348 28.9905C117.104 28.5778 117.034 28.3318 116.984 28.1356C116.864 27.684 117.139 27.9363 117.097 30.5777ZM421.816 143.571C422.598 141.269 426.038 133.607 428.195 128.668C427.6 130.444 423.845 138.739 421.816 143.571ZM46.9751 184.391C46.6397 187.044 45.8709 195.643 45.8465 196.493C45.604 197.24 46.7352 184.907 46.9751 184.391ZM242.517 214.757C242.554 214.473 243.272 208.025 243.292 207.791C243.791 202.003 241.637 221.375 242.517 214.757ZM251.605 60.1465C251.664 55.2162 251.758 50.2424 251.617 48.5774C251.616 51.7325 251.495 60.729 251.605 60.1465ZM193.108 185.303C193.294 184.276 188.115 198.298 187.086 200.907C187.577 199.967 192.992 186.084 193.108 185.303ZM54.2091 88.0542C53.0038 84.8412 52.1772 84.1424 51.6691 83.4543C51.1163 82.8497 50.7244 82.3374 49.2469 81.7587C49.0029 81.6653 48.441 81.6706 48.5925 81.8549C48.7273 82.1302 49.6112 82.0415 51.7001 84.0646C52.068 84.461 51.5935 83.8318 51.6237 83.7972C51.5772 83.8679 52.5067 83.8282 54.2091 88.0542ZM95.3913 218.937C95.5513 216.437 96.0531 209.067 96.538 204.175C96.3165 205.271 95.4434 215.152 95.3913 218.937ZM433.89 99.1227C434.279 102.634 432.14 122.433 432.498 117.536C432.556 116.862 434.101 101.268 433.89 99.1227ZM299.38 110.872C299.956 102.864 299.117 119.487 298.622 124.768C298.787 122.382 299.351 111.406 299.38 110.872ZM210.654 136.706C210.522 137.058 207.639 145.168 207.518 145.524C205.296 152.199 213.432 129.322 210.654 136.706ZM251.066 111.19C251.311 108.12 251.621 87.8612 251.53 83.3082C251.348 87.6872 250.847 115.01 251.066 111.19ZM53.7499 122.86C54.2923 116.443 54.7034 110.349 55.0305 104.443C54.8837 105.695 53.7651 122.153 53.7499 122.86ZM199.961 166.389C199.803 166.823 199.66 167.249 199.511 167.663C199.664 167.23 199.814 166.804 199.961 166.389ZM81.262 141.394C83.1053 136.302 82.8945 137.414 82.7837 137.73C81.4213 141.582 79.1662 147.182 81.262 141.394ZM424.014 137.771C424.59 136.004 428.362 127.656 430.43 122.902C429.941 124.317 425.701 133.9 424.014 137.771ZM151.732 117.638C152.296 115.631 151.895 116.714 151.002 119.42C149.013 125.517 144.509 139.324 143.299 143.19C143.318 143.536 149.306 125.499 151.161 119.47C151.487 118.435 151.692 117.779 151.732 117.638ZM298.121 135.908C298.223 136.462 297.286 148.055 297.387 145.585C297.455 144.018 298.061 135.586 298.121 135.908ZM138.898 156.505C138.022 158.944 136.101 164.791 136.895 162.778C137.94 160.129 139.12 155.898 138.898 156.505ZM113.588 69.5389C113.482 70.6824 111.482 85.829 112.116 79.5615C112.56 75.1711 112.831 74.5281 112.957 73.4924C113.12 72.3311 115.717 47.9993 113.588 69.5389ZM171.485 56.9731C172.21 51.4538 172.975 44.5373 173.37 38.954C173.378 38.8286 173.387 38.704 173.395 38.5802C173.385 38.6846 173.373 38.8093 173.36 38.9534C173.15 42.0002 171.7 54.5638 171.485 56.9731ZM300.442 91.3774C300.457 91.7224 300.43 94.856 300.278 98.8463C299.897 109.108 298.933 124.65 299.689 109.043C299.716 108.431 299.963 103.413 300.137 98.8409C300.351 93.6986 300.367 89.2173 300.442 91.3774ZM54.2091 88.0542C54.4954 88.8667 54.7896 89.8795 55.0361 91.1042C54.7991 89.8867 54.5025 88.8703 54.2091 88.0542ZM46.901 188.112C47.2758 186.189 45.8979 195.995 46.3047 200.816C45.7212 200.918 46.7842 188.308 46.901 188.112ZM173.563 38.1221C173.855 34.667 174.214 28.3653 174.434 24.1152C174.338 24.7952 173.586 36.6453 173.563 38.1221ZM182.609 211.014C180.035 217.548 176.529 225.397 176.332 225.523C176.287 225.663 176.163 225.984 175.947 226.5C175.807 226.899 172.438 233.977 170.809 236.893C163.822 255.066 200.756 167.484 179.451 218.084C180.504 215.78 181.581 213.359 182.609 211.014ZM250.207 138.53C250.152 142.433 249.2 153.309 249.348 150.479C249.498 148.523 250.303 134.625 250.207 138.53ZM242.643 52.3119C243.081 51.2015 247.226 41.2876 247.395 41.0642C245.149 46.7847 240.708 57.3072 242.643 52.3119ZM248.037 168.467C247.831 170.9 247.31 174.022 247.329 173.729C247.499 171.199 248.3 164.341 248.037 168.467ZM55.783 104.513C55.6302 108.17 54.6036 119.753 54.2336 122.27C54.2213 122.75 54.1556 123.993 53.9959 126.335C53.9965 126.328 53.9971 126.321 53.9978 126.313C54.3429 129.435 43.2983 223.233 50.3974 160.272C50.6129 158.269 50.4429 161.025 51.3066 153.001C51.3621 152.476 51.291 152.166 51.4587 150.562C51.8946 146.811 53.7691 126.771 54.1382 122.753C54.1217 122.717 54.125 122.456 54.154 121.899C54.4479 116.954 55.9343 101.671 55.783 104.513ZM234.27 72.0267C235.12 70.0173 237.872 63.6954 238.226 63.082C236.961 66.2446 232.319 76.6917 234.27 72.0267ZM300.807 92.5199C300.811 94.059 300.74 96.5093 300.631 98.86C300.445 102.934 300.175 106.677 300.232 104.536C300.249 103.834 300.368 101.371 300.479 98.8541C300.699 94.2362 300.786 89.3862 300.807 92.5199ZM251.874 35.464C251.625 32.6742 250.916 30.5044 250.852 30.5889C250.864 30.6154 251.018 30.8229 251.242 30.9901C251.461 31.1604 251.671 31.2326 251.488 31.1605C251.258 31.1058 248.9 30.1381 247.886 28.7129C246.852 27.3926 246.633 26.4777 246.463 25.9961C246.294 25.4377 246.248 25.1739 246.215 25.014C246.159 24.7022 246.197 24.9229 246.331 25.4406C246.517 26.0406 246.687 26.9965 247.772 28.4819C248.891 30.0414 250.875 30.8591 251.261 30.9762C251.765 31.1579 251.574 31.0719 251.57 31.0461C251.557 31.0301 251.564 31.0245 251.59 31.0285C251.609 31.0304 251.672 31.0474 251.586 31.0021C251.747 31.0795 251.44 30.9536 251.255 30.7927C251.053 30.6294 250.972 30.5052 250.969 30.5118C250.969 30.5177 251.155 30.9504 251.28 31.4667C251.555 32.5437 251.748 33.9816 251.874 35.464ZM4.85958 89.1542C4.94145 93.2126 5.13091 88.4299 4.98853 83.9606C4.94229 82.5576 4.81525 86.8642 4.85958 89.1542ZM-18.4887 95.9063C-17.6017 92.5829 -22.9066 108.498 -20.6335 102.364C-20.5321 102.084 -18.5637 96.151 -18.4887 95.9063ZM7.09544 33.9587C6.72667 36.7051 6.54522 38.4844 6.09345 46.2221C6.90029 34.7645 6.29739 45.4124 7.09544 33.9587ZM176.348 225.446C176.335 225.49 176.324 225.527 176.332 225.523C176.347 225.474 176.351 225.452 176.348 225.446ZM245.626 192.024C245.432 195.166 244.449 203.959 244.601 201.327C244.617 201.097 245.396 193.254 245.626 192.024ZM54.2336 122.27C54.2437 121.85 54.2104 122.062 54.1382 122.753C54.1538 122.787 54.186 122.61 54.2336 122.27ZM250.054 144.857C249.96 145.161 250.667 131.796 250.677 131.249C251.206 123.57 250.46 139.342 250.054 144.857ZM295.541 181.27C295.48 181.965 295.538 177.469 295.836 174.733C296.067 172.62 295.769 178.661 295.541 181.27ZM9.1637 8.44504C9.16146 8.37172 9.15816 8.32422 9.15754 8.31799C9.14605 8.15006 9.11028 8.03142 9.13793 8.1292C9.19279 8.21073 9.20309 8.64251 10.1291 9.42546C10.5854 9.79714 11.3363 10.1278 11.9902 10.1994C12.6488 10.2816 13.1362 10.1773 13.4207 10.0926C13.986 9.90337 13.98 9.82337 13.9401 9.87418C13.8707 9.8989 13.3075 10.6206 12.9531 11.2538C12.5719 11.9061 12.2997 12.4709 12.1964 12.7376C12.4364 12.2816 12.7861 11.6412 13.1626 11.0482C13.5354 10.4443 13.9572 9.95747 13.9954 9.94317C14.0334 9.86432 14.0245 10.0972 12.8872 10.2878C12.3299 10.3684 11.399 10.2609 10.6902 9.87711C9.97221 9.5031 9.58077 9.0339 9.38391 8.75167C9.0089 8.16631 9.08271 8.10193 9.0741 8.1081C9.0855 8.12415 9.10956 8.23467 9.12416 8.32077C9.13627 8.33973 9.1518 8.45939 9.1637 8.44504ZM-16.5187 89.6428C-14.7371 84.9118 -10.9785 74.0266 -8.57328 67.0755C-8.72113 66.8811 -14.9394 85.1632 -16.5187 89.6428ZM55.8999 93.7281C55.9539 93.9039 56.2096 97.6478 55.991 100.236C55.8817 101.928 55.7858 103.083 55.7714 102.535C55.7589 102.077 55.7871 101.238 55.8361 100.227C56.1007 96.7902 55.6377 91.7079 55.8999 93.7281ZM296.871 160.517C297.294 155.747 296.801 166.761 296.23 171.781C295.938 174.365 296.803 161.32 296.871 160.517ZM242.751 219.507C241.968 225.812 243.588 210.197 243.969 208.05C243.655 210.934 243.025 217.284 242.751 219.507ZM249.051 35.7483C252.668 26.4665 253.75 25.3311 253.557 25.8243C253.438 26.1823 252.123 29.2742 251.418 30.8503C251.198 31.2899 248.868 36.1945 249.051 35.7483ZM430.502 147.843C430.18 150.644 430.982 140.162 431.237 138.825C431.396 138.013 430.71 146.05 430.502 147.843ZM156.856 169.141C156.752 169.965 156.647 170.803 156.544 171.634C156.627 171.014 156.731 170.186 156.856 169.141ZM262.782 218.949C258.781 232.472 258.751 230.945 258.368 232.09C257.413 234.649 255.665 240.354 253.048 245.448C256.012 239.645 257.759 234.479 259.801 229.015C259.458 230.008 258.576 232.593 257.275 236.115C256.621 237.873 255.879 239.836 254.973 241.981C254.511 243.063 254.035 244.149 253.403 245.379C252.669 246.593 252.411 247.858 249.866 249.952C249.403 250.283 248.781 250.662 247.85 250.898C247.125 251.145 245.157 251.144 243.956 250.414C243.644 250.247 243.364 250.057 243.119 249.861C242.892 249.678 242.76 249.553 242.608 249.398C242.317 249.099 242.095 248.807 241.917 248.536C241.561 247.995 241.37 247.508 241.283 247.28C240.867 246.09 240.853 245.581 240.77 244.956C240.713 244.416 240.69 243.967 240.675 243.487C240.662 243.079 240.658 242.656 240.662 242.213C240.676 240.634 240.763 239.124 240.857 237.711C241.053 234.849 241.3 232.268 241.524 229.992C241.974 225.491 242.339 222.317 242.382 222.136C242.626 220.967 241.273 233.25 241.287 233.637C241.252 234.168 241.432 236.169 241.365 237.295C241.345 237.641 241.265 238.629 241.187 240.336C241.153 241.157 241.115 242.153 241.141 243.357C241.162 244.008 241.171 244.593 241.325 245.6C241.344 245.717 241.366 245.836 241.391 245.959C241.42 246.106 241.462 246.292 241.51 246.47C241.559 246.653 241.617 246.844 241.692 247.051C241.73 247.154 241.772 247.262 241.819 247.374C241.867 247.487 241.963 247.696 242.06 247.874C242.262 248.245 242.538 248.671 242.982 249.12C243.305 249.482 244.39 250.289 245.476 250.487C247.993 250.863 248.81 250.046 249.597 249.58C252.288 247.324 252.527 245.923 253.39 244.407C254.113 242.925 254.749 241.417 255.348 239.937C256.552 236.949 257.646 233.943 258.652 231.114C260.657 225.457 262.239 220.652 262.782 218.949ZM252.576 47.0416C252.576 46.9805 252.576 46.9204 252.575 46.8611C252.549 43.8333 252.39 43.0041 252.394 41.5896C252.391 41.0823 252.534 41.0432 252.499 39.3636C252.596 41.8148 252.609 44.3026 252.579 46.8611C252.578 46.9212 252.577 46.9814 252.576 47.0416ZM271.115 195.219C272.196 191.386 266.719 208.336 266.554 208.886C265.714 211.806 270.242 198.331 271.115 195.219ZM249.704 151.526C249.69 151.752 249.551 153.703 249.357 156.039C249.013 160.223 248.514 165.681 248.462 165.599C248.574 164.056 248.939 159.794 249.254 156.03C249.661 151.166 249.952 147.202 249.704 151.526ZM252.396 37.3504C252.265 35.2049 251.775 31.6934 251.228 30.5934C251.12 30.3458 251.074 30.3668 251.268 30.5645C251.456 30.7661 251.816 30.9262 251.673 30.8509C251.562 30.7954 251.034 30.5857 250.708 30.4106C250.369 30.2295 250.302 30.1672 250.614 30.2975C250.63 30.3053 250.645 30.3129 250.661 30.3204C251.858 30.8469 251.85 30.8372 251.62 30.715C251.38 30.5727 251.195 30.3326 251.215 30.356C251.247 30.38 251.532 31.0672 251.697 31.8229C252.066 33.4183 252.266 35.3645 252.396 37.3504ZM298.419 144.201C298.139 153.092 298.023 148.858 298.444 141.004C298.746 138.632 298.466 142.739 298.419 144.201ZM296.687 172.604C296.571 175.093 294.684 200.497 294.792 196.629C294.829 195.251 296.033 180.605 296.068 179.945C296.124 178.923 295.603 183.574 296.197 175.771C296.228 176.238 296.728 171.759 296.687 172.604ZM298.126 151.556C297.763 160.389 297.172 162.337 297.632 155.708C297.811 153.117 298.177 150.296 298.126 151.556ZM300.391 115.558C300.258 118.726 299.809 127.176 299.281 132.988C299.768 125.212 300.236 117.401 300.634 109.629C300.766 108.735 300.514 112.779 300.39 115.579C300.391 115.572 300.391 115.565 300.391 115.558ZM-34.7792 139.528C-32.638 132.837 -37.8965 148.142 -38.0872 148.801C-38.6428 150.759 -35.7366 142.52 -34.7792 139.528ZM428.996 202.815C428.827 204.755 428.854 206.042 428.266 210.302C428.648 205.997 429.009 201.69 429.357 197.38C430.004 194.081 429.182 200.684 428.996 202.815ZM428.085 219.323C428.163 218.727 428.201 222.057 428.866 214.214C429.104 211.253 428.117 218.896 426.959 227.129C426.037 233.686 425.094 240.493 424.85 242.821C425.426 239.171 426.302 232.712 427.05 227.142C427.467 224.043 427.831 221.181 428.085 219.323ZM422.732 269.871C422.73 270.22 424.502 259.296 424.648 258.051C425.523 251.393 422.886 268.056 422.732 269.871ZM427.801 235.071C427.264 239.471 428.378 231.823 428.96 227.401C429.059 226.651 429.143 225.981 429.203 225.479C429.191 225.371 429.061 226.208 428.886 227.391C428.489 230.082 427.871 234.507 427.801 235.071ZM-17.7037 70.1766C-16.1502 64.8063 -13.8918 60.2815 -16.8483 68.3669C-16.9912 68.7586 -17.7684 70.4068 -17.7037 70.1766ZM424.846 259.282C425.535 254.151 423.773 265.49 423.254 268.852C423.297 269.173 424.751 260.063 424.846 259.282ZM-17.0781 66.2296C-14.8364 59.1613 -15.0109 61.8405 -15.2972 62.7433C-16.4528 66.3741 -21.0128 78.6677 -21.948 81.1757C-15.4362 62.6795 -18.1242 69.5546 -17.0781 66.2296ZM-5.15028 34.083C-4.1817 31.5676 -4.51253 32.5666 -5.38663 35.0028C-6.69382 38.6378 -9.15318 45.4851 -9.94419 47.3497C-8.92171 44.5003 -6.519 37.7363 -5.48283 34.9672C-5.34435 34.5947 -5.23187 34.2957 -5.15028 34.083ZM17.0158 12.0643C16.792 15.8416 15.8394 26.7818 15.5912 28.6034C15.9413 24.5838 16.8211 13.7213 17.0158 12.0643ZM16.6573 20.5144C16.3067 26.2522 15.74 27.6198 16.4545 20.9913C16.4814 20.7441 16.6678 20.2981 16.6573 20.5144ZM14.4277 52.8428C14.407 56.6086 13.784 60.9012 14.0611 54.7832C14.1499 52.9663 14.4287 52.4505 14.4277 52.8428ZM-14.7313 57.1944C-13.0011 52.0504 -10.3566 45.5172 -14.2037 56.5006C-12.8027 52.6646 -11.3935 48.8322 -9.97069 45.0063C-14.9294 59.4207 -14.9157 58.2024 -16.3584 62.3496C-18.3504 68.1267 -17.8462 67.7671 -17.3419 66.6553C-19.2089 71.3203 -26.1409 91.3924 -30.1479 103.007C-26.7485 92.7768 -21.1945 76.1377 -17.7389 66.0667C-16.7487 63.1757 -15.6865 60.4355 -14.8334 57.9757C-13.475 54.0616 -14.8269 57.481 -14.7384 57.2145C-14.7361 57.2078 -14.7337 57.2011 -14.7313 57.1944ZM13.7044 95.3168C14.2202 106.383 13.5465 99.4053 13.5055 93.14C13.5059 92.8726 13.6921 95.0398 13.7044 95.3168ZM423.785 274.168C426.032 259.325 424.232 270.057 429.032 239.191C426.946 252.132 428.748 239.888 428.287 242.404C427.924 244.416 426.893 252.048 427.366 247.599C426.762 253.469 422.834 278.603 422.274 279.996C422.277 279.984 422.279 279.972 422.282 279.96C422.111 280.725 423.027 278.867 423.785 274.168ZM18.1449 12.1939C18.3946 16.0592 17.4156 17.4118 17.2155 24.7328C16.2154 30.4686 17.7129 19.7488 18.0859 7.57471C17.8287 6.22475 18.1322 4.47537 15.402 2.18716C13.9161 1.08215 11.7465 1.15087 10.7019 1.55718C9.56347 1.94561 8.90818 2.43682 8.33684 2.88426C5.5584 5.36816 4.9375 7.29837 4.06049 8.85392C3.28655 10.4124 2.81546 11.564 2.6171 12.1603C4.49543 8.25721 5.78049 5.35982 8.47848 3.06096C9.42042 2.33259 10.619 1.54067 12.4613 1.51194C14.3662 1.48607 15.8063 2.70669 16.2887 3.34462C16.8442 4.04008 16.9937 4.44737 17.0995 4.66733C17.1944 4.88867 17.2017 4.92728 17.1477 4.8128C16.957 4.62202 16.9566 3.61765 14.8862 2.23438C13.8269 1.57226 12.1388 1.44288 11.0568 1.79467C9.93748 2.12022 9.1922 2.63783 8.54947 3.14952C4.07207 7.50243 2.65299 12.8784 1.16934 15.7242C-0.0249262 18.5201 -0.302499 18.4307 3.03394 10.6474C-6.00915 32.2568 -0.103306 17.6596 -1.63769 20.9395C-2.8008 23.5695 -5.62325 31.1003 -6.90354 34.4421C-7.3202 35.517 -7.58923 36.166 -7.57728 35.9913C-7.57477 35.9845 -7.5723 35.9777 -7.56979 35.9709C-7.37439 35.442 -7.18157 34.9215 -6.99133 34.4096C-4.39015 27.4464 -1.79077 20.556 1.26754 13.6393C0.0702758 16.8381 0.572566 15.8564 1.73626 13.2456C3.12809 10.583 4.06189 6.64981 8.14349 2.64305C8.85599 2.0655 9.70065 1.42951 11.1442 1.05599C12.5488 0.614886 14.8795 1.09268 15.9969 2.09538C18.5206 4.57197 18.196 6.20506 18.41 7.54773C18.4697 9.55479 18.2769 10.7459 18.1449 12.1939ZM-7.09237 36.5513C-7.04146 36.4072 -6.77067 35.6707 -6.38434 34.634C-4.76827 30.1953 -0.661635 19.8477 -0.90565 20.7165C-1.38897 21.9451 -4.42211 29.7221 -6.27001 34.6763C-7.71716 38.524 -8.52141 40.6209 -7.09237 36.5513ZM-32.1768 108.142C-30.1803 102.29 -27.1582 93.2156 -25.9126 90.0845C-27.9213 95.9314 -30.9388 105.009 -32.1768 108.142ZM64.2799 108.634C63.8422 113.705 64.3839 105.425 64.6724 100.753C64.8306 98.0192 64.83 96.4628 64.8437 99.1324C64.842 99.223 64.8272 99.8404 64.7748 100.759C64.63 103.369 64.3073 108.336 64.2799 108.634ZM16.5503 30.1134C16.0726 38.0706 15.8513 34.2709 16.4754 28.3922C16.5118 28.0529 16.5742 29.7304 16.5503 30.1134ZM425.8 262.183C426.048 261.662 429.08 240.21 429.577 236.415C429.201 238.536 425.615 262.757 425.8 262.183ZM-36.1364 118.292C-32.5979 106.501 -26.6877 90.867 -26.101 89.1339C-25.5189 87.4047 -26.636 90.0477 -26.506 89.6532C-26.2177 88.7596 -19.8681 70.4173 -19.5388 69.5388C-19.3087 68.9096 -20.1954 72.305 -18.8027 68.5648C-21.5401 75.8735 -32.9438 109.457 -33.5546 111.185C-34.0385 112.529 -30.8454 102.265 -36.1295 118.272C-36.1318 118.279 -36.1341 118.285 -36.1364 118.292ZM-24.6689 84.7849C-26.1381 89.4072 -21.6977 76.5596 -20.6575 73.4406C-18.363 66.5224 -24.4851 84.1877 -24.6689 84.7849ZM-14.0231 53.8689C-13.5426 52.3926 -8.838 39.1744 -8.28736 38.0957C-10.4261 44.4058 -15.1398 57.2123 -14.0231 53.8689ZM14.8711 103.911C14.9561 105.594 15.2139 109.023 15.8296 111.082C15.9608 111.552 16.1692 111.93 16.0936 111.796C16.0397 111.729 15.8882 111.49 15.3934 111.201C14.9227 110.911 14.1278 110.772 13.6656 110.84C13.1794 110.898 12.9734 111.015 12.8745 111.063C12.7725 111.119 12.7676 111.133 12.7762 111.13C12.8017 111.123 12.8861 111.064 12.9142 111.057C12.8457 111.119 12.7885 111.161 12.7927 111.157C12.8022 111.156 12.8644 111.086 13.2136 110.977C13.5324 110.867 14.3417 110.794 15.0184 111.081C15.6862 111.354 15.9587 111.718 16.0245 111.802C16.1465 112.004 15.901 111.588 15.77 111.107C15.6201 110.616 15.4776 109.967 15.3702 109.349C14.9301 106.771 14.8371 104.157 14.8711 103.911ZM436.278 188.94C435.735 194.966 437.249 181.029 437.608 176.957C437.561 176.729 436.33 188.424 436.278 188.94ZM17.518 31.5409C17.0668 33.7002 14.7351 77.1913 15.1087 83.3012C14.6036 77.3306 16.8014 34.1882 17.3071 32.2273C17.3659 31.6536 17.5346 31.2709 17.518 31.5409ZM-18.8337 65.2245C-20.3153 68.9677 -20.9882 71.52 -21.1549 72.0075C-22.7632 76.7139 -26.1648 86.4755 -25.2745 84.384C-22.486 76.0508 -15.8729 57.739 -18.8337 65.2245ZM15.8416 106.757C17.1141 114.662 15.5121 108.218 15.3994 101.948C15.2715 98.5428 15.2326 95.8436 15.3256 97.1594C15.3346 97.2921 15.4113 99.5608 15.5135 101.944C15.5964 104.033 15.7729 106.094 15.8416 106.757ZM17.974 26.6757C18.0505 25.1164 19.1184 18.5458 19.367 7.46806C19.0758 6.03591 19.5006 4.24354 16.4575 1.36847C14.7995 -0.0807552 11.8938 -0.251274 10.5159 0.265848C9.02411 0.727631 8.22454 1.33696 7.52811 1.87538C3.24018 5.95342 2.69824 8.80172 1.09103 11.8671C-0.28224 14.8755 -1.4512 17.7297 -2.49463 20.3315C-4.57492 25.5446 -6.09909 29.6739 -6.7499 31.4051C-4.25289 25.5194 -2.7172 20.7094 0.841419 12.6665C1.83658 10.494 1.6769 11.1165 1.78375 10.8814C3.65839 7.07367 2.11248 9.88999 3.36506 7.49871C3.4557 7.33736 3.76631 6.75583 4.32403 5.85912C4.92326 4.97563 5.5918 3.66037 7.60493 1.97121C8.19918 1.51043 8.89425 0.984466 10.1375 0.523687C11.2772 0.0670252 13.7105 -0.23714 15.7091 1.01399C17.6415 2.22799 18.2702 3.72992 18.6608 4.74818C19.0354 5.8154 19.1529 6.67219 19.224 7.47997C18.9437 18.6217 17.5082 29.337 17.974 26.6757ZM-19.6973 67.3524C-20.6147 69.6431 -29.5904 95.5736 -29.9152 96.6333C-32.4227 104.502 -20.3963 69.3721 -19.6973 67.3524ZM17.8564 30.7064C18.5304 26.1071 20.2216 4.13273 18.8042 19.1547C18.6656 20.6032 18.2568 26.5819 17.8564 30.7064ZM15.9898 105.28C16.0062 105.444 16.0772 106.476 16.2524 107.844C16.3426 108.537 16.4564 109.275 16.611 109.981C16.7454 110.652 17.0117 111.369 17.0079 111.319C16.9651 111.307 16.8921 110.852 15.718 110.207C15.1399 109.905 14.3045 109.747 13.6883 109.801C13.0674 109.847 12.687 110.004 12.472 110.103C12.0542 110.314 12.1234 110.328 12.1958 110.249C12.2821 110.171 12.4351 110.011 12.5827 109.837C13.2037 109.104 13.7179 108.303 13.7639 108.281C13.6374 108.482 13.3635 108.91 13.005 109.395C12.8306 109.631 12.632 109.882 12.452 110.082C12.29 110.273 12.0913 110.422 12.2441 110.313C12.3291 110.264 12.5331 110.114 13.069 109.975C13.6024 109.823 14.6419 109.812 15.4507 110.173C16.2482 110.511 16.6341 110.957 16.7837 111.139C16.9491 111.351 16.9461 111.386 16.932 111.351C16.8063 111.133 16.5084 110.049 16.3575 109.08C15.7393 104.934 15.7415 101.313 15.9898 105.28ZM15.982 97.4613C15.995 97.829 15.6994 94.234 15.9472 101.434C15.9519 101.557 15.9654 101.7 15.9863 101.927C16.0289 102.373 16.0908 103.104 16.2101 104.565C16.3409 105.928 16.4891 108.544 17.0883 110.791C17.1514 111.019 17.2424 111.253 17.2112 111.216C17.165 111.213 17.0224 110.725 15.8918 110.098C15.3472 109.808 14.6053 109.639 14.0508 109.643C13.4911 109.64 13.1121 109.742 12.8894 109.811C12.4427 109.964 12.3891 110.033 12.4238 110.012C12.6344 109.925 12.9849 109.78 13.5969 109.726C14.1918 109.666 15.0567 109.799 15.6878 110.121C16.9663 110.811 17.0249 111.33 17.045 111.307C16.9967 111.298 16.6675 110.33 16.4993 109.322C16.1179 107.213 15.9498 104.502 15.8823 101.931C15.6631 92.7468 15.8221 85.6642 15.982 97.4613ZM-20.0157 67.7772C-19.6078 66.35 -21.0163 69.6363 -21.9518 72.7211C-22.3514 74.0416 -21.3676 71.6541 -20.0157 67.7772ZM30.2606 79.3881C27.2016 83.7471 29.5732 78.0632 37.2697 72.8954C44.5548 67.995 54.8263 71.7494 55.2847 72.5194C54.9335 72.3772 52.5293 70.9437 48.8997 70.5188C45.2979 70.0371 40.7496 70.9304 37.3345 73.0062C32.6506 75.9127 30.6076 79.1077 30.2606 79.3881ZM438.894 174.967C438.894 174.974 438.893 174.982 438.892 174.989C439.621 167.409 439.023 172.089 439.055 171.734C440.476 155.577 440.323 159.894 440.607 157.368C441.202 151.973 440.778 152.793 441.789 143.695C440.138 158.752 441.539 145.034 441.456 144.596C441.121 142.863 439.769 164.697 438.894 172.213C438.776 173.259 439.388 165.505 439.075 168.186C438.076 176.9 436.019 204.051 438.894 174.967ZM-22.787 75.0653C-24.0888 78.3337 -32.6448 103.714 -30.2251 97.0379C-29.847 95.9587 -20.8924 70.2198 -22.787 75.0653ZM165.266 222.992C162.504 228.666 168.435 215.436 169.545 212.826C170.152 211.555 166.462 220.649 165.266 222.992ZM201.739 125.676C204.341 118.459 207.537 111.11 204.272 119.998C203.923 120.947 201.511 126.534 201.739 125.676ZM129.999 146.6C132.344 139.003 132.508 139.605 130.678 145.078C130.011 147.06 129.925 146.838 129.999 146.6ZM167.765 172.306C167.668 173.144 166.561 182.193 166.52 181.893C166.857 178.506 168.313 167.176 167.765 172.306ZM129.147 148.961C130.707 144.546 128.371 152.303 126.235 157.614C127.221 154.882 129.007 149.365 129.147 148.961ZM17.4522 47.0734C17.045 50.9805 16.534 62.0749 16.3578 68.4491C16.4766 69.1223 17.0652 51.6415 17.4522 47.0734ZM191.001 156.264C193.584 149.519 188.419 164.099 188.731 162.708C188.793 162.517 190.9 156.531 191.001 156.264ZM127.027 53.9039C126.374 59.1637 127.929 42.4072 127.657 47.0402C127.655 47.2404 127.065 53.6747 127.027 53.9039ZM97.6774 63.9998C97.9235 63.3331 98.3336 62.24 98.7954 61.02C100.97 55.2429 104.82 45.467 102.93 50.5551C102.675 51.2331 100.343 57.2767 98.8729 61.0496C98.2374 62.6753 97.7317 63.9463 97.6774 63.9998ZM440.785 156.933C440.772 159.089 441.924 146.668 442.057 144.877C442.111 144.172 440.808 154.119 440.785 156.933ZM145.697 97.3018C146.967 93.3654 150.196 83.1426 150.871 81.3819C149.297 86.1877 145.477 98.6499 145.697 97.3018ZM179.598 187.112C181.648 181.157 185.377 171.122 184.715 173.702C180.552 184.824 185.026 172.254 179.598 187.112ZM120.07 173.727C121.24 170.58 122.31 168.414 122.206 168.737C121.113 172.066 119.008 176.82 120.07 173.727ZM179.252 87.9581C179.346 88.1149 177.832 98.6913 177.957 97.2487C177.991 96.8372 179.191 87.7436 179.252 87.9581ZM64.5403 82.2924C65.6394 85.1837 65.0454 82.1087 62.2322 77.8848C59.6024 73.4444 52.5461 69.8085 49.1966 69.7828C47.4941 69.7517 53.0968 69.8288 57.6504 73.3546C62.3041 76.7397 64.3965 82.0198 64.5403 82.2924ZM110.307 189.427C110.366 189.3 110.267 190.361 110.113 191.793C109.652 195.989 108.777 203.568 109.175 198.858C109.27 197.75 109.665 194.274 109.981 191.777C110.144 190.492 110.281 189.485 110.307 189.427ZM129.134 31.109C129.047 33.6132 129 33.4466 129.013 31.709C129.006 30.8156 129.027 29.6292 128.895 27.8172C128.859 27.3812 128.811 26.8618 128.713 26.2431C128.588 25.6023 128.556 24.9554 127.911 23.464C127.469 22.7288 127.162 21.3178 124.341 19.8857C122.928 19.239 121.235 19.2124 120.144 19.4778C119.067 19.7223 118.372 20.1149 117.934 20.3786C116.202 21.5408 115.971 22.0777 115.497 22.5798C111.123 28.4542 109.741 33.4159 108.092 36.9341C106.66 40.3479 106.058 41.7496 107.382 38.3162C107.9 37.6113 109.797 30.2576 115.361 22.4662C115.604 22.1787 115.868 21.8681 116.298 21.4457C116.756 21.0442 117.197 20.4721 118.841 19.7155C119.627 19.3789 121.101 18.9252 122.899 19.2618C124.737 19.586 126.147 20.7198 126.764 21.4217C128.139 23.0505 128.192 23.7443 128.451 24.3882C129.087 26.6284 128.992 27.3579 129.083 28.3023C129.167 29.9653 129.134 30.8889 129.134 31.109ZM88.3541 87.9752C89.0073 86.1672 88.14 86.8745 85.5668 94.3913C85.2285 95.3784 87.073 90.8594 86.8073 91.6689C86.6469 92.1447 80.6912 108.367 80.404 109.109C80.0919 109.906 80.2742 108.899 79.9528 109.706C79.5898 110.616 76.0361 120.642 74.1034 125.862C70.4556 135.71 69.9268 136.708 69.626 137.518C68.7518 139.875 67.3893 143.859 65.6232 148.624C63.3674 154.709 60.8053 161.599 58.1162 168.804C56.2214 173.878 54.3057 179.002 52.3472 184.173C51.3708 186.748 50.3911 189.318 49.4193 191.796C48.9288 193.044 48.4368 194.28 47.9493 195.441C47.7096 196.011 47.468 196.568 47.2576 197.013C47.1542 197.234 47.0512 197.428 47.0573 197.415C47.0854 197.384 47.0594 197.356 47.467 196.862C47.6037 196.708 47.7002 196.59 48.0324 196.294C48.4167 195.991 48.6678 195.684 49.9122 195.167C50.821 194.701 53.5061 194.519 55.0388 195.411C56.6705 196.276 57.092 197.023 57.4613 197.504C58.1484 198.548 58.1998 199.104 58.2431 199.221C58.2834 199.399 58.2837 199.446 58.2816 199.424C58.2765 199.403 58.2589 199.146 58.2552 198.94C58.244 198.44 58.2578 197.843 58.2866 197.187C58.3434 195.912 58.4494 194.538 58.5639 193.207C58.7998 190.496 59.0804 187.835 59.354 185.262C59.9044 180.129 60.4262 175.418 60.8295 171.442C60.255 176.651 59.6568 181.734 59.0976 186.771C58.8241 189.252 58.5527 191.779 58.3447 194.193C58.2399 195.422 58.1527 196.605 58.1103 197.696C58.0996 197.979 58.0932 198.213 58.09 198.464C58.0868 198.729 58.0891 198.952 58.0943 199.121C58.1004 199.329 58.114 199.46 58.1121 199.448C58.1092 199.435 58.1002 199.359 58.0542 199.181C57.9913 198.981 57.8969 198.478 57.3158 197.604C57.0732 197.261 56.7824 196.856 56.1072 196.301C55.4007 195.721 54.2113 195.085 52.8051 194.955C49.8101 194.813 48.8475 195.965 48.3629 196.25C47.4038 197.073 47.4448 197.206 47.3066 197.362C47.1558 197.59 47.2189 197.508 47.2581 197.428C47.36 197.238 47.5341 196.871 47.6902 196.524C48.0202 195.791 48.3638 194.972 48.7033 194.146C49.3949 192.46 50.0594 190.772 50.7362 189.037C52.086 185.57 53.4175 182.073 54.7661 178.504C53.5965 181.136 56.5333 173.557 58.3297 168.883C59.6392 165.482 60.3439 163.656 58.2862 168.867C58.0312 169.514 57.7397 170.252 57.4137 171.077C57.6028 170.583 57.8834 169.844 58.2563 168.856C63.6305 154.622 86.3084 93.5239 88.3466 87.9953C88.3491 87.9886 88.3516 87.9819 88.3541 87.9752ZM211.796 97.2202C209.996 101.519 218.383 78.8882 219.477 77.0159C218.222 80.0946 212.035 96.561 211.796 97.2202ZM173.233 201.184C172.342 203.268 171.309 205.128 166.949 215.817C166.945 215.827 166.941 215.837 166.937 215.846C165.667 218.903 167.255 215.487 167.044 216.051C167.028 216.193 162.845 225.96 166.47 217.938C171.76 205.751 166.742 216.667 169.477 210.18C169.874 209.323 175.062 196.918 174.803 197.634C174.771 197.737 173.264 201.433 173.013 202.104C172.118 204.526 172.694 203.399 172.564 203.739C172.256 204.798 163.715 224.468 162.406 226.993C162.36 228.309 176.028 196.086 176.318 194.632C176.611 193.827 176.177 194.047 176.469 193.204C176.63 192.8 181.809 179.508 182.395 177.796C182.575 177.29 182.709 176.902 182.808 176.617C182.161 178.664 186.618 166.586 186.372 166.902C186.251 167.115 183.219 175.412 183.103 175.732C183.057 175.865 183.019 175.98 182.983 176.088C183.558 174.379 172.889 202.307 175.003 196.23C171.739 204.251 175.692 195.234 173.233 201.184ZM156.354 236.113C156.491 236.035 156.877 235.653 157.323 235.092C156.923 235.639 156.568 236.04 156.432 236.164C156.361 236.235 156.4 236.163 156.725 235.964C156.975 235.809 158.322 235.062 160.254 235.38C162.629 235.742 163.958 237.537 164.08 237.793C164.334 238.202 164.341 238.319 164.316 238.225C164.261 238.06 164.135 237.513 164.039 236.782C163.875 235.601 163.767 233.804 163.73 232.191C163.652 228.745 163.754 225.244 163.939 221.397C164.307 213.972 164.962 206.311 165.743 198.598C166.201 194.162 165.88 199.233 166.431 193.482C166.88 188.853 167.284 183.693 166.953 186.2C166.871 186.766 165.938 196.285 165.476 200.985C164.129 214.845 164.34 211.395 164.247 212.189C164.162 213.03 163.634 221.866 163.535 226.41C163.485 228.114 163.466 229.523 163.469 230.822C163.475 232.318 163.505 233.45 163.572 234.64C163.653 235.933 163.737 236.808 163.911 237.741C163.948 237.935 163.984 238.09 164.012 238.196C164.034 238.286 164.079 238.409 164.047 238.328C164.003 238.246 163.966 238.095 163.606 237.619C163.19 237.053 161.962 235.936 160.207 235.663C159.019 235.462 157.983 235.709 157.424 235.939C157.279 235.997 157.158 236.054 157.056 236.106C156.958 236.157 156.919 236.18 156.864 236.213C156.762 236.274 156.693 236.322 156.649 236.355C156.476 236.495 156.704 236.308 156.887 236.084C157.365 235.526 157.934 234.722 158.621 233.611C159.866 231.598 161.336 228.793 162.878 225.53C160.787 229.675 160.259 230.328 159.607 231.377C159.298 231.855 158.983 232.353 158.486 233.139C158.192 233.604 157.847 234.14 157.476 234.675C157.383 234.809 157.29 234.941 157.196 235.07C157.083 235.226 156.96 235.389 156.851 235.529C156.629 235.814 156.443 236.023 156.354 236.113ZM119.569 120.058C119.756 119.496 120.93 109.556 121.405 105.953C121.222 106.507 120.05 116.457 119.569 120.058ZM356.728 127.088C358.331 124.484 347.409 144.804 350.163 139.381C350.77 138.172 355.33 129.638 356.728 127.088ZM307.441 217.414C305.832 219.894 312.056 209.725 312.121 209.743C312.18 209.806 307.68 217.152 307.441 217.414ZM185.001 50.0683C185.074 49.7003 185.908 40.7439 185.867 40.5512C186.321 34.7651 183.435 63.3124 185.001 50.0683ZM310.879 135.187C310.077 145.912 312.061 113.582 311.597 123.47C311.579 123.973 310.923 134.663 310.879 135.187ZM313.129 89.8547C313.144 91.4324 313.074 95.7864 312.934 99.335C312.834 102.036 312.724 104.289 312.696 104.352C312.652 104.453 312.732 102.119 312.826 99.3308C312.97 95.4787 313.059 90.6812 313.129 89.8547ZM118.64 175.526C118.891 174.364 113.689 188.181 111.545 192.919C111.318 194.107 116.84 180.374 118.64 175.526ZM148.291 85.557C143.899 99.1222 140.8 109.019 138.763 115.63C134.328 129.892 134.871 128.511 138.919 115.678C141.289 108.096 144.911 96.5503 149.547 81.9797C149.443 81.8671 149.53 81.7322 148.291 85.557ZM123.234 162.715C124.145 160.588 126.462 153.89 128.023 149.252C127.664 150.05 124.44 159.474 123.234 162.715ZM370.856 102.514C368.579 105.271 363.602 113.978 361.599 117.743C360.828 119.178 360.452 119.919 360.916 119.126C360.975 119.026 361.258 118.521 361.672 117.784C363.849 113.65 371.294 101.618 370.856 102.514ZM185.736 44.7013C185.747 44.9677 185.814 44.5699 185.912 43.7185C186.021 42.7442 186.158 41.3141 186.266 39.8403C186.672 34.4321 187.114 26.3861 187.122 25.4464C187.228 20.9998 186.643 32.8224 186.147 39.8321C185.991 42.1859 185.773 44.4217 185.736 44.7013ZM111.318 188.913C111.864 185.589 112.932 176.148 113.7 170.023C113.213 172.79 111.913 183.778 111.318 188.913ZM99.9355 215.661C99.8081 215.868 98.3315 218.213 96.8587 220.197C96.9722 220.077 97.0094 219.877 97.9338 219.133C98.2004 218.931 98.5595 218.688 99.0514 218.45C99.5885 218.19 100.378 217.898 101.363 217.798C103.573 217.471 106.122 218.8 106.919 219.699C107.363 220.123 107.683 220.549 107.879 220.848C108.053 221.111 108.176 221.338 108.272 221.531C108.371 221.733 108.426 221.869 108.467 221.974C108.51 222.084 108.543 222.176 108.568 222.255C108.662 222.554 108.668 222.626 108.678 222.669C108.688 222.761 108.646 222.415 108.647 222.405C108.596 221.97 108.576 221.611 108.561 221.547C108.548 221.471 108.538 221.59 108.542 221.892C108.541 222.141 108.575 222.649 108.585 222.708C108.583 222.709 108.58 222.664 108.521 222.453C108.381 222.174 108.567 221.921 107.334 220.295C106.799 219.592 104.863 217.901 102.253 217.872C99.7942 217.877 98.7145 218.75 98.1273 219.125C97.0655 219.947 97.0699 220.141 96.9484 220.262C99.5266 216.837 102.093 212.2 99.9355 215.661ZM439.333 185.63C439.37 185.342 440.029 178.863 440.044 178.637C440.49 172.837 438.509 192.291 439.333 185.63Z" fill="#FFCC00"/>
</svg>
