<svg width="177" height="62" viewBox="0 0 177 62" fill="none" xmlns="http://www.w3.org/2000/svg">
<path d="M8.3513 42.3132C8.67895 42.4541 8.78955 42.8562 8.81676 43.2412C8.8253 43.3608 8.54596 43.5678 8.54317 43.6631C8.54062 43.8512 8.74458 43.8142 8.72704 44.0167C8.72095 44.0857 8.30813 44.4469 8.31197 44.5117C8.34008 44.8675 8.61981 44.9259 8.75305 45.1812C9.41974 46.4524 10.6424 47.3459 12.1189 48.167C12.5979 48.4369 13.1123 49.1335 13.7532 49.1025C13.8283 49.0986 13.928 48.6281 13.9523 48.5943C14.3271 48.0764 13.9808 48.9819 14.078 49.1451C14.453 49.7862 15.0581 49.9977 15.6298 49.9536C15.8727 49.9332 15.8844 48.9542 15.9768 49.5288C15.9837 49.5677 15.8015 50.0464 15.8501 50.1146C15.9603 50.2686 16.2551 50.2479 16.3513 50.3127C16.542 50.4417 16.5785 50.4452 16.7795 50.499C17.0598 50.5782 17.3182 50.8974 17.6481 50.8536C17.7182 50.8426 17.7477 50.3147 17.8694 50.2511C17.9948 50.1886 18.2441 50.2891 18.3096 50.4293C18.3736 50.5693 18.2476 50.9612 18.2435 51.0565C18.2068 51.8604 18.7577 50.8556 18.8038 50.8376C19.6249 50.54 20.1334 51.2827 20.8365 51.4214C21.3611 51.5235 21.9752 51.433 22.4748 51.558C23.0802 51.7111 23.5324 52.0845 24.1338 52.1484C24.1963 52.1555 24.2375 51.5394 24.314 51.5469C25.0233 51.6177 25.7017 51.7862 26.359 52.1919C26.455 52.2546 26.5496 52.3227 26.643 52.3968C26.7117 52.4516 26.5196 52.9644 26.5834 53.051C26.9636 53.5695 27.6036 54.7402 28.1916 52.4525C28.4915 52.5854 28.855 52.724 29.092 53.2238C29.2447 53.5453 29.0058 54.1105 29.2598 53.8845C29.3165 53.834 29.3003 53.3164 29.3805 53.2792C29.7183 53.123 30.051 53.3175 30.3876 53.0735C30.4552 53.0226 30.4669 52.5621 30.4899 52.4805C30.6779 51.8203 30.8604 52.9408 30.9158 53.024C31.3077 53.6442 31.6332 53.4166 32.024 53.4355C32.1154 53.44 32.0134 52.8209 32.1 52.8029C32.5427 52.7176 33.0021 52.7627 33.4473 53.018C33.5473 53.0762 33.4806 53.6062 33.5306 53.6608C33.7554 53.8947 33.748 52.899 33.9541 53.1018C33.9978 53.1431 34.0032 53.5945 34.0139 53.6434C34.1878 54.4111 34.2195 53.3047 34.2464 53.2784C34.6003 52.9187 34.9542 54.0401 35.3257 53.8346C35.3684 53.809 35.203 53.2539 35.325 53.2165C36.139 52.9631 37.0114 52.9734 37.9368 53.2301C38.0801 53.2693 38.0852 53.7077 38.1048 53.7574C38.426 54.5304 38.261 53.4326 38.2918 53.3824C38.5447 53.0132 39.0985 53.8248 38.9666 52.4938C39.9373 52.5324 40.7495 52.026 41.6721 51.817C42.1245 51.7206 42.6478 51.6849 43.2884 51.8341C43.3106 51.8388 43.5123 52.3457 43.556 52.3527C44.0903 52.4382 43.6535 51.7079 43.4668 50.6475C43.4233 50.3796 44.1717 51.4034 44.233 51.4751C44.4493 51.7445 44.743 52.5034 44.7943 52.5509C45.2117 52.916 43.9768 50.5381 44.2215 50.4127C44.2314 50.4127 44.4226 50.8688 44.4658 50.9018C44.6012 51.0056 44.5772 50.7977 44.7198 50.9152C45.0401 51.192 45.6918 52.321 45.5637 51.5327C45.5463 51.4308 44.7973 50.1077 45.0502 50.0554C45.1551 50.0342 45.5249 49.807 45.6777 49.8361C45.8316 49.8648 45.9911 50.3353 46.0087 50.3498C46.6102 50.7605 46.6277 51.0562 47.2376 51.8158C47.8488 52.5703 46.7116 50.5954 46.6502 50.339C46.5913 50.0821 47.0561 50.4359 47.2002 50.5683C47.3428 50.7017 47.4282 51.0102 47.5261 51.0761C48.1731 51.5025 47.1127 50.012 47.0386 49.6393C46.8597 48.7584 47.8819 50.1217 48.1799 50.1429C48.2611 50.1482 48.0227 49.841 48.0575 49.7798C48.1979 49.5418 48.587 49.9266 48.5885 49.368C48.5907 49.2759 48.2734 48.2861 48.7689 48.8605C48.8404 48.9433 49.0019 49.3364 49.1377 49.3666C49.3409 49.4124 49.6284 49.3511 49.7024 49.1445C49.7568 48.9919 49.283 48.4655 49.5266 48.5724C49.6354 48.6201 49.7297 49.0355 49.9172 49.0957C50.1057 49.1553 50.3721 48.9772 50.4733 48.9007C50.573 48.8249 50.2458 48.4072 50.2363 48.3715C50.1848 48.166 50.2604 47.8257 50.279 47.8153C51.1577 47.2162 52.4524 47.4666 53.1914 46.6654C53.2482 46.6041 52.9109 46.1602 52.9166 46.146C53.0287 45.8033 53.6195 47.1728 54.0444 47.4907C53.4278 46.5479 53.6322 46.6612 53.734 46.4527C53.7825 46.3514 53.5086 46.0082 53.4924 45.9657C53.2619 45.3292 53.7968 46.0039 53.9109 46.139C54.3306 46.6361 54.015 45.9365 54.2969 46.2677C54.5774 46.5961 54.7872 47.2115 54.9454 47.1032C54.7773 46.7329 54.0991 45.9144 54.1314 45.6929C54.2383 44.8651 55.5408 45.021 55.948 44.8638C56.3594 44.7042 56.4387 44.5653 56.7319 44.5511C57.2587 44.5271 56.6956 43.9593 56.7403 43.5059C56.7853 43.052 57.7081 44.7449 57.9656 45.0709C58.2227 45.3969 58.0299 45.0152 58.1949 45.1792C58.3597 45.3433 58.4204 45.6384 58.5656 45.6465C58.7109 45.6545 58.5851 44.8611 58.3861 44.4751C57.964 43.6575 57.3229 42.9273 57.7653 43.0438C57.791 43.051 58.017 43.5071 58.1016 43.5133C58.7641 43.549 59.256 43.2586 59.8963 43.2523C59.9848 43.2521 60.2363 43.7597 60.2914 43.7648C60.8662 43.8195 60.2129 43.1131 59.8433 42.0958C60.5641 43.2999 61.1482 43.9433 61.442 43.7606C61.6188 43.6513 61.2537 43.1583 61.1283 42.7243C61.0902 42.5937 61.4426 42.8654 61.3065 42.6101C60.8621 41.7755 60.1687 40.9701 60.6933 41.1274C60.7172 41.1355 60.9594 41.5931 61.0212 41.5898C61.4225 41.5702 60.9152 40.7251 61.162 40.4192C61.3568 40.1784 62.1186 40.3941 62.4519 40.2899C63.3182 41.6072 63.3825 41.131 62.8871 40.1549C63.0935 40.071 63.2525 39.8911 63.5101 39.8998C63.5985 39.9024 63.8126 40.3083 63.8475 40.3443C64.3932 40.9103 63.8842 39.9784 63.9 39.918C64.0976 39.3012 64.8887 39.7357 64.8527 38.816C64.8512 38.783 64.263 37.8588 64.8165 38.4501C64.8543 38.4912 64.9998 38.9939 65.2102 38.8987C65.4204 38.8038 66.1067 39.0491 66.0841 38.4519C66.0791 38.3078 65.741 37.4633 66.2589 37.9515C66.3289 38.018 66.4862 38.2908 66.6089 38.4188C67.0012 38.8257 66.4241 37.8797 67.0457 38.5945C67.6672 39.3092 68.2593 39.7587 68.1598 39.0419C68.1577 39.0205 67.7271 38.2524 67.8179 38.2074C67.9634 38.1363 68.2544 38.1593 68.3897 38.0602C68.4542 38.0125 68.105 37.5912 68.1109 37.5751C68.3841 37.0195 68.9746 37.2044 69.5704 37.0518C69.6803 37.0246 69.5108 36.2401 70.012 36.6084C70.5616 37.0109 71.8846 39.347 71.9522 38.5272C71.9811 38.198 70.2739 35.2539 71.5803 36.4884C71.9302 35.7178 72.9992 36.072 73.2421 35.1458C73.2532 35.1046 72.7984 34.2674 72.8691 34.234C72.9752 34.1858 73.2796 34.5132 73.3635 34.4903C73.7212 34.4038 73.7617 33.914 74.0652 33.7739C74.1801 33.7198 74.4056 34.1206 74.5434 34.0554C74.6809 33.9901 74.4175 33.4389 74.7505 33.5611C75.0031 33.6552 75.8352 34.5763 76.0841 34.5772C75.3931 33.5778 75.5217 33.5182 75.5396 33.1138C75.5427 33.0356 75.2582 32.7187 75.2471 32.6638C75.1964 32.4331 75.4674 32.6711 75.4026 32.4267C75.3873 32.3678 75.1496 32.0277 75.1236 31.9604C74.8931 31.3756 75.6283 31.9996 75.7559 32.1085C76.2417 32.5213 75.9921 32.0371 76.232 32.1654C76.4717 32.2938 76.4974 32.6473 76.699 32.6857C77.116 32.765 77.3883 32.4909 77.6465 32.3317C77.7477 32.2664 77.361 31.8615 77.368 31.8416C77.49 31.5834 78.035 31.9194 77.5091 30.9399C79.2984 33.1683 77.4695 30.6289 78.0896 30.8893C78.1392 30.9107 78.9491 31.9901 78.9755 32.2143C79.001 32.4387 78.6264 32.1874 78.6833 32.5254C78.6966 32.6048 79.2623 33.7532 79.2838 33.8318C79.4527 34.4454 78.2634 32.8173 78.1902 32.7335C77.3945 31.8327 77.9782 33.0878 77.9788 33.2025C77.9815 33.7285 77.6147 33.6402 77.5879 34.0356C77.5693 34.292 78.3163 35.381 78.188 35.4218C77.762 35.5581 76.5789 34.1381 77.1699 35.6745C77.2952 36.0027 78.1938 37.1354 77.2897 36.3832C77.2327 36.3358 76.4495 35.6168 76.7175 36.2308C76.7514 36.3082 76.993 36.6525 76.9952 36.6941C77.0055 36.9658 76.7328 36.7476 76.6929 36.9713C76.6525 37.1953 76.6324 37.5012 76.4008 37.4888C76.2616 37.4819 75.6974 36.9199 75.5445 36.7926C75.1065 36.4242 75.4933 37.2591 75.035 36.7626C74.5744 36.2637 74.1399 35.3215 73.6918 35.1038C74.3085 36.006 74.932 36.9386 75.5476 37.8492C75.0844 38.1245 74.453 38.1325 74.0378 38.4784C73.987 38.5222 74.3774 38.9665 74.3315 39.0259C74.1358 39.2748 73.6823 39.079 73.5197 39.3937C73.3953 39.6391 73.5295 40.302 73.4094 40.5749C72.5729 39.6325 72.5046 40.1946 72.2149 40.2547C72.1138 40.2761 71.9302 39.9971 71.8126 39.9456C71.3736 39.758 72.0972 40.6017 72.1376 40.7849C72.3079 41.5678 70.8737 39.5185 70.616 39.7695C70.602 39.7821 71.1641 41.0127 71.1846 41.0992C71.3234 41.66 70.8954 40.7348 70.7358 40.7244C70.4442 40.7054 70.1331 40.5322 70.1299 41.0068C70.13 41.1467 70.4411 41.9401 69.9533 41.4944C69.8894 41.4361 69.6509 41.0654 69.623 41.0531C69.1392 40.8618 69.9105 42.0117 70.0348 42.4941C70.159 42.9764 69.4081 42.3306 69.2101 42.1319C68.6965 41.619 69.1267 41.8205 69.0937 41.7584C68.6993 41.0203 68.6237 41.2446 68.4651 41.267C67.6869 40.1543 67.5664 40.3342 68.3038 41.2947C68.3847 41.3994 68.4064 41.2318 68.4651 41.267C69.1073 42.4409 69.0185 42.7069 68.1196 41.8119C67.6983 41.3923 67.4073 40.7681 67.2584 41.1687C67.1905 41.35 67.7635 42.0911 67.7903 42.3804C67.8508 43.0409 67.0211 42.5478 66.826 42.8441C66.7546 42.952 67.1363 43.3122 67.0973 43.4007C66.9944 43.6368 66.6221 43.424 66.5509 43.7083C66.5448 43.7346 66.8826 44.1531 66.8302 44.1964C66.4386 44.5329 65.8779 44.4943 65.4258 44.7833C65.2077 44.923 64.9868 45.4238 64.7306 45.5219C64.2857 45.6965 63.3807 45.3599 63.1552 45.7342C63.0059 45.9771 63.3462 46.3945 63.4533 46.7609C63.6606 47.4711 62.6486 46.6184 62.499 46.4816C62.4941 46.4771 62.6114 46.2495 62.3615 46.0843C61.9902 45.6423 62.4997 46.4782 62.499 46.4816C62.4014 46.394 61.9636 46.5344 61.946 46.668C61.9366 46.7409 62.2359 47.1517 62.2258 47.1818C61.971 47.8897 61.5412 48.3219 60.9031 48.4506C60.8885 48.4478 60.5946 47.9617 60.5642 47.961C60.1316 47.9394 60.3187 48.6447 60.2981 49.1477C60.2779 49.6502 60.0102 49.6573 59.3399 48.9286C59.2205 49.1503 58.7246 48.955 58.4333 48.8301C58.1421 48.7052 58.7127 49.6521 58.711 49.679C58.6718 50.5316 58.0812 50.1562 57.5969 50.3439C57.3666 50.431 57.0383 50.8252 56.8753 51.0688C56.748 51.2626 56.5044 51.109 56.4283 51.3509C56.4178 51.3834 56.6992 51.788 56.7024 51.8083C56.8296 52.422 56.2846 51.3444 56.134 51.1849C55.5883 50.6036 55.2839 50.3026 55.2402 50.761C55.2301 50.8661 55.9777 52.4399 55.9307 52.5875C55.8685 52.7763 55.593 52.2169 55.5367 52.4277C55.5316 52.4452 55.7337 52.7706 55.6417 52.807C55.2219 52.9775 54.6662 53.0537 54.2862 53.3268C54.2331 53.3631 54.6166 53.8415 54.5449 53.9026C54.2043 54.1912 53.7672 54.4252 53.2581 54.3952C53.1316 54.3864 52.972 53.9866 52.8883 53.8893C52.3793 53.3022 52.7657 54.363 52.7476 54.3981C52.334 55.2587 51.2971 54.6967 50.8358 55.5068C50.8108 55.5533 51.0879 56.7632 50.4562 55.9463C50.4135 55.8923 49.7744 55.0526 50.0056 55.741C50.0199 55.7841 50.3624 56.2092 50.193 56.2403C50.0288 56.2687 49.9566 56.7182 49.4726 56.3088C49.3189 56.1805 48.6745 55.3448 48.8819 56.1763C48.9006 56.2322 49.4872 58.0484 48.7678 56.9628C48.6503 56.7836 48.027 55.5624 48.1251 56.3052C48.1445 56.4489 48.3668 56.6778 48.3391 56.9079C48.2948 57.2634 47.9014 57.0537 47.9436 57.7179C47.9535 57.8343 48.2013 58.7525 47.7475 58.1897C47.6767 58.1014 47.5114 57.6722 47.4176 57.6619C46.9855 57.6036 46.7273 58.0705 46.245 57.9475C46.072 57.9058 45.8282 57.2027 45.6075 57.0868C45.387 56.971 45.0427 56.9184 45.0429 57.2881C45.0413 57.659 45.6733 58.6694 45.4959 58.8506C45.2529 59.0853 44.9665 59.2349 44.6685 59.328C43.9638 59.5453 43.135 59.4527 42.4016 59.617C42.2473 59.6513 42.5029 60.0124 42.284 60.0911C41.4866 60.3882 40.0982 61.1617 39.1786 60.4331C38.4562 59.851 39.0606 59.1659 38.5723 58.9688C38.3419 58.8738 38.3805 60.2623 38.333 60.3151C37.9044 60.8409 37.4514 60.2991 37.0258 60.5493C36.9364 60.6011 37.1079 61.1381 37.0305 61.1761C36.7683 61.3106 36.4377 61.1026 36.1822 61.1775C36.066 61.2125 36.1349 61.6319 36.0199 61.6115C35.743 61.5675 35.4966 61.4119 35.2058 61.0374C35.1801 61.0032 35.2894 60.464 35.0971 60.4605C34.7904 60.4559 34.3876 60.0904 34.0625 60.5128C33.9659 60.6397 34.0036 61.6098 33.7476 60.9501C33.6938 60.8121 33.7099 59.6461 33.4884 60.6614C33.456 60.8305 33.0362 62.2009 32.8017 61.3281C32.7396 61.0986 32.5858 60.147 32.4632 60.2974C32.4465 60.3214 32.5164 60.8422 32.4137 60.8935C32.0508 61.0648 31.6639 61.0046 31.2849 61.1573C31.1822 61.199 31.3189 61.7425 31.1644 61.7872C30.7418 61.9112 30.2216 61.7483 29.8318 61.5532C29.6868 61.4802 29.8199 61.0413 29.8121 60.9921C29.6946 60.1917 29.5184 61.2486 29.4562 61.3064C29.0737 61.6511 28.8368 61.1268 28.5047 61.2273C28.4114 61.2535 28.4244 61.7662 28.4019 61.8095C28.1688 62.2316 28.4014 61.3366 28.294 61.2243C27.9897 60.9058 27.6343 60.9055 27.2921 60.9269C27.1674 60.9355 27.2275 61.5384 27.117 61.5394C26.4593 61.556 25.7865 61.3948 25.2283 60.9665C25.1229 60.8847 25.275 60.45 25.2689 60.3436C25.2389 59.7475 24.9671 60.227 24.8186 60.4824C24.7846 60.5462 24.7581 60.5963 24.7447 60.6129C24.4378 60.9939 24.4233 60.5825 24.2104 60.6192C23.1826 60.8078 22.0093 60.3169 21.1237 59.9793C19.9575 59.5396 19.0934 58.9291 17.908 58.7976C17.8316 58.7884 17.784 59.396 17.7165 59.3956C16.8606 59.3658 16.081 58.9549 15.1936 58.9281C15.1216 58.9249 15.0915 59.5063 14.9711 59.5198C14.7199 59.5509 14.4257 59.4489 14.2359 59.2143C14.1428 59.1009 14.4117 58.6603 14.3163 58.556C14.0982 58.313 13.8105 58.199 13.5148 58.2177C13.3875 58.2265 13.4185 58.8398 13.2636 58.8068C12.1957 58.5902 11.0854 58.3798 10.215 57.2909C10.1551 57.216 10.4695 56.0653 10.2419 56.229C10.1232 56.5378 9.99788 56.9059 9.8782 57.2384C8.20624 56.8657 6.70406 55.7994 5.10266 54.8009C5.03404 54.7582 4.83995 55.3753 4.70313 55.2938C3.91956 54.8264 3.02982 54.4435 2.65285 53.3596C2.61576 53.2529 3.33416 52.4066 3.02401 52.3748C2.96817 52.3707 2.56513 52.2325 2.32878 52.3467C2.29399 52.3648 2.01784 52.8103 1.90492 52.7342C1.25642 52.2864 0.732416 51.6183 0.450946 50.8519C0.406009 50.7273 0.897762 50.4455 0.870547 50.3547C0.684359 49.7245 -0.0484154 49.5071 0.00240111 48.7597C0.0466616 48.2676 0.884472 47.7902 1.52492 47.0815C1.61557 46.9822 1.51088 46.8069 1.94471 46.4743C3.03585 45.6393 4.29536 44.8123 5.45116 43.9124C5.70045 43.7195 5.30403 43.753 5.99137 43.4016C6.03774 43.3788 6.32737 43.345 6.55423 43.2161C6.71117 43.1274 7.1306 42.7607 7.341 42.6596C7.55034 42.5575 7.21025 42.8798 7.46882 42.7747C7.72889 42.6657 8.20778 42.2526 8.3513 42.3132ZM57.1258 48.2743C56.7016 47.9142 57.717 49.5724 57.6223 49.0822C57.6165 49.0565 57.147 48.2917 57.1258 48.2743ZM73.6191 36.9259C72.9534 36.3441 73.5496 37.4648 74.0521 37.9223C74.5544 38.3791 73.8213 37.1021 73.6191 36.9259ZM75.098 35.1344C74.5051 34.7238 76.0499 37.0074 75.9524 36.3959C75.9472 36.3611 75.1325 35.1581 75.098 35.1344ZM2.23339 47.5491C2.25167 47.5309 2.17989 47.4029 2.15788 47.4161C1.62736 47.7424 1.77726 48.0058 2.23339 47.5491ZM76.5249 33.3021C76.2461 33.0423 76.3079 33.525 76.6547 33.8481C76.9339 34.1078 76.8721 33.625 76.5249 33.3021ZM48.6544 50.9647C48.6378 50.9408 48.5429 50.9647 48.6254 51.1062C48.891 51.5619 48.9324 51.3672 48.6544 50.9647ZM79.5827 31.0994C79.0702 31.3368 77.476 29.6758 78.1176 29.535C78.2337 29.5095 78.3463 30.2635 78.5788 30.3501C79.0036 30.5069 78.3116 29.2444 78.9665 29.7185C79.0862 29.8055 79.6151 31.0898 79.5837 31.1025C79.5834 31.1015 79.583 31.1004 79.5827 31.0994ZM55.7994 46.3501C55.7828 46.3301 55.6576 46.3802 55.6685 46.4035C55.9364 46.9641 56.1894 46.8632 55.7994 46.3501ZM43.1962 52.4625C43.1657 52.4166 42.8762 52.4907 42.8892 52.5398C43.1536 53.5276 43.7592 53.3721 43.1962 52.4625ZM62.4795 40.322C62.2558 39.7252 62.3584 39.5693 62.8861 40.1546C62.7438 40.1996 62.6204 40.2743 62.4795 40.322ZM90.537 18.446C90.6651 17.8574 91.2331 17.2437 91.7519 16.8838C91.9174 16.7644 92.1586 17.0285 92.2852 16.9564C92.532 16.8166 92.5164 16.5299 92.7849 16.4136C92.8749 16.3766 93.2744 16.7616 93.3578 16.7169C93.8061 16.4788 93.948 16.0317 94.3132 15.7282C96.1191 14.2252 97.7871 12.7241 99.6764 11.4516C100.302 11.0275 101.304 10.8772 101.79 10.2684C101.847 10.1964 101.527 9.83581 101.518 9.79384C101.39 9.14488 101.873 9.98761 102.087 9.99602C102.933 10.0272 103.568 9.67512 104.025 9.18863C104.219 8.98098 103.5 8.3005 104.01 8.62028C104.044 8.64185 104.241 9.11591 104.333 9.12527C104.54 9.14568 104.771 8.90948 104.904 8.88155C105.162 8.83012 105.195 8.80613 105.405 8.69917C105.695 8.55685 106.148 8.60633 106.401 8.35054C106.455 8.2944 106.134 7.8718 106.2 7.73966C106.266 7.6073 106.567 7.50911 106.715 7.57469C106.863 7.64 107 8.02896 107.057 8.10566C107.533 8.75632 107.381 7.61444 107.414 7.5698C107.981 6.79738 108.891 7.08816 109.597 6.79868C110.135 6.57636 110.638 6.15996 111.165 5.99287C111.789 5.79721 112.403 5.87657 112.978 5.62329C113.039 5.59708 112.762 5.04423 112.837 5.01094C113.626 4.65885 114.454 4.45059 115.382 4.578C115.476 4.59135 115.542 5.13641 115.646 5.18035C116.274 5.43745 117.374 6.19428 116.93 3.87277C117.287 3.85124 117.712 3.8106 118.155 4.16182C118.439 4.38784 118.441 5.00516 118.593 4.69099C118.627 4.62079 118.398 4.15585 118.462 4.08745C118.73 3.8002 119.144 3.8377 119.381 3.47773C119.429 3.40333 119.264 2.97335 119.256 2.88858C119.196 2.20045 119.811 3.16315 119.894 3.21988C120.521 3.64107 120.756 3.30959 121.161 3.18302C121.255 3.15387 120.94 2.60921 121.023 2.56032C121.348 2.37443 121.708 2.26122 122.1 2.25763C122.236 2.25208 122.376 2.25867 122.518 2.27874C122.65 2.29886 122.722 2.83156 122.793 2.86685C123.101 3.01812 122.833 2.05889 123.13 2.18662C123.192 2.21256 123.306 2.64957 123.33 2.69371C123.707 3.38773 123.481 2.30371 123.509 2.26928C123.847 1.81299 124.463 2.82791 124.835 2.55187C124.879 2.51785 124.61 2.0015 124.744 1.93915C125.647 1.51869 126.716 1.41999 127.74 1.6676C127.9 1.70521 127.886 2.14643 127.906 2.19609C128.224 2.97214 128.091 1.87039 128.131 1.81956C128.452 1.44697 128.968 2.29137 128.978 0.9493C130.647 1.09938 132.145 0.134068 133.857 1.12147C133.879 1.13271 133.906 1.67781 133.949 1.69792C134.459 1.94695 134.268 1.11717 134.476 0.0530366C134.529 -0.214301 134.906 1.00278 134.936 1.09183C135.049 1.41952 135.051 2.23381 135.084 2.29614C135.35 2.78488 135.043 0.122641 135.341 0.0922294C135.351 0.0957658 135.361 0.590409 135.39 0.636769C135.481 0.782528 135.537 0.580171 135.628 0.742039C135.836 1.11683 136.015 2.40759 136.204 1.62956C136.228 1.5287 136.041 0.019299 136.311 0.0675009C136.418 0.0878216 136.885 0.0224359 137.02 0.110679C137.157 0.198397 137.107 0.693737 137.118 0.714133C137.515 1.33244 137.405 1.61049 137.649 2.55338C137.891 3.49304 137.674 1.22469 137.726 0.965802C137.779 0.707564 138.072 1.22217 138.147 1.4032C138.223 1.58422 138.167 1.90012 138.229 2.00117C138.642 2.66143 138.313 0.861863 138.41 0.49283C138.64 -0.380704 138.973 1.29131 139.241 1.44102C139.315 1.48144 139.234 1.10074 139.295 1.06107C139.537 0.909162 139.718 1.42693 139.974 0.929159C140.016 0.848039 140.194 -0.17849 140.38 0.558765C140.407 0.665101 140.368 1.08856 140.478 1.17756C140.644 1.31112 140.933 1.38984 141.098 1.24185C141.219 1.13235 141.044 0.445445 141.213 0.653932C141.288 0.747083 141.174 1.15812 141.313 1.29934C141.451 1.44048 141.784 1.4095 141.911 1.39087C142.038 1.37187 141.949 0.848517 141.958 0.812707C142.013 0.6074 142.25 0.345161 142.272 0.345098C143.373 0.24368 144.4 1.10918 145.459 0.80383C145.542 0.780653 145.48 0.226319 145.493 0.217062C145.778 -0.0183506 145.567 1.45932 145.77 1.95132C145.731 0.825463 145.852 1.0282 146.051 0.903297C146.148 0.842212 146.092 0.406515 146.101 0.361816C146.241 -0.301448 146.347 0.553561 146.373 0.728439C146.471 1.37174 146.572 0.610711 146.638 1.04082C146.704 1.46772 146.558 2.10126 146.749 2.09264C146.802 1.68938 146.656 0.636208 146.803 0.465142C147.359 -0.182669 148.393 0.649306 148.836 0.740639C149.279 0.831296 149.423 0.759223 149.679 0.9088C150.141 1.17977 149.983 0.39549 150.281 0.0430869C150.58 -0.30893 150.4 1.61115 150.434 2.02531C150.466 2.43928 150.519 2.01488 150.565 2.24306C150.611 2.47118 150.496 2.74994 150.613 2.83769C150.729 2.92527 151.069 2.19769 151.122 1.76661C151.234 0.853217 151.109 -0.111413 151.419 0.234126C151.437 0.254624 151.365 0.758655 151.433 0.811514C151.976 1.21474 152.55 1.25613 153.09 1.61922C153.164 1.66994 153.076 2.22983 153.119 2.26571C153.564 2.64143 153.433 1.68773 153.725 0.644068C153.616 2.04331 153.723 2.90556 154.069 2.92751C154.277 2.94129 154.266 2.32793 154.419 1.90218C154.465 1.77384 154.595 2.20018 154.634 1.91356C154.762 0.976698 154.667 -0.0824569 155.01 0.352528C155.025 0.373147 154.952 0.885814 155.005 0.919392C155.349 1.13915 155.437 0.157288 155.826 0.0563339C156.132 -0.0228646 156.633 0.603644 156.971 0.719606C156.88 2.29354 157.218 1.95025 157.409 0.87222C157.628 0.928908 157.87 0.881172 158.074 1.04364C158.144 1.09908 158.07 1.55193 158.076 1.60171C158.171 2.38235 158.331 1.33245 158.381 1.29393C158.924 0.922884 159.291 1.74931 159.835 1.00037C159.855 0.973381 159.956 -0.117442 160.035 0.689291C160.04 0.744859 159.844 1.23102 160.073 1.28512C160.304 1.33931 160.698 1.95515 161.054 1.47206C161.139 1.35569 161.403 0.483459 161.511 1.18792C161.525 1.28355 161.479 1.59508 161.496 1.77163C161.553 2.33429 161.69 1.23444 161.735 2.18084C161.78 3.12721 161.963 3.84725 162.333 3.22536C162.345 3.20736 162.489 2.33858 162.589 2.36042C162.751 2.39609 162.967 2.59674 163.137 2.6048C163.218 2.60835 163.211 2.06115 163.225 2.05236C163.796 1.79265 164.143 2.30927 164.71 2.57043C164.813 2.61932 165.186 1.90658 165.339 2.51017C165.507 3.17097 165.034 5.81327 165.611 5.22641C165.841 4.99182 166.427 1.63857 166.636 3.42466C167.182 3.1687 167.641 3.57199 168.132 3.64178L168.025 3.62054C168.223 3.68776 168.439 3.69983 168.7 3.58829C168.739 3.57152 169.121 2.69841 169.193 2.73454C169.299 2.7897 169.226 3.23113 169.296 3.28393C169.586 3.51633 170.006 3.2559 170.307 3.41979C170.42 3.48092 170.232 3.90005 170.366 3.97297C170.5 4.04552 170.793 3.5093 170.891 3.85208C170.965 4.11305 170.698 5.3251 170.839 5.52807C171.256 4.38695 171.379 4.45764 171.725 4.24182C171.791 4.19986 171.887 3.78469 171.926 3.74436C172.089 3.57148 172.049 3.93035 172.214 3.73797C172.254 3.69188 172.398 3.30262 172.438 3.24297C172.791 2.72115 172.7 3.6827 172.683 3.84965C172.663 4.05653 172.677 4.14507 172.706 4.17979C172.766 4.25178 172.89 4.09305 172.912 4.27583C172.943 4.54674 172.664 4.76728 172.749 4.95585C172.924 5.34593 173.308 5.41714 173.586 5.5413C173.698 5.58843 173.814 5.04051 173.835 5.0352C174.119 4.99141 174.151 5.63218 174.668 4.64762C173.832 7.38059 174.907 4.44154 175.043 5.10249C175.054 5.15568 174.614 6.43153 174.443 6.57893C174.272 6.72617 174.266 6.27357 174.017 6.51001C173.958 6.56532 173.324 7.67807 173.272 7.74011C172.858 8.22465 173.534 6.32523 173.562 6.21741C173.857 5.05208 173.147 6.24098 173.053 6.30641C172.622 6.60585 172.482 6.2515 172.14 6.45297C171.951 6.56296 171.582 7.46706 171.409 7.68839C171.378 7.72797 171.354 7.74574 171.338 7.73326C170.987 7.46152 171.479 5.67962 170.563 7.04639C170.368 7.33824 169.957 8.72379 170.061 7.55562C170.069 7.48224 170.207 6.42923 169.868 7.0061C169.825 7.07891 169.686 7.47587 169.655 7.50229C169.447 7.67159 169.47 7.32468 169.274 7.42683C169.078 7.52911 168.83 7.69772 168.714 7.50829C168.644 7.39492 168.763 6.60907 168.774 6.41086C168.811 5.84106 168.386 6.65625 168.508 5.99236C168.626 5.32408 169.109 4.40561 169.009 3.91795C168.67 4.95691 168.313 6.02012 167.968 7.0639C167.681 6.94801 167.43 6.72029 167.159 6.54082L167.823 6.67183C167.63 6.59322 167.435 6.53327 167.231 6.53145C167.165 6.53195 167.173 7.12324 167.101 7.13887C166.796 7.20242 166.571 6.75963 166.251 6.89648C166.001 7.00453 165.682 7.59927 165.419 7.73226C165.382 6.47296 164.969 6.8615 164.714 6.72403C164.623 6.67633 164.659 6.34423 164.602 6.22976C164.385 5.806 164.406 6.91727 164.322 7.08441C163.961 7.79787 164.151 5.30378 163.791 5.33506C163.771 5.33581 163.433 6.64529 163.395 6.72547C163.153 7.24847 163.401 6.26028 163.285 6.15179C163.074 5.95359 162.941 5.62323 162.642 5.99096C162.554 6.09997 162.301 6.91339 162.201 6.26082C162.188 6.17536 162.233 5.73688 162.219 5.7099C161.964 5.25845 161.849 6.6385 161.649 7.09352C161.449 7.54845 161.266 6.57623 161.234 6.29762C161.15 5.57676 161.361 6.00164 161.374 5.93247C161.523 5.109 161.325 5.23785 161.186 5.15716C161.266 3.80158 161.057 3.86807 161.043 5.07897C161.041 5.21125 161.162 5.09316 161.186 5.15716C160.962 6.47634 160.733 6.6306 160.58 5.3718C160.508 4.78184 160.663 4.11072 160.3 4.33479C160.135 4.43596 160.131 5.37278 159.976 5.61758C159.621 6.17612 159.269 5.27885 158.936 5.39535C158.815 5.43765 158.897 5.95564 158.814 6.00216C158.592 6.12727 158.427 5.73238 158.2 5.91569C158.18 5.93295 158.195 6.47052 158.128 6.47331C157.619 6.50499 157.203 6.1376 156.674 6.09982C156.418 6.0817 155.951 6.35367 155.69 6.28166C155.24 6.15973 154.711 5.35637 154.312 5.52933C154.052 5.63985 154.086 6.17756 153.962 6.53794C153.725 7.23655 153.402 5.95605 153.359 5.75813C153.357 5.75155 153.581 5.63348 153.474 5.35428C153.427 4.77906 153.361 5.75574 153.359 5.75813C153.331 5.6301 152.897 5.49307 152.807 5.59266C152.757 5.64701 152.767 6.15524 152.742 6.174C152.143 6.60854 151.558 6.72084 150.974 6.46959C150.964 6.45909 150.993 5.89181 150.969 5.87421C150.631 5.6138 150.396 6.30375 150.108 6.71078C149.819 7.11769 149.6 6.97619 149.447 5.99907C149.233 6.11861 148.934 5.68395 148.76 5.42069C148.585 5.1574 148.551 6.2625 148.535 6.2842C148.048 6.97938 147.777 6.34524 147.278 6.24603C147.04 6.1969 146.57 6.35814 146.315 6.48056C146.114 6.57904 145.991 6.32091 145.805 6.48816C145.78 6.5105 145.81 7.00239 145.803 7.02141C145.601 7.61211 145.689 6.40816 145.644 6.19371C145.48 5.41398 145.377 4.99883 145.113 5.36998C145.052 5.45498 144.899 7.18969 144.79 7.2928C144.648 7.42371 144.692 6.80194 144.543 6.955C144.531 6.96754 144.541 7.35046 144.447 7.33532C144.011 7.27008 143.534 7.05844 143.086 7.10996C143.025 7.11553 143.122 7.72055 143.034 7.73861C142.62 7.82294 142.167 7.81633 141.755 7.54841C141.653 7.48057 141.697 7.05299 141.671 6.92765C141.507 6.16936 141.363 7.28713 141.334 7.30962C140.621 7.87552 140.007 6.9015 139.284 7.42597C139.244 7.45655 139.012 8.66445 138.806 7.65525C138.792 7.58808 138.581 6.55549 138.508 7.27667C138.503 7.32177 138.627 7.8521 138.473 7.80809C138.319 7.76425 138.106 8.14003 137.856 7.56689C137.778 7.3863 137.539 6.35973 137.413 7.20357C137.404 7.26243 137.264 9.1589 137.047 7.87719C137.011 7.66622 136.909 6.29837 136.739 7.01948C136.707 7.15922 136.814 7.45664 136.715 7.65735C136.565 7.96652 136.296 7.62288 136.14 8.25202C136.112 8.36343 136.045 9.30538 135.845 8.61571C135.814 8.50771 135.806 8.04833 135.732 8.00439C135.381 7.7935 135.078 8.13457 134.716 7.85777C134.586 7.76085 134.56 7.01871 134.413 6.8363C134.267 6.6539 133.995 6.49496 133.909 6.84668C133.824 7.19844 134.109 8.35123 133.934 8.46866C133.177 8.97898 132.287 8.40977 131.465 8.44504C131.345 8.45003 131.513 8.84965 131.342 8.8869C130.702 9.02599 129.713 9.62336 128.989 8.86806C128.402 8.26323 128.829 7.60706 128.428 7.39754C128.229 7.29975 128.365 8.67656 128.338 8.7273C128.066 9.24251 127.673 8.71499 127.382 8.98411C127.324 9.03954 127.533 9.55919 127.483 9.60025C127.313 9.74497 127.047 9.56122 126.878 9.65652C126.804 9.70037 126.935 10.1044 126.851 10.0945C126.651 10.0761 126.445 9.95158 126.155 9.62489C126.128 9.59529 126.08 9.05729 125.941 9.07992C125.72 9.11678 125.323 8.8327 125.208 9.30042C125.175 9.44086 125.491 10.3578 125.12 9.77777C125.043 9.65667 124.692 8.54479 124.854 9.55586C124.862 9.60497 124.882 9.75797 124.897 9.93023C124.901 10.359 124.84 10.9111 124.5 10.3752C124.373 10.176 123.929 9.32254 123.873 9.50137C123.866 9.52905 124.099 9.99939 124.028 10.0788C123.774 10.3495 123.425 10.413 123.159 10.6776C123.088 10.7493 123.392 11.2149 123.28 11.3056C122.975 11.5553 122.489 11.576 122.096 11.5301C121.951 11.5124 121.895 11.0599 121.87 11.0169C121.472 10.3166 121.726 11.3572 121.697 11.4326C121.513 11.8876 121.125 11.4883 120.892 11.7055C120.827 11.7642 121.041 12.2293 121.04 12.2774C121.023 12.7503 120.852 11.8441 120.721 11.7815C120.352 11.6033 120.056 11.744 119.799 11.8973C119.704 11.9543 120.004 12.4769 119.917 12.5216C119.403 12.7981 118.83 12.9275 118.208 12.7911C118.091 12.7643 118.009 12.3127 117.956 12.221C117.587 11.5786 117.695 12.5864 117.678 12.6917C117.601 13.1717 117.391 12.8184 117.228 12.9525C116.431 13.614 115.256 13.7418 114.384 13.8908C113.254 14.0853 112.29 14.0042 111.387 14.5235C111.33 14.556 111.634 15.0822 111.589 15.117C110.995 15.5395 110.271 15.624 109.743 16.0975C109.7 16.1351 110.036 16.6056 109.977 16.6824C109.858 16.8434 109.647 16.9225 109.4 16.8502C109.28 16.8162 109.145 16.3286 109.028 16.3039C108.753 16.246 108.535 16.325 108.397 16.514C108.339 16.5952 108.756 17.029 108.66 17.0943C108.008 17.5532 107.468 18.0364 106.389 17.9042C106.316 17.8947 105.55 16.9804 105.594 17.2359C105.791 17.5021 106.03 17.8081 106.245 18.0889C105.484 18.9253 104.409 19.3651 103.598 20.1806C103.564 20.2142 104.09 20.573 104.029 20.6387C103.676 21.0255 103.504 21.5133 102.669 21.5824C102.588 21.5894 101.713 20.9039 101.748 21.1405C101.755 21.1825 101.725 21.4767 101.885 21.6693C101.91 21.6973 102.359 21.9596 102.325 22.0333C102.122 22.4596 101.763 22.7908 101.244 23.0334C101.16 23.0715 100.731 22.7144 100.667 22.74C100.208 22.9299 100.351 23.5245 99.7285 23.621C99.3065 23.6923 98.5124 23.1556 97.6122 22.8483C97.4849 22.8052 97.3834 22.9537 96.8941 22.7107C95.663 22.1004 94.3727 21.3211 93.0558 20.6794C92.772 20.541 92.9439 20.9488 92.3436 20.4499C92.3035 20.4161 92.1749 20.1151 91.9704 19.9487C91.8292 19.8334 91.3067 19.6329 91.1393 19.4598C90.9725 19.286 91.4223 19.4318 91.244 19.1957C91.0634 18.9572 90.4807 18.7048 90.537 18.446ZM147.972 4.24562C147.81 3.71397 147.778 5.65796 147.956 5.19373C147.965 5.16898 147.98 4.27171 147.972 4.24562ZM167.915 5.078C167.788 4.20316 167.515 5.44295 167.599 6.11702C167.682 6.79033 167.953 5.3432 167.915 5.078ZM169.823 5.05805C169.802 4.33712 168.891 6.93943 169.314 6.49383C169.338 6.46877 169.824 5.09987 169.823 5.05805ZM97.713 22.1037C97.6894 22.0928 97.6059 22.191 97.6268 22.2062C98.1349 22.563 98.2987 22.3713 97.713 22.1037ZM172.137 5.16043C172.192 4.78297 171.829 5.10828 171.761 5.57745C171.707 5.95475 172.069 5.62975 172.137 5.16043ZM139.305 2.38788C139.301 2.35911 139.203 2.33888 139.215 2.50223C139.253 3.02828 139.378 2.87169 139.305 2.38788ZM175.717 6.46185C175.226 6.16683 175.706 3.91457 176.19 4.37085C176.278 4.45343 175.711 4.96658 175.771 5.2085C175.882 5.6496 176.546 4.37139 176.523 5.18152C176.519 5.32959 175.743 6.48343 175.715 6.46447C175.715 6.4636 175.716 6.46272 175.717 6.46185ZM147.889 1.91002C147.886 1.88429 147.752 1.85931 147.749 1.8848C147.674 2.50168 147.942 2.55233 147.889 1.91002ZM133.558 1.69262C133.543 1.639 133.225 1.62684 133.221 1.67834C133.186 2.69963 133.822 2.72819 133.558 1.69262ZM156.974 0.761887C157.154 0.149703 157.335 0.0863836 157.409 0.87139C157.265 0.821975 157.119 0.807885 156.974 0.761887Z" fill="#FFCC00"/>
</svg>
