<svg width="25" height="21" viewBox="0 0 25 21" fill="none" xmlns="http://www.w3.org/2000/svg">
<path d="M11.375 10.5C11.375 10.7321 11.2828 10.9546 11.1187 11.1187C10.9546 11.2828 10.7321 11.375 10.5 11.375H5.25C5.01794 11.375 4.79538 11.2828 4.63128 11.1187C4.46719 10.9546 4.375 10.7321 4.375 10.5C4.375 10.2679 4.46719 10.0454 4.63128 9.88128C4.79538 9.71719 5.01794 9.625 5.25 9.625H10.5C10.7321 9.625 10.9546 9.71719 11.1187 9.88128C11.2828 10.0454 11.375 10.2679 11.375 10.5ZM10.5 6.125H5.25C5.01794 6.125 4.79538 6.21719 4.63128 6.38128C4.46719 6.54538 4.375 6.76794 4.375 7C4.375 7.23206 4.46719 7.45462 4.63128 7.61872C4.79538 7.78281 5.01794 7.875 5.25 7.875H10.5C10.7321 7.875 10.9546 7.78281 11.1187 7.61872C11.2828 7.45462 11.375 7.23206 11.375 7C11.375 6.76794 11.2828 6.54538 11.1187 6.38128C10.9546 6.21719 10.7321 6.125 10.5 6.125ZM22.75 13.2858V20.125C22.7514 20.2793 22.712 20.4311 22.6357 20.5653C22.5595 20.6994 22.4492 20.8109 22.3159 20.8887C22.1827 20.9664 22.0312 21.0075 21.877 21.0079C21.7227 21.0082 21.5711 20.9678 21.4375 20.8906L18.8125 19.3878L16.1875 20.8906C16.0539 20.9678 15.9023 21.0082 15.748 21.0079C15.5938 21.0075 15.4423 20.9664 15.3091 20.8887C15.1758 20.8109 15.0655 20.6994 14.9893 20.5653C14.913 20.4311 14.8736 20.2793 14.875 20.125V17.5H1.75C1.28587 17.5 0.840752 17.3156 0.512563 16.9874C0.184374 16.6592 0 16.2141 0 15.75V1.75C0 1.28587 0.184374 0.840752 0.512563 0.512563C0.840752 0.184374 1.28587 0 1.75 0H21C21.4641 0 21.9092 0.184374 22.2374 0.512563C22.5656 0.840752 22.75 1.28587 22.75 1.75V5.08922C23.3031 5.6189 23.7433 6.25508 24.044 6.95941C24.3447 7.66374 24.4998 8.42166 24.4998 9.1875C24.4998 9.95334 24.3447 10.7113 24.044 11.4156C23.7433 12.1199 23.3031 12.7561 22.75 13.2858ZM14.875 15.75V13.2858C13.9215 12.3662 13.3189 11.1426 13.1711 9.82616C13.0234 8.50971 13.3399 7.18299 14.0659 6.07494C14.7919 4.96689 15.8819 4.14701 17.1478 3.75679C18.4137 3.36657 19.7762 3.43048 21 3.9375V1.75H1.75V15.75H14.875ZM21 14.4375C20.307 14.727 19.5635 14.8761 18.8125 14.8761C18.0615 14.8761 17.318 14.727 16.625 14.4375V18.6178L18.375 17.6159C18.5072 17.5404 18.6569 17.5006 18.8092 17.5006C18.9615 17.5006 19.1112 17.5404 19.2434 17.6159L20.9934 18.6178L21 14.4375ZM22.75 9.1875C22.75 8.40874 22.5191 7.64746 22.0864 6.99994C21.6538 6.35242 21.0388 5.84774 20.3193 5.54972C19.5998 5.2517 18.8081 5.17373 18.0443 5.32566C17.2805 5.47759 16.5789 5.8526 16.0283 6.40327C15.4776 6.95394 15.1026 7.65553 14.9507 8.41933C14.7987 9.18313 14.8767 9.97483 15.1747 10.6943C15.4727 11.4138 15.9774 12.0288 16.6249 12.4614C17.2725 12.8941 18.0337 13.125 18.8125 13.125C19.3296 13.125 19.8416 13.0232 20.3193 12.8253C20.797 12.6274 21.2311 12.3374 21.5967 11.9717C21.9624 11.6061 22.2524 11.172 22.4503 10.6943C22.6482 10.2166 22.75 9.70458 22.75 9.1875Z" fill="#212236"/>
</svg>
