<svg width="21" height="25" viewBox="0 0 21 25" fill="none" xmlns="http://www.w3.org/2000/svg">
<path d="M21 6.89062V7C21 8.16032 20.5391 9.27312 19.7186 10.0936C18.8981 10.9141 17.7853 11.375 16.625 11.375H12.25V20.125H13.125C13.4796 20.1252 13.8258 20.0177 14.1179 19.8167C14.41 19.6157 14.6341 19.3307 14.7607 18.9995C14.8872 18.6683 14.9101 18.3065 14.8264 17.9619C14.7428 17.6174 14.5564 17.3064 14.292 17.0702C14.1279 16.9133 14.0311 16.6987 14.0222 16.4718C14.0133 16.245 14.0929 16.0235 14.2443 15.8542C14.3956 15.685 14.6069 15.5812 14.8334 15.5648C15.0598 15.5484 15.2838 15.6207 15.458 15.7664C15.9862 16.239 16.3586 16.8608 16.5257 17.5495C16.6929 18.2383 16.647 18.9616 16.3941 19.6237C16.1412 20.2859 15.6933 20.8556 15.1096 21.2576C14.5258 21.6596 13.8338 21.8749 13.125 21.875H12.25V23.625C12.25 23.8571 12.1578 24.0796 11.9937 24.2437C11.8296 24.4078 11.6071 24.5 11.375 24.5C11.1429 24.5 10.9204 24.4078 10.7563 24.2437C10.5922 24.0796 10.5 23.8571 10.5 23.625V21.875H7.875C7.64294 21.875 7.42038 21.7828 7.25628 21.6187C7.09219 21.4546 7 21.2321 7 21C7 20.7679 7.09219 20.5454 7.25628 20.3813C7.42038 20.2172 7.64294 20.125 7.875 20.125H10.5V11.375H7.875C7.41087 11.375 6.96575 11.5594 6.63756 11.8876C6.30937 12.2158 6.125 12.6609 6.125 13.125C6.125 13.5891 6.30937 14.0342 6.63756 14.3624C6.96575 14.6906 7.41087 14.875 7.875 14.875C8.10706 14.875 8.32962 14.9672 8.49372 15.1313C8.65781 15.2954 8.75 15.5179 8.75 15.75C8.75 15.9821 8.65781 16.2046 8.49372 16.3687C8.32962 16.5328 8.10706 16.625 7.875 16.625C6.94674 16.625 6.0565 16.2563 5.40013 15.5999C4.74375 14.9435 4.375 14.0533 4.375 13.125C4.375 12.1967 4.74375 11.3065 5.40013 10.6501C6.0565 9.99375 6.94674 9.625 7.875 9.625H10.5V0.875C10.5 0.642936 10.5922 0.420376 10.7563 0.256282C10.9204 0.0921872 11.1429 0 11.375 0C11.6071 0 11.8296 0.0921872 11.9937 0.256282C12.1578 0.420376 12.25 0.642936 12.25 0.875V9.625H16.625C17.3212 9.625 17.9889 9.34844 18.4812 8.85616C18.9734 8.36387 19.25 7.69619 19.25 7V6.89062C19.25 6.22344 18.985 5.58358 18.5132 5.11181C18.0414 4.64004 17.4016 4.375 16.7344 4.375H14.875C14.6429 4.375 14.4204 4.28281 14.2563 4.11872C14.0922 3.95462 14 3.73206 14 3.5C14 3.26794 14.0922 3.04538 14.2563 2.88128C14.4204 2.71719 14.6429 2.625 14.875 2.625H16.7344C17.8657 2.625 18.9507 3.07441 19.7506 3.87437C20.5506 4.67433 21 5.75931 21 6.89062ZM3.5 8.75H0.875C0.642936 8.75 0.420376 8.65781 0.256282 8.49372C0.0921872 8.32962 0 8.10706 0 7.875V7C0 5.83968 0.460936 4.72688 1.28141 3.90641C2.10188 3.08594 3.21468 2.625 4.375 2.625H7.875C8.10706 2.625 8.32962 2.71719 8.49372 2.88128C8.65781 3.04538 8.75 3.26794 8.75 3.5C8.75 3.73206 8.65781 3.95462 8.49372 4.11872C8.32962 4.28281 8.10706 4.375 7.875 4.375C7.875 4.94953 7.76184 5.51844 7.54197 6.04924C7.32211 6.58004 6.99985 7.06234 6.59359 7.46859C6.18734 7.87485 5.70504 8.19711 5.17424 8.41697C4.64344 8.63684 4.07453 8.75 3.5 8.75ZM6.125 4.375H4.375C3.67881 4.375 3.01113 4.65156 2.51884 5.14384C2.02656 5.63613 1.75 6.30381 1.75 7H3.5C4.19619 7 4.86387 6.72344 5.35616 6.23116C5.84844 5.73887 6.125 5.07119 6.125 4.375Z" fill="#212236"/>
</svg>
