<svg width="70" height="70" viewBox="0 0 70 70" fill="none" xmlns="http://www.w3.org/2000/svg">
<path d="M17.1821 33.1078L12.2274 18.8344C12.0178 17.9984 11.5002 17.2725 10.7781 16.802C10.0561 16.3314 9.183 16.151 8.33361 16.2969C7.89805 16.3897 7.48587 16.5701 7.12209 16.827C6.75831 17.0839 6.4505 17.412 6.21731 17.7915C5.98413 18.1709 5.83044 18.5937 5.76556 19.0343C5.70068 19.4749 5.72596 19.9241 5.83986 20.3547L10.9367 36.0937L17.1821 33.1078ZM52.8164 33.1078L57.7711 18.8344C57.9807 17.9984 58.4983 17.2725 59.2203 16.802C59.9424 16.3314 60.8155 16.151 61.6649 16.2969C62.1004 16.3897 62.5126 16.5701 62.8764 16.827C63.2402 17.0839 63.548 17.412 63.7812 17.7915C64.0143 18.1709 64.168 18.5937 64.2329 19.0343C64.2978 19.4749 64.2725 19.9241 64.1586 20.3547L59.0617 36.0937L52.8164 33.1078Z" fill="#FFAC96"/>
<path d="M27.3933 39.0272L17.7245 33.3594C17.0555 32.9729 16.2713 32.8355 15.5108 32.9714C14.7502 33.1073 14.0621 33.5078 13.5683 34.102L10.0399 23.2094C9.83029 22.3734 9.31266 21.6475 8.59064 21.177C7.86862 20.7064 6.9955 20.526 6.14611 20.6719C5.71055 20.7647 5.29837 20.9451 4.93459 21.202C4.57081 21.4589 4.263 21.787 4.02981 22.1665C3.79663 22.5459 3.64294 22.9687 3.57806 23.4093C3.51318 23.8499 3.53846 24.2991 3.65236 24.7297L8.41018 42.4812C8.62842 43.3115 9.08918 44.0578 9.73361 44.625L17.1274 51.1984C17.5887 51.6092 17.9578 52.113 18.2104 52.6766C18.463 53.2403 18.5934 53.8511 18.593 54.4687V57.9687H31.718V46.5762C31.7181 45.0501 31.319 43.5504 30.5604 42.2261C29.8017 40.9018 28.7099 39.799 27.3933 39.0272ZM63.8524 20.6719C63.003 20.526 62.1299 20.7064 61.4078 21.177C60.6858 21.6475 60.1682 22.3734 59.9586 23.2094L56.4258 34.102C55.932 33.5078 55.2439 33.1073 54.4833 32.9714C53.7228 32.8355 52.9386 32.9729 52.2696 33.3594L42.6008 39.0272C41.285 39.7996 40.1941 40.9026 39.4362 42.2269C38.6783 43.5511 38.2799 45.0505 38.2805 46.5762V57.9687H51.4055V54.4687C51.4051 53.8511 51.5355 53.2403 51.7881 52.6766C52.0407 52.113 52.4098 51.6092 52.8711 51.1984L60.2649 44.625C60.9093 44.0578 61.3701 43.3115 61.5883 42.4812L66.3461 24.7297C66.46 24.2991 66.4853 23.8499 66.4204 23.4093C66.3555 22.9687 66.2018 22.5459 65.9687 22.1665C65.7355 21.787 65.4277 21.4589 65.0639 21.202C64.7001 20.9451 64.2879 20.7647 63.8524 20.6719Z" fill="#FFBCAB"/>
<path d="M37.1875 57.9688V66.7188H52.5V57.9688H37.1875ZM32.8125 57.9688H17.5V66.7188H32.8125V57.9688Z" fill="#006DF0"/>
<path d="M49.7006 20.2998L48.9241 21.0763L35.0006 34.9998L21.0772 21.0763L20.3006 20.2998C19.3547 19.3928 18.5994 18.3062 18.079 17.1035C17.5586 15.9008 17.2836 14.6063 17.2701 13.2959C17.2565 11.9855 17.5048 10.6857 18.0003 9.47248C18.4957 8.25931 19.2284 7.15728 20.1554 6.23102C21.0824 5.30476 22.185 4.57291 23.3986 4.07839C24.6121 3.58387 25.9122 3.33664 27.2226 3.35119C28.533 3.36575 29.8272 3.64179 31.0295 4.16314C32.2318 4.68448 33.3179 5.44064 34.2241 6.38726L35.0006 7.16382L35.7772 6.38726C36.6834 5.44064 37.7695 4.68448 38.9717 4.16314C40.174 3.64179 41.4683 3.36575 42.7786 3.35119C44.089 3.33664 45.3891 3.58387 46.6027 4.07839C47.8162 4.57291 48.9188 5.30476 49.8458 6.23102C50.7728 7.15728 51.5055 8.25931 52.001 9.47248C52.4965 10.6857 52.7447 11.9855 52.7312 13.2959C52.7177 14.6063 52.4426 15.9008 51.9222 17.1035C51.4018 18.3062 50.6465 19.3928 49.7006 20.2998Z" fill="#D80027"/>
<path d="M49.7 6.38767C48.6594 5.336 47.3928 4.53536 45.9964 4.04658C44.6 3.55781 43.1106 3.39375 41.6412 3.56689C43.4833 3.77104 45.2303 4.49142 46.6808 5.64505C48.1314 6.79868 49.2265 8.33862 49.8401 10.0875C50.4537 11.8363 50.5608 13.7229 50.1489 15.53C49.7371 17.337 48.8232 18.9909 47.5125 20.3013L46.7359 21.0778L33.9062 33.9064L35 35.0002L48.9234 21.0767L49.7 20.3002C51.5434 18.4545 52.5788 15.9525 52.5788 13.3439C52.5788 10.7353 51.5434 8.23338 49.7 6.38767Z" fill="#BD0022"/>
<path d="M37.1875 24.0625V19.6875H41.5625V15.3125H37.1875V10.9375H32.8125V15.3125H28.4375V19.6875H32.8125V24.0625H37.1875Z" fill="#F1F2F2"/>
<path d="M55.5561 36.8595L48.2454 40.9063C48.0365 41.0273 47.8816 41.2235 47.8123 41.4548C47.743 41.686 47.7645 41.9351 47.8725 42.151C47.9302 42.2665 48.0109 42.369 48.1097 42.4521C48.2085 42.5352 48.3233 42.5972 48.447 42.6343C48.5707 42.6714 48.7006 42.6828 48.8288 42.6678C48.9571 42.6527 49.0809 42.6116 49.1926 42.547L55.5561 39.047C56.2204 38.6618 56.7287 38.0558 56.9923 37.3346C57.2559 36.6133 57.2582 35.8224 56.9987 35.0996C56.7457 35.8409 56.2333 36.4659 55.5561 36.8595ZM14.4442 36.8595L21.7548 40.9063C21.9638 41.0273 22.1187 41.2235 22.188 41.4548C22.2573 41.686 22.2358 41.9351 22.1278 42.151C22.0701 42.2665 21.9893 42.369 21.8905 42.4521C21.7917 42.5352 21.677 42.5972 21.5533 42.6343C21.4296 42.6714 21.2997 42.6828 21.1714 42.6678C21.0432 42.6527 20.9194 42.6116 20.8076 42.547L14.4442 39.047C13.7798 38.6618 13.2716 38.0558 13.008 37.3346C12.7444 36.6133 12.7421 35.8224 13.0015 35.0996C13.2546 35.8409 13.7669 36.4659 14.4442 36.8595Z" fill="#FFAC96"/>
</svg>
