<svg width="23" height="23" viewBox="0 0 23 23" fill="none" xmlns="http://www.w3.org/2000/svg">
<path d="M19.6875 14C19.6875 14.2596 19.6105 14.5133 19.4663 14.7292C19.3221 14.945 19.1171 15.1133 18.8773 15.2126C18.6374 15.3119 18.3735 15.3379 18.1189 15.2873C17.8643 15.2366 17.6305 15.1116 17.4469 14.9281C17.2634 14.7445 17.1384 14.5107 17.0877 14.2561C17.0371 14.0015 17.0631 13.7376 17.1624 13.4977C17.2617 13.2579 17.43 13.0529 17.6458 12.9087C17.8617 12.7645 18.1154 12.6875 18.375 12.6875C18.7231 12.6875 19.0569 12.8258 19.3031 13.0719C19.5492 13.3181 19.6875 13.6519 19.6875 14ZM19.1898 18.2973C18.9976 19.5364 18.3691 20.666 17.4175 21.4824C16.4659 22.2988 15.2538 22.7484 14 22.75H11.375C9.98306 22.7486 8.64854 22.195 7.66429 21.2107C6.68004 20.2265 6.12645 18.8919 6.125 17.5V13.0692C4.43355 12.8561 2.878 12.0331 1.75029 10.7545C0.622576 9.47597 0.000213943 7.82982 0 6.125V0.875C0 0.642936 0.0921874 0.420376 0.256282 0.256282C0.420376 0.0921874 0.642936 0 0.875 0H3.5C3.73206 0 3.95462 0.0921874 4.11872 0.256282C4.28281 0.420376 4.375 0.642936 4.375 0.875C4.375 1.10706 4.28281 1.32962 4.11872 1.49372C3.95462 1.65781 3.73206 1.75 3.5 1.75H1.75V6.125C1.74994 6.82037 1.88802 7.50882 2.15622 8.15039C2.42443 8.79195 2.81741 9.37385 3.31235 9.86228C3.8073 10.3507 4.39435 10.736 5.03941 10.9956C5.68447 11.2553 6.37469 11.3843 7.07 11.375C9.92578 11.3378 12.25 8.94141 12.25 6.03422V1.75H10.5C10.2679 1.75 10.0454 1.65781 9.88128 1.49372C9.71719 1.32962 9.625 1.10706 9.625 0.875C9.625 0.642936 9.71719 0.420376 9.88128 0.256282C10.0454 0.0921874 10.2679 0 10.5 0H13.125C13.3571 0 13.5796 0.0921874 13.7437 0.256282C13.9078 0.420376 14 0.642936 14 0.875V6.03422C14 9.62609 11.317 12.6284 7.875 13.0681V17.5C7.875 18.4283 8.24375 19.3185 8.90013 19.9749C9.5565 20.6313 10.4467 21 11.375 21H14C14.7948 20.9987 15.5656 20.7274 16.186 20.2306C16.8064 19.7338 17.2397 19.0409 17.4147 18.2656C16.3579 18.0283 15.4268 17.4073 14.8015 16.523C14.1761 15.6387 13.901 14.5539 14.0294 13.4785C14.1577 12.403 14.6804 11.4134 15.4963 10.7012C16.3123 9.98889 17.3634 9.60458 18.4463 9.62259C19.5292 9.64061 20.567 10.0597 21.3587 10.7987C22.1505 11.5377 22.64 12.5442 22.7325 13.6233C22.8251 14.7024 22.514 15.7775 21.8596 16.6405C21.2052 17.5035 20.2539 18.0931 19.1898 18.2952V18.2973ZM21 14C21 13.4808 20.846 12.9733 20.5576 12.5416C20.2692 12.1099 19.8592 11.7735 19.3795 11.5748C18.8999 11.3761 18.3721 11.3242 17.8629 11.4254C17.3537 11.5267 16.886 11.7767 16.5188 12.1438C16.1517 12.511 15.9017 12.9787 15.8004 13.4879C15.6992 13.9971 15.7511 14.5249 15.9498 15.0045C16.1485 15.4842 16.4849 15.8942 16.9166 16.1826C17.3483 16.471 17.8558 16.625 18.375 16.625C19.0712 16.625 19.7389 16.3484 20.2312 15.8562C20.7234 15.3639 21 14.6962 21 14Z" fill="#212236"/>
</svg>
