<svg width="70" height="70" viewBox="0 0 70 70" fill="none" xmlns="http://www.w3.org/2000/svg">
<path d="M55.579 60.0689C54.3322 58.1494 50.7993 53.9494 44.4501 51.1658L44.4392 51.1549C43.1588 49.9497 41.6218 49.0503 39.9439 48.5244C39.8454 48.3275 39.7689 48.1854 39.6048 47.9174C39.572 47.8627 39.5337 47.8025 39.49 47.7314C39.0274 48.5068 38.3715 49.1487 37.5864 49.5945C36.8013 50.0403 35.9139 50.2747 35.0111 50.2747C34.1082 50.2747 33.2209 50.0403 32.4358 49.5945C31.6507 49.1487 30.9948 48.5068 30.5322 47.7314C30.2915 48.1197 30.204 48.2783 30.0837 48.508C30.0783 48.5135 30.0783 48.5189 30.0728 48.5244C28.3964 49.0503 26.8613 49.9497 25.5829 51.1549L25.572 51.1658C19.2228 53.9494 15.6845 58.1494 14.4431 60.0689C12.9939 62.3111 14.3337 63.5252 16.4118 64.6354C17.8829 65.4174 21.1587 66.8775 26.4415 67.7143V67.7197C27.579 67.9002 28.8095 68.0533 30.1329 68.1572C30.6033 68.201 31.079 68.2338 31.5712 68.2611C32.6595 68.3268 33.8061 68.3596 35.0111 68.3596C36.216 68.3596 37.3608 68.3268 38.4454 68.2611C38.9376 68.2338 39.4189 68.201 39.8892 68.1572C41.2126 68.0533 42.4431 67.9002 43.5806 67.7197V67.7143C48.8634 66.8775 52.1392 65.4174 53.6103 64.6354C55.6884 63.5252 57.0283 62.3111 55.579 60.0689Z" fill="#234CD6" fill-opacity="0.4"/>
<path d="M52.8875 27.4749C53.3788 28.0587 53.7016 28.7654 53.8211 29.5189C53.9406 30.2725 53.8523 31.0444 53.5656 31.7515C52.7836 33.8406 50.3117 35.421 48.2172 34.6554C47.3553 32.2825 47.8677 28.7278 49.1961 27.6171C50.6535 26.5064 51.884 26.7454 52.8875 27.4749ZM39.4891 47.7312C39.0265 48.5065 38.3705 49.1485 37.5855 49.5943C36.8004 50.04 35.913 50.2744 35.0102 50.2744C34.1073 50.2744 33.22 50.04 32.4349 49.5943C31.6498 49.1485 30.9938 48.5065 30.5312 47.7312C30.7333 47.2272 30.88 46.7028 30.9687 46.1671C31.0437 45.7272 31.0948 45.2836 31.1219 44.8382V44.7617C31.1328 44.7671 38.8766 44.7015 38.8875 44.696L38.8984 44.8382C38.9258 45.2976 38.975 45.7132 39.0352 46.0906C39.1188 46.6137 39.2562 47.1269 39.4453 47.6218C39.4617 47.6601 39.4727 47.6984 39.4891 47.7312Z" fill="#FF7364"/>
<path d="M41.1902 52.79C41.1738 52.6533 41.152 52.5221 41.1301 52.3854C40.931 51.046 40.5309 49.7444 39.9434 48.5244C39.8449 48.3275 39.7684 48.1854 39.6043 47.9174C39.5715 47.8627 39.5332 47.8025 39.4895 47.7314C39.0269 48.5068 38.3709 49.1487 37.5858 49.5945C36.8007 50.0403 35.9134 50.2747 35.0105 50.2747C34.1077 50.2747 33.2203 50.0403 32.4353 49.5945C31.6502 49.1487 30.9942 48.5068 30.5316 47.7314C30.291 48.1197 30.2035 48.2783 30.0832 48.508C30.0777 48.5135 30.0777 48.5189 30.0723 48.5244C29.426 49.8823 29.0031 51.3356 28.8199 52.8283C27.9559 58.8768 29.6074 66.3963 30.1324 68.1572C30.6027 68.201 31.0785 68.2338 31.5707 68.2611C32.659 68.3268 33.8056 68.3596 35.0105 68.3596C36.2155 68.3596 37.3603 68.3268 38.4449 68.2611C38.9371 68.2338 39.4184 68.201 39.8887 68.1572C40.4137 66.3908 42.0707 58.8439 41.1902 52.79Z" fill="#8430E1"/>
<path d="M21.0075 27.657C21.8579 28.3007 23.8228 33.1542 21.7983 34.657C19.7038 35.4227 17.2319 33.8422 16.4498 31.7531C16.1632 31.046 16.0748 30.2741 16.1943 29.5206C16.3138 28.767 16.6366 28.0603 17.128 27.4766C18.5482 26.6601 19.9783 26.6634 21.0075 27.657Z" fill="#FF7364"/>
<path d="M36.2133 55.1197C36.7975 54.6726 37.2745 54.1007 37.6095 53.4458C36.5595 52.6965 36.1159 51.5093 35.0102 51.5093C33.8349 51.5093 32.9594 53.0558 32.4344 53.4332V53.4791C32.7635 54.1218 33.2325 54.6824 33.807 55.1197C32.582 58.5815 31.5703 65.1822 31.5703 68.2612C32.6586 68.3268 33.8052 68.3596 35.0102 68.3596C36.2151 68.3596 37.3599 68.3268 38.4445 68.2612C38.4445 65.1822 37.4328 58.5815 36.2133 55.1197Z" fill="#473049"/>
<path d="M37.6106 53.4458C37.2756 54.1007 36.7986 54.6726 36.2145 55.1197C35.8669 55.3789 35.4449 55.519 35.0113 55.519C34.5777 55.519 34.1558 55.3789 33.8082 55.1197C33.2337 54.6824 32.7646 54.1218 32.4355 53.4791V53.4332C32.9605 53.0558 33.8361 51.5093 35.0113 51.5093C36.1171 51.5093 36.5606 52.6965 37.6106 53.4458Z" fill="#473049"/>
<path d="M41.1305 52.3854C40.9314 51.046 40.5313 49.7444 39.9437 48.5244C39.8453 48.3275 39.5336 47.8025 39.4898 47.7314C39.0273 48.5068 38.3713 49.1487 37.5862 49.5945C36.8011 50.0403 35.9138 50.2747 35.0109 50.2747C34.1081 50.2747 33.2207 50.0403 32.4356 49.5945C31.6505 49.1487 30.9946 48.5068 30.532 47.7314C30.4883 47.8025 30.1766 48.3275 30.0781 48.5244C29.4906 49.7444 29.0905 51.046 28.8914 52.3854C28.8695 52.5221 28.7334 53.5639 28.7109 53.7564C28.9516 54.1556 30.818 54.5679 32.4406 53.4791C32.9647 53.0822 33.4549 52.6425 33.9062 52.1644C34.0851 51.9931 34.2848 51.845 34.5007 51.7236C34.6596 51.648 34.8333 51.6088 35.0093 51.6088C35.1853 51.6088 35.359 51.648 35.5179 51.7236C35.7338 51.845 35.9335 51.9931 36.1123 52.1644C36.5643 52.6418 37.055 53.0808 37.5796 53.4769C39.2022 54.5657 41.0687 54.1534 41.3093 53.7542C41.2891 53.5639 41.1523 52.5221 41.1305 52.3854Z" fill="#36B1F2"/>
<path d="M26.436 55.0814C26.1789 55.1361 23.2149 55.8033 23.3735 55.1471C23.6738 53.6234 24.4424 52.2316 25.5719 51.1658L25.5828 51.1549C26.8612 49.9497 28.3964 49.0503 30.0727 48.5244C27.0211 54.5619 29.4711 65.9369 30.1328 68.1572C28.8094 68.0533 27.5789 67.9002 26.4414 67.7197V67.7143C25.7469 66.8502 23.8657 63.0439 23.3352 58.9643C23.2149 58.0674 24.0735 56.3502 26.436 55.0814ZM43.586 55.0814C45.9485 56.3502 46.8071 58.0674 46.6868 58.9643C46.1563 63.0439 44.275 66.8502 43.5805 67.7143V67.7197C42.443 67.9002 41.2125 68.0533 39.8891 68.1572C40.5508 65.9369 43.0008 54.5619 39.9438 48.5244C41.6217 49.0503 43.1587 49.9497 44.4391 51.1549L44.45 51.1658C45.5796 52.2316 46.3482 53.6234 46.6485 55.1471C46.8071 55.8033 43.843 55.1361 43.586 55.0814Z" fill="#7B20DF" fill-opacity="0.34"/>
<path d="M41.1305 52.3854C40.9314 51.046 40.5313 49.7444 39.9437 48.5244C39.8453 48.3275 39.5336 47.8025 39.4898 47.7314C39.0273 48.5068 38.3713 49.1487 37.5862 49.5945C36.8011 50.0403 35.9138 50.2747 35.0109 50.2747C34.1081 50.2747 33.2207 50.0403 32.4356 49.5945C31.6505 49.1487 30.9946 48.5068 30.532 47.7314C30.4883 47.8025 30.1766 48.3275 30.0781 48.5244C29.4906 49.7444 29.0905 51.046 28.8914 52.3854C28.8695 52.5221 28.7334 53.5639 28.7109 53.7564C28.9516 54.1556 30.818 54.5679 32.4406 53.4791C32.9647 53.0822 33.4549 52.6425 33.9062 52.1644C34.0851 51.9931 34.2848 51.845 34.5007 51.7236C34.6596 51.648 34.8333 51.6088 35.0093 51.6088C35.1853 51.6088 35.359 51.648 35.5179 51.7236C35.7338 51.845 35.9335 51.9931 36.1123 52.1644C36.5643 52.6418 37.055 53.0808 37.5796 53.4769C39.2022 54.5657 41.0687 54.1534 41.3093 53.7542C41.2891 53.5639 41.1523 52.5221 41.1305 52.3854Z" fill="#78C5EF"/>
<path d="M39.0352 46.0908C37.8152 46.8658 36.3951 47.2669 34.95 47.2447C33.5482 47.2656 32.1687 46.8923 30.9688 46.1674C31.0437 45.7275 31.0948 45.2839 31.1219 44.8385V44.7619C31.1328 44.7674 38.8766 44.7018 38.8875 44.6963L38.8984 44.8385C38.9258 45.2978 38.975 45.7135 39.0352 46.0908Z" fill="#ED4850"/>
<path d="M49.1977 27.6174C49.0268 29.9824 48.6998 32.3337 48.2188 34.6556C46.9391 40.2556 42.6898 43.4713 38.8945 44.8275C38.8836 44.833 38.8727 44.833 38.8617 44.8384C37.6305 45.3089 36.3291 45.5696 35.0117 45.6095C33.6925 45.5696 32.3893 45.309 31.1563 44.8384C31.1453 44.833 31.1398 44.833 31.1289 44.8275C27.3336 43.4713 23.0789 40.2611 21.7992 34.6556C21.3213 32.3571 20.9943 30.0297 20.8203 27.6884C21.773 21.465 25.7039 7.24626 39.991 10.93C45.0086 12.2239 46.9314 17.09 49.1977 23.5841C49.4793 24.3908 49.1977 26.8556 49.1977 27.6174Z" fill="#FF977B"/>
<path d="M35.011 33.1186C34.9946 33.1186 33.4251 33.0793 33.4251 32.2054C33.425 32.0871 33.4633 31.972 33.5341 31.8774C33.605 31.7827 33.7046 31.7136 33.8181 31.6803C33.9316 31.647 34.0528 31.6514 34.1635 31.6929C34.2743 31.7343 34.3686 31.8105 34.4324 31.9101C34.8031 32.0635 35.2195 32.0635 35.5901 31.9101C35.6541 31.8107 35.7484 31.7347 35.8591 31.6935C35.9698 31.6522 36.0909 31.6479 36.2043 31.6812C36.3176 31.7145 36.4171 31.7837 36.4879 31.8782C36.5587 31.9728 36.5969 32.0878 36.5969 32.2059C36.5969 33.0793 35.0269 33.1186 35.011 33.1186ZM35.011 37.0343C33.9506 37.0343 33.1292 36.6225 32.8131 35.9334C32.7819 35.8679 32.7639 35.7969 32.7604 35.7245C32.7569 35.652 32.7678 35.5796 32.7925 35.5114C32.8173 35.4432 32.8553 35.3806 32.9045 35.3273C32.9536 35.2739 33.0129 35.2309 33.0788 35.2007C33.1448 35.1704 33.2161 35.1536 33.2886 35.1513C33.3611 35.1489 33.4333 35.1609 33.5011 35.1867C33.5689 35.2125 33.6309 35.2515 33.6835 35.3015C33.7361 35.3515 33.7782 35.4115 33.8073 35.4779C33.9052 35.6911 34.2793 35.9405 35.0105 35.9405C35.7416 35.9405 36.1108 35.6911 36.2087 35.4779C36.2378 35.4115 36.2799 35.3515 36.3325 35.3015C36.3851 35.2515 36.4471 35.2125 36.5149 35.1867C36.5826 35.1609 36.6549 35.1489 36.7274 35.1513C36.7999 35.1536 36.8712 35.1704 36.9371 35.2007C37.0031 35.2309 37.0624 35.2739 37.1115 35.3273C37.1607 35.3806 37.1987 35.4432 37.2235 35.5114C37.2482 35.5796 37.2591 35.652 37.2556 35.7245C37.252 35.7969 37.2341 35.8679 37.2029 35.9334C36.8873 36.6225 36.0676 37.0343 35.011 37.0343Z" fill="#ED4850"/>
<path d="M39.8801 53.5689C39.1756 53.6532 38.4659 53.4613 37.8999 53.0336C37.5672 52.7828 37.2562 52.5046 36.9702 52.2018C36.4113 51.6412 35.8332 51.0615 35.0102 51.0615C34.3843 51.1053 33.8012 51.3949 33.3882 51.8671C33.2722 51.9764 33.1557 52.0929 33.0354 52.2138C32.765 52.4985 32.4736 52.7624 32.1637 53.0035C32.1482 53.0124 32.1331 53.0218 32.1183 53.0319C31.5537 53.4597 30.8454 53.6522 30.1419 53.5689C30.07 53.5604 29.9972 53.5665 29.9277 53.5868C29.8583 53.6072 29.7936 53.6414 29.7377 53.6874C29.6818 53.7334 29.6358 53.7902 29.6025 53.8544C29.5691 53.9186 29.5491 53.989 29.5436 54.0611C29.5366 54.1327 29.5438 54.205 29.5647 54.2738C29.5857 54.3426 29.62 54.4066 29.6657 54.4621C29.7114 54.5176 29.7677 54.5636 29.8312 54.5973C29.8947 54.6311 29.9642 54.652 30.0358 54.6589C30.981 54.7628 31.9313 54.5137 32.704 53.9594C32.7229 53.9478 32.7411 53.9352 32.7587 53.9217C33.1343 53.6392 33.4857 53.3258 33.8092 52.9849C33.9186 52.8722 34.028 52.7629 34.1417 52.6568C35.0545 51.7818 35.3389 52.1099 36.1947 52.9712C36.523 53.3179 36.8803 53.6358 37.2628 53.9217C37.9277 54.413 38.7329 54.6774 39.5596 54.6758C39.6996 54.6758 39.8418 54.6687 39.9862 54.6545C40.1305 54.64 40.2632 54.5687 40.3549 54.4564C40.4467 54.3441 40.4902 54.2 40.4757 54.0557C40.4612 53.9113 40.3899 53.7787 40.2776 53.6869C40.1653 53.5951 40.0211 53.5517 39.8768 53.5662L39.8801 53.5689Z" fill="#234CD6"/>
<path d="M59.8834 51.9595C59.8729 52.7178 59.5644 53.4415 59.0245 53.974C58.4845 54.5065 57.7567 54.8051 56.9983 54.8051C56.24 54.8051 55.5121 54.5065 54.9722 53.974C54.4323 53.4415 54.1237 52.7178 54.1133 51.9595C54.1239 51.1976 54.4312 50.47 54.9699 49.9312C55.5086 49.3924 56.2362 49.0849 56.998 49.0742C57.3808 49.06 57.7623 49.1249 58.1188 49.2649C58.4752 49.4049 58.799 49.6169 59.0698 49.8877C59.3406 50.1585 59.5526 50.4823 59.6926 50.8388C59.8326 51.1952 59.8975 51.5768 59.8834 51.9595Z" fill="#78C5EF"/>
<path d="M56.9947 55.3921C56.0848 55.3909 55.2125 55.0289 54.569 54.3855C53.9256 53.7421 53.5637 52.8698 53.5625 51.9599C53.5749 51.0572 53.9377 50.1947 54.5741 49.5544C55.2105 48.9141 56.0708 48.5462 56.9734 48.5282C57.4177 48.5067 57.8617 48.5766 58.2778 48.7337C58.694 48.8908 59.0735 49.1317 59.3927 49.4415C59.7273 49.7692 59.9916 50.1617 60.1694 50.595C60.3472 51.0282 60.4348 51.4932 60.4269 51.9615C60.423 52.8704 60.0601 53.741 59.4172 54.3836C58.7743 55.0261 57.9036 55.3886 56.9947 55.3921ZM57.1073 49.6192H57.016C56.3963 49.6273 55.8038 49.8757 55.3636 50.312C54.9234 50.7484 54.6698 51.3386 54.6562 51.9582C54.6664 52.3411 54.7704 52.7155 54.9591 53.0488C55.1478 53.3821 55.4154 53.6639 55.7385 53.8695C56.0615 54.0752 56.4302 54.1983 56.812 54.2282C57.1938 54.2581 57.5771 54.1937 57.9282 54.0408C58.2793 53.8879 58.5875 53.6512 58.8258 53.3513C59.064 53.0515 59.225 52.6977 59.2945 52.3211C59.3641 51.9445 59.3401 51.5566 59.2247 51.1914C59.1092 50.8263 58.9059 50.495 58.6326 50.2268C58.2229 49.833 57.6756 49.615 57.1073 49.6192Z" fill="#CAE7EF"/>
<path d="M41.4394 64.8451C39.5896 64.8431 37.8162 64.1073 36.5083 62.7993C35.2004 61.4913 34.4648 59.7178 34.4629 57.868V49.083C34.4629 48.938 34.5205 48.7989 34.6231 48.6963C34.7256 48.5938 34.8647 48.5362 35.0098 48.5362C35.1548 48.5362 35.2939 48.5938 35.3965 48.6963C35.499 48.7989 35.5566 48.938 35.5566 49.083V57.868C35.5566 59.4282 36.1764 60.9245 37.2797 62.0278C38.3829 63.131 39.8792 63.7508 41.4394 63.7508C42.9996 63.7508 44.4959 63.131 45.5991 62.0278C46.7023 60.9245 47.3221 59.4282 47.3221 57.868V47.6666C47.3221 46.3114 47.8605 45.0116 48.8188 44.0533C49.7771 43.095 51.0769 42.5566 52.4321 42.5566C53.7874 42.5566 55.0871 43.095 56.0454 44.0533C57.0037 45.0116 57.5421 46.3114 57.5421 47.6666V51.9202C57.5421 52.0653 57.4845 52.2044 57.3819 52.3069C57.2794 52.4095 57.1403 52.4671 56.9952 52.4671C56.8502 52.4671 56.7111 52.4095 56.6085 52.3069C56.506 52.2044 56.4484 52.0653 56.4484 51.9202V47.6666C56.4484 46.6015 56.0252 45.5799 55.272 44.8267C54.5188 44.0735 53.4973 43.6504 52.4321 43.6504C51.3669 43.6504 50.3454 44.0735 49.5922 44.8267C48.839 45.5799 48.4159 46.6015 48.4159 47.6666V57.868C48.414 59.7178 47.6784 61.4913 46.3705 62.7993C45.0625 64.1073 43.2891 64.8431 41.4394 64.8451Z" fill="#1B89E5"/>
<path d="M33.9609 47.2686V48.1736C33.9723 48.3428 34.0291 48.5058 34.1253 48.6453C34.2216 48.7849 34.3537 48.8959 34.5078 48.9666C34.664 49.0432 34.8356 49.0831 35.0096 49.0831C35.1835 49.0831 35.3552 49.0432 35.5113 48.9666C35.6654 48.8959 35.7976 48.7849 35.8938 48.6453C35.9901 48.5058 36.0469 48.3428 36.0582 48.1736V47.2686H33.9609Z" fill="#269BEA"/>
<path d="M35.0115 49.63C34.7519 49.6292 34.496 49.5695 34.2628 49.4555C34.0184 49.3389 33.8103 49.158 33.6608 48.9322C33.5112 48.7064 33.426 48.4442 33.4141 48.1736V47.2686C33.4141 47.1235 33.4717 46.9844 33.5742 46.8819C33.6768 46.7793 33.8159 46.7217 33.9609 46.7217C34.106 46.7217 34.2451 46.7793 34.3476 46.8819C34.4502 46.9844 34.5078 47.1235 34.5078 47.2686V48.1736C34.5204 48.2404 34.5492 48.3031 34.5917 48.3562C34.6343 48.4092 34.6892 48.4509 34.7517 48.4777C34.8326 48.5135 34.92 48.532 35.0085 48.532C35.0969 48.532 35.1844 48.5135 35.2652 48.4777C35.3278 48.4512 35.3829 48.4096 35.4256 48.3566C35.4682 48.3037 35.4971 48.241 35.5097 48.1742V47.2686C35.5097 47.1235 35.5673 46.9844 35.6699 46.8819C35.7724 46.7793 35.9115 46.7217 36.0566 46.7217C36.2016 46.7217 36.3407 46.7793 36.4433 46.8819C36.5458 46.9844 36.6034 47.1235 36.6034 47.2686V48.1736C36.5914 48.4442 36.5061 48.7063 36.3566 48.9321C36.2071 49.1579 35.999 49.3388 35.7547 49.4555C35.5233 49.569 35.2692 49.6286 35.0115 49.63Z" fill="#269BEA"/>
<path d="M28.0287 33.9445C30.9677 33.9445 33.3503 31.562 33.3503 28.6229C33.3503 25.6838 30.9677 23.3013 28.0287 23.3013C25.0896 23.3013 22.707 25.6838 22.707 28.6229C22.707 31.562 25.0896 33.9445 28.0287 33.9445Z" fill="#FFB19F"/>
<path d="M42.097 33.9445C45.0361 33.9445 47.4187 31.562 47.4187 28.6229C47.4187 25.6838 45.0361 23.3013 42.097 23.3013C39.158 23.3013 36.7754 25.6838 36.7754 28.6229C36.7754 31.562 39.158 33.9445 42.097 33.9445Z" fill="#FFB19F"/>
<path d="M24.2258 21.663C25.2254 21.0411 26.34 20.6267 27.5031 20.4443C28.6662 20.262 29.854 20.3154 30.9961 20.6015C31.2257 20.6691 31.4228 20.818 31.5505 21.0205C31.6782 21.2229 31.7279 21.4649 31.6901 21.7013C31.6542 21.9484 31.5257 22.1727 31.3306 22.3287C31.1356 22.4846 30.8885 22.5606 30.6395 22.5413C29.4315 22.4472 27.279 22.3695 25.7778 22.8273C24.6551 23.1696 24.1754 22.9284 23.9731 22.6085C23.8861 22.4485 23.8638 22.2613 23.9108 22.0854C23.9578 21.9094 24.0706 21.7582 24.2258 21.663ZM45.7907 21.663C44.791 21.0411 43.6765 20.6267 42.5134 20.4443C41.3503 20.262 40.1624 20.3154 39.0204 20.6015C38.7908 20.6691 38.5936 20.818 38.4659 21.0205C38.3382 21.2229 38.2886 21.4649 38.3264 21.7013C38.3623 21.9485 38.4908 22.1729 38.686 22.3289C38.8812 22.4849 39.1284 22.5608 39.3775 22.5413C40.585 22.4472 42.738 22.3695 44.2386 22.8273C45.3614 23.1696 45.841 22.9284 46.0433 22.6085C46.1303 22.4485 46.1526 22.2613 46.1056 22.0854C46.0586 21.9094 45.9459 21.7582 45.7907 21.663Z" fill="#473049"/>
<path d="M27.0938 28.2849C27.0938 29.0035 27.6762 29.5859 28.3946 29.5859C29.113 29.5859 29.6953 29.0035 29.6953 28.2849V27.213C29.6953 26.4945 29.113 25.912 28.3946 25.912C27.6762 25.912 27.0938 26.4945 27.0938 27.213V28.2849Z" fill="#4B3956"/>
<path d="M42.9257 27.2131C42.9257 26.4946 42.3433 25.9121 41.625 25.9121C40.9066 25.9121 40.3242 26.4946 40.3242 27.2131V28.285C40.3242 29.0035 40.9066 29.586 41.625 29.586C42.3433 29.586 42.9257 29.0035 42.9257 28.285V27.2131Z" fill="#4B3956"/>
<path d="M30.2633 27.3932C30.1182 27.3932 29.9791 27.3355 29.8766 27.233C29.774 27.1304 29.7164 26.9913 29.7164 26.8463C29.7164 26.3186 28.9934 25.8564 28.1687 25.8564C27.3441 25.8564 26.6211 26.3186 26.6211 26.8463C26.6211 26.9913 26.5635 27.1304 26.4609 27.233C26.3584 27.3355 26.2193 27.3932 26.0742 27.3932C25.9292 27.3932 25.7901 27.3355 25.6875 27.233C25.585 27.1304 25.5273 26.9913 25.5273 26.8463C25.5273 25.6979 26.7124 24.7627 28.1687 24.7627C29.6251 24.7627 30.8102 25.6973 30.8102 26.8463C30.8102 26.9913 30.7525 27.1304 30.65 27.233C30.5474 27.3355 30.4083 27.3932 30.2633 27.3932ZM43.9406 27.3932C43.7956 27.3932 43.6565 27.3355 43.5539 27.233C43.4514 27.1304 43.3937 26.9913 43.3937 26.8463C43.3937 26.3186 42.6702 25.8564 41.8461 25.8564C41.022 25.8564 40.2984 26.3186 40.2984 26.8463C40.2984 26.9913 40.2408 27.1304 40.1383 27.233C40.0357 27.3355 39.8966 27.3932 39.7516 27.3932C39.6065 27.3932 39.4674 27.3355 39.3649 27.233C39.2623 27.1304 39.2047 26.9913 39.2047 26.8463C39.2047 25.6979 40.3892 24.7627 41.8461 24.7627C43.303 24.7627 44.4875 25.6973 44.4875 26.8463C44.4875 26.9913 44.4299 27.1304 44.3273 27.233C44.2248 27.3355 44.0857 27.3932 43.9406 27.3932Z" fill="#473049"/>
<path d="M42.0979 22.7539C40.7511 22.756 39.4458 23.2207 38.4005 24.07C37.3553 24.9194 36.6334 26.1019 36.3557 27.4198H33.7745C33.4661 25.9478 32.6043 24.6503 31.367 23.7953C30.1297 22.9402 28.6113 22.5929 27.1253 22.8249C25.6393 23.0569 24.2991 23.8506 23.3814 25.0421C22.4636 26.2337 22.0383 27.7321 22.1934 29.2281C22.3484 30.7241 23.0719 32.1035 24.2145 33.0815C25.3571 34.0595 26.8316 34.5615 28.3336 34.4838C29.8356 34.4062 31.2505 33.7548 32.2861 32.6642C33.3218 31.5736 33.8992 30.127 33.8992 28.623C33.8992 28.5863 33.8948 28.5508 33.8937 28.5136H36.236C36.236 28.5502 36.2305 28.5858 36.2305 28.623C36.2306 29.7837 36.5749 30.9183 37.2199 31.8833C37.8648 32.8483 38.7814 33.6004 39.8538 34.0445C40.9263 34.4885 42.1063 34.6046 43.2446 34.378C44.383 34.1514 45.4286 33.5924 46.2492 32.7715C47.0699 31.9507 47.6287 30.9049 47.8549 29.7664C48.0812 28.628 47.9648 27.448 47.5204 26.3758C47.0761 25.3035 46.3237 24.387 45.3585 23.7424C44.3933 23.0977 43.2586 22.7537 42.0979 22.7539ZM28.029 33.3977C27.0845 33.3978 26.1612 33.1179 25.3758 32.5932C24.5905 32.0686 23.9783 31.3228 23.6168 30.4502C23.2553 29.5777 23.1606 28.6175 23.3448 27.6911C23.529 26.7648 23.9838 25.9139 24.6516 25.246C25.3194 24.5781 26.1703 24.1232 27.0966 23.9389C28.023 23.7546 28.9832 23.8491 29.8558 24.2106C30.7284 24.572 31.4742 25.184 31.9989 25.9693C32.5237 26.7547 32.8038 27.6779 32.8038 28.6224C32.8025 29.8884 32.299 31.1022 31.4039 31.9974C30.5087 32.8927 29.295 33.3963 28.029 33.3977ZM42.0979 33.3977C41.1534 33.398 40.23 33.1181 39.4446 32.5935C38.6591 32.0689 38.0469 31.3232 37.6853 30.4506C37.3237 29.5781 37.229 28.6179 37.4131 27.6915C37.5973 26.7651 38.052 25.9141 38.7198 25.2462C39.3876 24.5782 40.2384 24.1233 41.1648 23.9389C42.0911 23.7546 43.0514 23.8491 43.924 24.2105C44.7966 24.5719 45.5425 25.184 46.0673 25.9693C46.592 26.7546 46.8721 27.6779 46.8721 28.6224C46.8707 29.8883 46.3673 31.1019 45.4723 31.9971C44.5773 32.8923 43.3638 33.396 42.0979 33.3977Z" fill="white"/>
<path d="M50.9308 8.82668C60.7089 12.4853 61.5183 25.1181 52.8886 27.4751C51.688 27.822 50.4209 27.8708 49.1972 27.6173C48.4323 27.4461 47.6994 27.1544 47.0261 26.7532C40.1628 22.7173 42.919 15.1212 38.6698 12.1517C34.8745 9.49934 29.969 13.2345 29.6464 18.129C29.3894 21.9462 25.8456 26.9228 20.8198 27.6884C19.588 27.8768 18.3303 27.8041 17.1284 27.4751C16.8495 27.404 16.33 27.2126 16.0511 27.1087C8.9581 24.5001 9.60341 13.3986 19.5565 7.72199C27.0159 3.46184 33.3159 0.180587 39.8401 2.30246C46.3643 4.42434 45.5769 6.82512 50.9308 8.82668Z" fill="#4B3956"/>
<path d="M35.0007 47.8545C26.2507 47.8545 19.1348 40.3919 19.1348 31.2197C19.1348 30.9178 19.3344 30.3359 19.6368 30.3359C19.9392 30.3359 20.2559 30.4393 20.2559 30.7412C20.2559 40.3405 27.8963 46.7608 35.0007 46.7608C42.1052 46.7608 49.7543 40.2366 49.7543 30.6373C49.7543 30.3354 50.0753 30.4546 50.3777 30.4546C50.6802 30.4546 50.8666 30.9178 50.8666 31.2202C50.8666 40.3919 43.7507 47.8545 35.0007 47.8545Z" fill="#1B89E5"/>
<path d="M19.409 31.5318H18.406C18.1201 31.5318 17.846 31.4182 17.6438 31.2161C17.4417 31.0139 17.3281 30.7397 17.3281 30.4539C17.3281 30.168 17.4417 29.8938 17.6438 29.6917C17.846 29.4895 18.1201 29.376 18.406 29.376H18.9655C19.3101 29.376 19.6406 29.5129 19.8843 29.7566C20.1279 30.0002 20.2648 30.3307 20.2648 30.6754C20.2648 30.9023 20.1747 31.12 20.0142 31.2805C19.8537 31.441 19.636 31.5318 19.409 31.5318ZM51.0517 29.3771H51.6112C51.897 29.3771 52.1712 29.4906 52.3734 29.6928C52.5755 29.8949 52.6891 30.1691 52.6891 30.455C52.6891 30.7408 52.5755 31.015 52.3734 31.2171C52.1712 31.4193 51.897 31.5329 51.6112 31.5329H50.6082C50.3812 31.5329 50.1635 31.4427 50.003 31.2822C49.8425 31.1217 49.7523 30.904 49.7523 30.677C49.7523 30.3324 49.8892 30.0019 50.1329 29.7582C50.3766 29.5145 50.7071 29.3776 51.0517 29.3776V29.3771Z" fill="#544587"/>
</svg>
