<svg width="28" height="19" viewBox="0 0 28 19" fill="none" xmlns="http://www.w3.org/2000/svg">
<path d="M26.4782 2.96593C26.1672 1.79805 25.2509 0.878386 24.0873 0.566265C21.9784 -0.000976562 13.5217 -0.000976562 13.5217 -0.000976562C13.5217 -0.000976562 5.06498 -0.000976562 2.956 0.566265C1.79248 0.878386 0.876075 1.79805 0.565103 2.96593C0 5.08264 0 9.49902 0 9.49902C0 9.49902 0 13.9153 0.565103 16.0322C0.876075 17.2 1.79248 18.1197 2.956 18.4319C5.06498 18.999 13.5217 18.999 13.5217 18.999C13.5217 18.999 21.9784 18.999 24.0873 18.4319C25.2509 18.1197 26.1672 17.2 26.4782 16.0322C27.0433 13.9153 27.0433 9.49902 27.0433 9.49902C27.0433 9.49902 27.0433 5.08264 26.4782 2.96593Z" fill="#ED1D24"/>
<path d="M10.7559 13.5098L17.824 9.50023L10.7559 5.49031V13.5098Z" fill="white"/>
</svg>
