<svg width="19" height="19" viewBox="0 0 19 19" fill="none" xmlns="http://www.w3.org/2000/svg">
<path d="M9.5031 0C5.53694 0 4.37698 0.00409317 4.15151 0.0227999C3.33759 0.0904747 2.83112 0.218665 2.27934 0.493449C1.85412 0.704667 1.51875 0.949493 1.18778 1.29269C0.58501 1.91858 0.219693 2.68858 0.087446 3.60387C0.0231536 4.04822 0.0044467 4.13884 0.000647895 6.40851C-0.000809869 7.16507 0.000647895 8.16075 0.000647895 9.49627C0.000647895 13.4603 0.00502834 14.6194 0.0240295 14.8445C0.0897869 15.6367 0.213991 16.1351 0.477021 16.6803C0.979698 17.724 1.93974 18.5074 3.07076 18.7998C3.46238 18.9006 3.89492 18.9562 4.4502 18.9825C4.68546 18.9927 7.08339 19 9.48278 19C11.8822 19 14.2816 18.9971 14.511 18.9854C15.154 18.9551 15.5273 18.905 15.9401 18.7983C17.0784 18.5045 18.021 17.7327 18.5339 16.6745C18.7918 16.1424 18.9226 15.625 18.9817 14.8742C18.9946 14.7105 19 12.1004 19 9.49379C19 6.88676 18.9942 4.2815 18.9813 4.11779C18.9214 3.3548 18.7906 2.84176 18.5244 2.29948C18.3059 1.85558 18.0633 1.52407 17.7112 1.18512C17.0827 0.584664 16.3141 0.219246 15.3981 0.087114C14.9543 0.0229437 14.8659 0.00394243 12.5951 0H9.5031Z" fill="url(#paint0_radial_953_795)"/>
<path d="M9.5031 0C5.53694 0 4.37698 0.00409317 4.15151 0.0227999C3.33759 0.0904747 2.83112 0.218665 2.27934 0.493449C1.85412 0.704667 1.51875 0.949493 1.18778 1.29269C0.58501 1.91858 0.219693 2.68858 0.087446 3.60387C0.0231536 4.04822 0.0044467 4.13884 0.000647895 6.40851C-0.000809869 7.16507 0.000647895 8.16075 0.000647895 9.49627C0.000647895 13.4603 0.00502834 14.6194 0.0240295 14.8445C0.0897869 15.6367 0.213991 16.1351 0.477021 16.6803C0.979698 17.724 1.93974 18.5074 3.07076 18.7998C3.46238 18.9006 3.89492 18.9562 4.4502 18.9825C4.68546 18.9927 7.08339 19 9.48278 19C11.8822 19 14.2816 18.9971 14.511 18.9854C15.154 18.9551 15.5273 18.905 15.9401 18.7983C17.0784 18.5045 18.021 17.7327 18.5339 16.6745C18.7918 16.1424 18.9226 15.625 18.9817 14.8742C18.9946 14.7105 19 12.1004 19 9.49379C19 6.88676 18.9942 4.2815 18.9813 4.11779C18.9214 3.3548 18.7906 2.84176 18.5244 2.29948C18.3059 1.85558 18.0633 1.52407 17.7112 1.18512C17.0827 0.584664 16.3141 0.219246 15.3981 0.087114C14.9543 0.0229437 14.8659 0.00394243 12.5951 0H9.5031Z" fill="url(#paint1_radial_953_795)"/>
<path d="M9.5031 0C5.53694 0 4.37698 0.00409317 4.15151 0.0227999C3.33759 0.0904747 2.83112 0.218665 2.27934 0.493449C1.85412 0.704667 1.51875 0.949493 1.18778 1.29269C0.58501 1.91858 0.219693 2.68858 0.087446 3.60387C0.0231536 4.04822 0.0044467 4.13884 0.000647895 6.40851C-0.000809869 7.16507 0.000647895 8.16075 0.000647895 9.49627C0.000647895 13.4603 0.00502834 14.6194 0.0240295 14.8445C0.0897869 15.6367 0.213991 16.1351 0.477021 16.6803C0.979698 17.724 1.93974 18.5074 3.07076 18.7998C3.46238 18.9006 3.89492 18.9562 4.4502 18.9825C4.68546 18.9927 7.08339 19 9.48278 19C11.8822 19 14.2816 18.9971 14.511 18.9854C15.154 18.9551 15.5273 18.905 15.9401 18.7983C17.0784 18.5045 18.021 17.7327 18.5339 16.6745C18.7918 16.1424 18.9226 15.625 18.9817 14.8742C18.9946 14.7105 19 12.1004 19 9.49379C19 6.88676 18.9942 4.2815 18.9813 4.11779C18.9214 3.3548 18.7906 2.84176 18.5244 2.29948C18.3059 1.85558 18.0633 1.52407 17.7112 1.18512C17.0827 0.584664 16.3141 0.219246 15.3981 0.087114C14.9543 0.0229437 14.8659 0.00394243 12.5951 0H9.5031Z" fill="url(#paint2_radial_953_795)"/>
<path d="M9.5031 0C5.53694 0 4.37698 0.00409317 4.15151 0.0227999C3.33759 0.0904747 2.83112 0.218665 2.27934 0.493449C1.85412 0.704667 1.51875 0.949493 1.18778 1.29269C0.58501 1.91858 0.219693 2.68858 0.087446 3.60387C0.0231536 4.04822 0.0044467 4.13884 0.000647895 6.40851C-0.000809869 7.16507 0.000647895 8.16075 0.000647895 9.49627C0.000647895 13.4603 0.00502834 14.6194 0.0240295 14.8445C0.0897869 15.6367 0.213991 16.1351 0.477021 16.6803C0.979698 17.724 1.93974 18.5074 3.07076 18.7998C3.46238 18.9006 3.89492 18.9562 4.4502 18.9825C4.68546 18.9927 7.08339 19 9.48278 19C11.8822 19 14.2816 18.9971 14.511 18.9854C15.154 18.9551 15.5273 18.905 15.9401 18.7983C17.0784 18.5045 18.021 17.7327 18.5339 16.6745C18.7918 16.1424 18.9226 15.625 18.9817 14.8742C18.9946 14.7105 19 12.1004 19 9.49379C19 6.88676 18.9942 4.2815 18.9813 4.11779C18.9214 3.3548 18.7906 2.84176 18.5244 2.29948C18.3059 1.85558 18.0633 1.52407 17.7112 1.18512C17.0827 0.584664 16.3141 0.219246 15.3981 0.087114C14.9543 0.0229437 14.8659 0.00394243 12.5951 0H9.5031Z" fill="url(#paint3_radial_953_795)"/>
<path d="M9.50438 2.43945C7.58583 2.43945 7.34505 2.44783 6.59152 2.4821C5.83946 2.51651 5.32612 2.63549 4.87694 2.81006C4.41232 2.99036 4.01818 3.23154 3.62553 3.62406C3.23258 4.01643 2.99121 4.41026 2.81018 4.8744C2.63504 5.32339 2.51583 5.83649 2.48199 6.5877C2.44829 7.34067 2.43945 7.58142 2.43945 9.49855C2.43945 11.4157 2.44799 11.6555 2.48213 12.4085C2.51672 13.16 2.63578 13.673 2.81033 14.1218C2.99091 14.5861 3.23228 14.9799 3.62508 15.3723C4.0176 15.765 4.41173 16.0067 4.87606 16.187C5.32552 16.3616 5.83902 16.4806 6.59093 16.515C7.34446 16.5493 7.58509 16.5576 9.5035 16.5576C11.4222 16.5576 11.6622 16.5493 12.4158 16.515C13.1678 16.4806 13.6818 16.3616 14.1312 16.187C14.5957 16.0067 14.9893 15.765 15.3818 15.3723C15.7747 14.9799 16.0161 14.5861 16.1971 14.122C16.3708 13.673 16.49 13.1599 16.5253 12.4087C16.5592 11.6557 16.568 11.4157 16.568 9.49855C16.568 7.58141 16.5592 7.34082 16.5253 6.58785C16.49 5.83634 16.3708 5.32339 16.1971 4.87455C16.0161 4.41026 15.7747 4.01642 15.3818 3.62406C14.9888 3.23139 14.5959 2.99021 14.1308 2.81006C13.6804 2.63549 13.1668 2.51651 12.4147 2.4821C11.6612 2.44783 11.4213 2.43945 9.50217 2.43945H9.50438ZM8.87065 3.71156C9.05874 3.71127 9.26861 3.71156 9.50438 3.71156C11.3906 3.71156 11.6141 3.71833 12.359 3.75215C13.0477 3.78363 13.4216 3.89862 13.6706 3.99525C14.0002 4.12319 14.2353 4.27614 14.4824 4.52321C14.7296 4.77028 14.8827 5.00558 15.011 5.335C15.1077 5.58354 15.223 5.95709 15.2543 6.64535C15.2882 7.38949 15.2955 7.61303 15.2955 9.49693C15.2955 11.3808 15.2882 11.6044 15.2543 12.3485C15.2228 13.0368 15.1077 13.4103 15.011 13.6589C14.883 13.9883 14.7296 14.2229 14.4824 14.4698C14.2351 14.7168 14.0004 14.8698 13.6706 14.9977C13.4219 15.0948 13.0477 15.2095 12.359 15.241C11.6143 15.2748 11.3906 15.2822 9.50438 15.2822C7.61805 15.2822 7.3945 15.2748 6.6498 15.241C5.96103 15.2092 5.58721 15.0942 5.33804 14.9976C5.00837 14.8696 4.77289 14.7167 4.52564 14.4696C4.27839 14.2226 4.12533 13.9878 3.99699 13.6583C3.9003 13.4097 3.78506 13.0362 3.75372 12.3479C3.71987 11.6038 3.71309 11.3802 3.71309 9.49517C3.71309 7.6101 3.71987 7.38773 3.75372 6.64359C3.78521 5.95532 3.9003 5.58178 3.99699 5.33295C4.12503 5.00352 4.27839 4.76822 4.52564 4.52115C4.77289 4.27408 5.00837 4.12114 5.33804 3.9929C5.58706 3.89583 5.96103 3.78113 6.6498 3.7495C7.30148 3.72009 7.55403 3.71127 8.87065 3.70979L8.87065 3.71156ZM13.2753 4.88366C12.8073 4.88366 12.4275 5.26265 12.4275 5.73046C12.4275 6.19813 12.8073 6.57756 13.2753 6.57756C13.7433 6.57756 14.123 6.19813 14.123 5.73046C14.123 5.2628 13.7433 4.88338 13.2753 4.88338L13.2753 4.88366ZM9.50438 5.87341C7.5009 5.87341 5.87655 7.49656 5.87655 9.49855C5.87655 11.5005 7.5009 13.123 9.50438 13.123C11.5079 13.123 13.1316 11.5005 13.1316 9.49855C13.1316 7.49656 11.5077 5.87341 9.50424 5.87341H9.50438ZM9.50438 7.14552C10.8048 7.14552 11.8592 8.19894 11.8592 9.49855C11.8592 10.798 10.8048 11.8516 9.50438 11.8516C8.20381 11.8516 7.1496 10.798 7.1496 9.49855C7.1496 8.19894 8.20381 7.14552 9.50438 7.14552Z" fill="white"/>
<defs>
<radialGradient id="paint0_radial_953_795" cx="0" cy="0" r="1" gradientTransform="matrix(-11.6841 3.2952 -2.37407 -8.41786 18.3865 8.90554)" gradientUnits="userSpaceOnUse">
<stop stop-color="#FF005F"/>
<stop offset="1" stop-color="#FC01D8"/>
</radialGradient>
<radialGradient id="paint1_radial_953_795" cx="0" cy="0" r="1" gradientUnits="userSpaceOnUse" gradientTransform="translate(5.04673 20.4634) rotate(-90) scale(15.1662 16.091)">
<stop stop-color="#FFCC00"/>
<stop offset="0.1242" stop-color="#FFCC00"/>
<stop offset="0.5672" stop-color="#FE4A05"/>
<stop offset="0.6942" stop-color="#FF0F3F"/>
<stop offset="1" stop-color="#FE0657" stop-opacity="0"/>
</radialGradient>
<radialGradient id="paint2_radial_953_795" cx="0" cy="0" r="1" gradientTransform="matrix(3.14795 -5.42403 7.06146 4.0983 9.98012 18.732)" gradientUnits="userSpaceOnUse">
<stop stop-color="#FFCC00"/>
<stop offset="1" stop-color="#FFCC00" stop-opacity="0"/>
</radialGradient>
<radialGradient id="paint3_radial_953_795" cx="0" cy="0" r="1" gradientTransform="matrix(-11.5559 3.25394 -1.10833 -3.93716 2.57789 0.773675)" gradientUnits="userSpaceOnUse">
<stop stop-color="#780CFF"/>
<stop offset="1" stop-color="#820BFF" stop-opacity="0"/>
</radialGradient>
</defs>
</svg>
