<svg width="1440" height="758" viewBox="0 0 1440 758" fill="none" xmlns="http://www.w3.org/2000/svg">
<path d="M-16 -364H1456.83V1122H-16V-364Z" stroke="#8430E1" stroke-opacity="0.04" stroke-width="2.66667" stroke-linecap="round" stroke-linejoin="round"/>
<path d="M89.2031 -257.857H1351.63V1015.86H89.2031V-257.857Z" stroke="#8430E1" stroke-opacity="0.04" stroke-width="2.66667" stroke-linecap="round" stroke-linejoin="round"/>
<path d="M194.404 -151.715H1246.42V909.714H194.404V-151.715Z" stroke="#8430E1" stroke-opacity="0.04" stroke-width="2.66667" stroke-linecap="round" stroke-linejoin="round"/>
<path d="M352.207 7.5H1088.62V750.5H352.207V7.5Z" stroke="#8430E1" stroke-opacity="0.04" stroke-width="2.66667" stroke-linecap="round" stroke-linejoin="round"/>
<path d="M268.045 -77.4146H1172.78V835.414H268.045V-77.4146Z" stroke="#8430E1" stroke-opacity="0.04" stroke-width="2.66667" stroke-linecap="round" stroke-linejoin="round"/>
<path d="M404.809 60.5703H1036.02V697.427H404.809V60.5703Z" stroke="#8430E1" stroke-opacity="0.04" stroke-width="2.66667" stroke-linecap="round" stroke-linejoin="round"/>
<path d="M431.109 87.1064H1009.72V670.892H431.109V87.1064Z" stroke="#8430E1" stroke-opacity="0.04" stroke-width="2.66667" stroke-linecap="round" stroke-linejoin="round"/>
<path d="M457.408 113.644H983.418V644.358H457.408V113.644Z" stroke="#8430E1" stroke-opacity="0.04" stroke-width="2.66667" stroke-linecap="round" stroke-linejoin="round"/>
<path d="M483.709 140.178H957.117V617.821H483.709V140.178Z" stroke="#8430E1" stroke-opacity="0.04" stroke-width="2.66667" stroke-linecap="round" stroke-linejoin="round"/>
<path d="M510.01 166.714H930.817V591.285H510.01V166.714Z" stroke="#8430E1" stroke-opacity="0.04" stroke-width="2.66667" stroke-linecap="round" stroke-linejoin="round"/>
<path d="M-16 7.5L510.009 272.857H930.817L1456.83 7.5" stroke="#8430E1" stroke-opacity="0.04" stroke-width="2.66667" stroke-linecap="round" stroke-linejoin="round"/>
<path d="M-16 -202.132L510.009 222.439H930.817L1456.83 -202.132" stroke="#8430E1" stroke-opacity="0.04" stroke-width="2.66667" stroke-linecap="round" stroke-linejoin="round"/>
<path d="M510.009 166.714L-16 -364" stroke="#8430E1" stroke-opacity="0.04" stroke-width="2.66667" stroke-linecap="round" stroke-linejoin="round"/>
<path d="M510.009 591.285L-16 1122" stroke="#8430E1" stroke-opacity="0.04" stroke-width="2.66667" stroke-linecap="round" stroke-linejoin="round"/>
<path d="M1456.83 379H930.817H510.009H-16" stroke="#8430E1" stroke-opacity="0.04" stroke-width="2.66667" stroke-linecap="round" stroke-linejoin="round"/>
<path d="M1456.83 539.542L930.817 432.072H510.009L-16 539.542" stroke="#8430E1" stroke-opacity="0.04" stroke-width="2.66667" stroke-linecap="round" stroke-linejoin="round"/>
<path d="M1456.83 222.439L930.817 325.929H510.009L-16 222.439" stroke="#8430E1" stroke-opacity="0.04" stroke-width="2.66667" stroke-linecap="round" stroke-linejoin="round"/>
<path d="M1296.39 1122L875.586 591.286L879.531 166.714L1299.02 -364" stroke="#8430E1" stroke-opacity="0.04" stroke-width="2.66667" stroke-linecap="round" stroke-linejoin="round"/>
<path d="M930.816 166.714L1456.83 -364" stroke="#8430E1" stroke-opacity="0.04" stroke-width="2.66667" stroke-linecap="round" stroke-linejoin="round"/>
<path d="M1456.83 750.501L930.817 485.144H510.009L-16 750.501" stroke="#8430E1" stroke-opacity="0.04" stroke-width="2.66667" stroke-linecap="round" stroke-linejoin="round"/>
<path d="M1456.83 962.786L930.817 539.541H510.009L-16 962.786" stroke="#8430E1" stroke-opacity="0.04" stroke-width="2.66667" stroke-linecap="round" stroke-linejoin="round"/>
<path d="M930.816 591.285L1456.83 1122" stroke="#8430E1" stroke-opacity="0.04" stroke-width="2.66667" stroke-linecap="round" stroke-linejoin="round"/>
<path d="M720.414 1122V591.286V166.714V-364" stroke="#8430E1" stroke-opacity="0.04" stroke-width="2.66667" stroke-linecap="round" stroke-linejoin="round"/>
<path d="M561.297 1122L667.814 591.286V166.714L565.242 -364" stroke="#8430E1" stroke-opacity="0.04" stroke-width="2.66667" stroke-linecap="round" stroke-linejoin="round"/>
<path d="M875.585 1122L773.014 591.286V166.714L879.531 -364" stroke="#8430E1" stroke-opacity="0.04" stroke-width="2.66667" stroke-linecap="round" stroke-linejoin="round"/>
<path d="M1088.62 1122L825.615 591.286V166.714L1088.62 -364" stroke="#8430E1" stroke-opacity="0.04" stroke-width="2.66667" stroke-linecap="round" stroke-linejoin="round"/>
<path d="M352.207 1122L615.212 591.286V166.714L352.207 -364" stroke="#8430E1" stroke-opacity="0.04" stroke-width="2.66667" stroke-linecap="round" stroke-linejoin="round"/>
<path d="M144.433 -364L565.24 166.714L561.295 591.286L141.803 1122" stroke="#8430E1" stroke-opacity="0.04" stroke-width="2.66667" stroke-linecap="round" stroke-linejoin="round"/>
</svg>
